{"glyphs":{"\u0000":{"ha":0,"x_min":0,"x_max":0,"o":""},"\r":{"ha":347,"x_min":0,"x_max":0,"o":""}," ":{"ha":210,"x_min":0,"x_max":0,"o":""},"A":{"ha":663,"x_min":-11,"x_max":669,"o":"m 642 411 q 669 382 669 407 q 668 367 669 375 q 646 313 660 338 q 608 269 632 288 q 594 238 594 260 q 594 178 594 208 q 583 119 594 149 q 564 81 578 103 q 532 38 550 58 q 493 5 514 18 q 451 -8 472 -8 q 414 29 415 -8 q 410 98 413 64 q 403 165 407 132 q 400 186 403 172 q 389 203 400 203 q 383 201 386 203 q 322 193 351 197 q 261 186 292 189 q 250 171 250 185 q 250 132 250 151 q 253 93 250 113 q 253 90 253 92 q 236 60 253 69 q 210 53 222 53 q 167 65 188 53 q 129 94 146 76 q 101 134 113 113 q 82 174 89 156 q 66 203 75 192 q 39 221 57 215 q 19 238 28 225 q 3 267 10 250 q -8 299 -4 283 q -11 325 -11 315 q -3 356 -11 346 q 24 374 4 367 q 39 375 31 375 q 44 375 42 375 q 49 375 47 375 q 64 385 58 375 q 69 404 69 393 l 69 413 q 72 431 71 422 q 100 541 83 488 q 135 647 117 594 l 224 892 q 232 913 228 903 q 243 935 236 924 q 279 965 257 965 q 306 957 292 965 q 329 942 319 949 q 364 969 346 957 q 406 981 382 981 q 441 970 426 981 q 466 944 456 960 q 483 910 476 929 q 493 875 489 892 q 540 656 521 765 q 576 433 558 546 q 594 414 578 414 q 619 414 607 414 q 642 411 631 414 m 339 406 q 356 409 354 407 q 358 415 358 411 q 357 428 358 421 q 348 548 353 489 q 336 668 343 607 q 333 689 335 678 q 324 711 331 700 q 294 556 308 632 q 269 400 281 479 q 306 403 289 403 q 339 406 324 404 z "},"B":{"ha":574,"x_min":10,"x_max":569,"o":"m 443 543 q 510 498 482 526 q 553 434 538 469 q 569 376 568 399 q 569 350 569 354 q 558 272 569 313 q 507 168 540 214 q 431 83 474 122 q 185 -21 322 -11 q 174 -21 179 -21 q 117 -7 144 -21 q 69 43 89 7 q 43 110 46 83 q 40 149 40 138 q 51 218 40 182 q 64 242 57 231 q 76 257 72 257 q 93 244 79 257 q 144 224 115 224 q 160 225 151 224 q 235 249 200 232 q 301 294 269 267 q 326 327 317 308 q 338 367 335 346 q 339 378 339 372 q 315 417 339 403 q 276 426 296 426 q 256 425 271 426 q 218 418 242 424 q 211 413 211 417 q 212 410 211 413 q 214 401 213 407 q 222 370 218 386 q 229 338 226 354 q 232 313 232 324 q 225 288 232 299 q 190 271 218 276 q 167 269 178 269 q 101 291 133 269 q 58 365 69 313 q 47 463 47 415 q 117 685 47 582 q 164 719 138 711 q 172 721 168 721 q 188 701 186 721 l 188 692 l 186 675 l 186 665 q 185 629 185 647 q 186 595 185 617 q 190 542 188 574 q 196 540 193 540 q 202 544 199 540 q 208 550 206 547 q 240 583 225 565 q 268 619 256 600 q 289 658 282 639 q 296 697 296 681 q 286 729 296 714 q 238 750 276 744 q 207 751 222 751 q 140 742 176 751 q 65 703 104 733 q 38 688 46 688 q 32 690 36 688 q 18 719 28 692 q 10 778 10 749 q 11 808 10 786 q 27 864 13 831 q 67 924 42 897 q 125 965 92 951 q 261 993 193 993 q 306 992 267 993 q 417 960 344 990 q 468 917 449 944 q 499 854 488 890 q 508 783 508 817 q 499 716 508 757 q 457 622 489 675 q 433 591 446 606 q 406 560 421 576 q 426 550 417 554 q 443 543 435 546 z "},"C":{"ha":547,"x_min":7,"x_max":533,"o":"m 528 368 q 533 292 533 329 q 526 209 533 258 q 475 99 519 160 q 397 29 446 58 q 297 0 349 0 q 218 24 257 0 q 94 143 139 71 q 28 308 49 215 q 7 486 7 397 q 35 664 7 575 q 102 806 58 743 q 213 913 146 868 q 263 939 240 932 q 304 946 286 946 q 336 942 319 946 q 340 942 339 942 q 361 950 350 942 q 390 967 374 961 q 426 972 407 972 q 465 966 446 972 q 497 947 485 960 q 518 897 518 926 q 517 881 518 889 q 504 796 510 838 q 496 711 499 754 q 492 675 494 693 l 485 603 q 481 567 483 585 q 476 542 479 546 q 460 538 472 538 q 451 538 456 538 q 431 538 440 538 q 411 543 421 539 q 364 589 378 556 q 324 719 336 653 l 324 722 l 322 726 q 317 736 322 732 q 297 724 306 732 q 281 708 289 717 q 242 647 257 683 q 223 583 226 611 q 219 538 219 554 q 224 485 219 515 q 246 422 229 454 q 307 363 268 382 q 390 344 346 344 q 449 356 421 344 q 500 394 476 367 q 510 400 506 400 q 519 393 515 400 q 528 368 526 381 z "},"D":{"ha":565,"x_min":10,"x_max":557,"o":"m 540 719 q 557 556 557 636 q 547 425 557 510 q 472 224 536 340 q 325 50 415 118 q 268 15 297 29 q 206 -7 239 0 q 179 -10 193 -10 q 117 3 151 -10 q 53 50 82 17 q 17 118 25 83 q 10 175 10 153 q 19 244 10 208 q 60 322 31 285 q 75 333 65 333 q 86 329 79 333 q 102 318 94 324 q 124 310 110 313 q 108 349 115 331 q 94 388 101 368 q 71 460 81 424 q 58 538 61 497 q 57 561 57 550 q 60 593 57 578 q 138 699 69 671 q 172 709 158 707 q 192 711 185 711 q 224 706 207 711 q 261 679 246 700 q 274 657 272 665 q 275 644 275 649 q 268 619 275 633 q 218 481 233 553 q 201 333 203 410 q 188 288 201 311 q 203 283 196 283 q 214 285 207 283 q 232 290 221 288 q 319 340 282 306 q 379 425 356 375 q 395 478 392 451 q 399 524 399 504 q 395 570 399 542 q 377 635 392 599 q 335 700 363 672 q 265 748 296 739 q 214 757 233 757 q 157 746 186 757 q 115 730 135 739 q 81 699 94 721 q 72 693 76 693 q 67 694 71 693 q 58 700 64 696 q 26 769 29 728 q 26 782 26 776 q 39 843 26 814 q 75 899 51 872 q 247 981 151 981 q 333 965 289 981 q 540 719 503 906 z "},"E":{"ha":508,"x_min":19,"x_max":499,"o":"m 499 254 q 499 240 499 247 q 488 181 499 210 q 453 125 476 153 q 401 80 432 100 q 335 45 371 60 q 265 22 300 31 q 197 10 229 13 q 174 8 185 8 q 107 22 140 8 q 47 83 74 36 q 25 161 25 122 q 26 183 25 163 q 44 246 26 204 q 69 274 53 265 q 107 285 86 282 q 89 374 92 326 q 76 390 89 386 q 34 425 46 401 q 19 482 22 449 q 19 496 19 489 q 24 556 19 525 q 35 590 26 575 q 60 611 43 604 q 75 633 75 619 q 75 636 75 635 q 75 643 75 640 q 75 649 75 646 q 78 666 76 658 q 81 679 81 674 q 79 689 81 685 q 68 700 76 696 q 53 711 60 704 q 22 783 26 742 q 19 838 19 811 q 26 893 19 865 q 51 944 33 928 q 100 964 68 961 q 113 964 106 964 q 151 961 131 964 q 322 944 238 944 q 379 946 350 944 q 436 951 408 947 q 446 951 442 951 q 483 935 471 951 q 496 900 496 918 q 492 874 496 888 q 456 805 482 836 q 395 750 429 774 q 322 712 361 726 q 246 693 282 697 l 239 693 q 236 692 236 692 l 231 686 q 251 664 242 675 q 263 636 260 653 q 269 626 264 626 q 273 627 269 626 q 282 628 276 628 l 393 639 q 408 642 400 642 q 424 642 415 642 q 463 601 458 642 q 464 588 464 594 q 460 561 464 575 q 447 531 456 547 q 415 485 435 504 q 372 451 396 465 q 322 426 349 436 q 268 407 296 415 q 244 396 247 401 q 242 378 242 390 q 242 365 242 372 q 244 335 243 346 q 244 321 244 324 q 239 283 244 303 q 254 282 247 282 q 280 285 265 282 q 311 292 294 289 q 363 299 338 294 q 414 308 388 304 q 435 311 424 311 q 451 310 443 311 q 499 254 494 301 z "},"F":{"ha":613,"x_min":6,"x_max":626,"o":"m 582 917 q 586 917 585 917 q 626 869 626 917 q 597 788 626 825 q 511 707 564 742 q 405 654 460 675 q 292 622 350 633 q 281 620 286 621 q 269 618 276 619 l 265 614 q 271 602 268 607 q 275 590 274 597 q 287 567 278 572 q 307 563 296 563 q 313 563 310 563 q 356 564 335 564 q 399 567 378 564 q 411 568 406 568 q 444 561 431 568 q 476 514 476 549 q 475 501 476 508 q 450 453 468 474 q 342 375 408 399 q 328 367 329 369 q 328 364 328 365 q 331 347 328 358 q 351 288 339 317 q 379 232 364 260 q 392 210 386 221 q 401 188 397 199 q 410 151 410 169 q 399 107 410 129 q 368 68 389 88 q 321 34 347 49 q 272 14 294 19 q 236 8 250 8 q 214 11 225 8 q 149 71 167 21 q 141 106 143 88 q 139 142 139 124 q 139 179 139 161 q 140 226 139 199 q 143 290 140 254 q 141 308 143 306 q 124 313 139 311 q 60 335 82 315 q 29 399 39 354 q 22 451 22 425 q 29 501 22 476 q 103 563 43 563 q 126 562 114 563 q 151 560 139 561 q 157 560 154 560 q 176 579 175 560 q 179 594 176 588 q 182 604 182 600 q 181 613 182 608 q 151 618 165 615 q 122 625 138 621 q 10 751 29 647 q 6 797 6 775 q 25 892 6 847 q 126 964 57 963 q 146 965 136 965 q 169 964 156 965 q 201 956 183 963 q 308 931 254 938 q 417 921 361 924 q 488 917 458 918 q 535 915 517 915 q 582 917 558 915 z "},"G":{"ha":582,"x_min":7,"x_max":576,"o":"m 576 522 q 532 407 572 453 q 524 385 524 397 q 525 375 524 381 q 533 290 533 333 q 532 249 533 281 q 511 167 531 217 q 478 103 499 133 q 429 51 457 74 q 368 14 401 28 q 297 0 335 0 q 217 24 257 0 q 89 151 135 74 q 24 324 43 228 q 7 478 7 401 q 8 528 7 483 q 32 654 8 572 q 214 914 79 824 q 264 940 242 933 q 303 946 286 946 q 335 942 318 946 q 342 940 338 940 q 363 951 351 940 q 425 972 386 972 q 466 965 446 972 q 499 946 486 958 q 517 900 517 928 q 517 889 517 894 q 492 685 503 788 q 468 653 490 661 q 435 644 449 646 q 413 642 421 642 q 389 644 400 642 q 325 713 333 656 q 322 724 324 718 q 319 736 321 729 q 306 731 311 735 q 296 722 301 726 q 247 659 264 694 q 224 581 231 624 q 221 538 221 558 q 228 474 221 506 q 270 390 239 419 q 349 349 301 360 q 388 344 368 344 q 419 347 399 344 q 467 368 439 350 q 442 367 454 367 q 424 367 436 367 q 393 372 413 368 q 351 396 369 376 q 322 440 332 415 q 310 481 311 465 q 310 501 310 497 q 317 542 310 524 q 334 567 324 558 q 358 576 344 576 q 365 576 361 576 q 406 575 386 575 q 453 577 425 575 q 522 582 482 579 q 538 582 531 582 q 569 574 563 582 q 576 540 576 567 q 576 522 576 532 z "},"H":{"ha":729,"x_min":-3,"x_max":728,"o":"m 711 556 q 725 526 722 539 q 728 507 728 514 q 724 483 728 496 q 703 456 717 464 q 671 446 689 449 q 653 443 660 444 q 645 438 647 442 q 643 428 643 435 q 644 408 643 421 q 645 402 644 406 q 646 394 646 399 l 649 368 q 649 365 649 367 l 650 357 q 650 354 650 356 l 658 244 q 659 238 658 242 q 660 231 660 235 l 663 204 q 663 201 663 203 l 664 193 q 664 190 664 192 q 669 128 667 158 q 678 67 672 97 q 681 42 681 53 q 672 8 681 24 q 631 -19 663 -8 q 564 -31 599 -31 q 519 -26 542 -31 q 468 0 489 -19 q 435 45 447 19 q 416 101 422 71 q 407 157 410 131 q 403 259 403 208 q 401 361 403 310 l 401 378 q 399 394 400 393 q 394 396 397 396 q 383 394 390 396 q 349 388 367 392 q 314 382 332 385 q 292 356 293 378 q 287 269 289 313 q 285 183 285 226 l 283 172 l 283 118 l 282 107 q 275 69 282 88 q 244 50 268 50 q 198 65 221 50 q 164 100 175 81 q 125 192 133 144 q 115 241 119 217 q 106 290 110 265 q 82 314 101 314 q 78 314 81 314 q 43 328 57 314 q 18 364 29 343 q 4 401 8 382 q -1 442 0 421 q -3 460 -3 450 q 51 553 -3 521 q 66 568 63 560 q 69 590 69 576 q 68 650 68 619 q 71 738 68 686 q 86 857 74 790 q 99 903 89 882 q 162 983 128 968 q 229 997 196 997 q 267 993 247 997 q 320 968 299 989 q 346 914 342 947 q 347 894 347 904 q 347 879 347 889 q 343 854 346 869 q 336 794 340 825 l 324 676 q 317 617 321 647 l 400 617 q 411 622 408 617 q 415 633 414 626 q 430 781 419 708 q 451 926 440 853 q 472 978 457 963 q 519 1000 488 994 q 544 1003 532 1003 q 574 999 557 1003 q 615 985 592 996 q 628 964 628 979 q 626 947 626 956 q 626 931 626 939 q 624 807 624 868 q 624 745 624 792 q 628 621 625 699 q 632 601 628 608 q 649 593 636 594 q 683 580 665 590 q 711 556 701 569 z "},"I":{"ha":322,"x_min":17,"x_max":314,"o":"m 311 865 q 314 826 314 846 q 313 797 314 817 q 308 749 311 778 q 268 443 288 594 q 229 138 249 292 q 223 99 226 118 q 214 61 219 81 q 197 31 208 46 q 165 15 185 15 q 141 26 153 15 q 119 51 129 36 q 100 80 108 65 q 88 104 92 94 q 55 217 68 156 q 33 344 42 279 q 21 472 25 408 q 17 589 17 535 q 18 689 17 639 q 26 788 19 739 q 72 911 38 865 q 189 957 106 957 q 271 938 236 957 q 311 865 306 919 z "},"J":{"ha":553,"x_min":6,"x_max":549,"o":"m 467 979 q 510 960 492 975 q 538 924 528 944 q 548 889 547 903 q 549 874 549 875 q 539 826 549 850 q 469 754 519 776 q 438 742 454 747 q 404 729 422 736 q 457 672 443 708 q 481 597 471 636 q 506 465 501 519 q 510 383 510 411 q 503 282 510 332 q 453 115 492 192 q 385 28 425 63 q 289 -15 346 -7 q 238 -19 263 -19 q 188 -16 218 -19 q 117 10 157 -12 q 38 80 64 38 q 8 152 11 122 q 6 193 6 182 q 18 267 6 228 q 57 340 31 307 q 75 358 65 350 q 86 366 82 365 q 92 367 90 367 q 106 357 99 367 q 128 340 115 344 q 157 333 142 335 q 198 335 178 333 q 238 344 218 336 q 318 442 299 369 q 331 550 331 497 q 329 596 331 560 q 304 696 328 632 q 270 677 285 688 q 240 657 256 667 q 216 643 228 650 q 192 631 204 636 q 151 624 171 624 q 103 637 131 624 q 57 696 76 650 q 41 751 43 728 q 39 786 39 774 q 42 826 39 807 q 50 869 44 849 q 67 908 56 889 q 100 951 81 936 q 150 971 119 967 q 224 981 188 975 q 299 989 261 986 q 340 990 319 990 q 393 988 361 990 q 467 979 425 986 z "},"K":{"ha":626,"x_min":15,"x_max":619,"o":"m 618 286 q 619 256 619 271 q 540 61 619 144 q 504 44 524 44 q 463 59 486 44 q 426 85 439 74 q 317 205 364 139 q 243 354 271 271 q 239 364 242 358 q 228 350 229 358 q 226 333 228 342 q 217 185 218 258 q 215 38 215 113 q 188 10 214 10 q 122 46 147 10 q 97 99 104 68 q 52 269 72 183 q 22 443 32 354 q 15 578 15 511 q 32 786 15 683 q 48 849 36 818 q 78 903 60 879 q 124 942 97 926 q 186 957 150 957 q 233 951 206 957 q 272 926 261 946 q 285 885 283 904 q 288 851 288 867 q 288 836 288 844 q 280 751 286 793 q 268 668 274 710 l 260 606 q 268 614 265 606 q 324 722 293 669 q 381 829 354 774 q 431 911 403 874 q 467 950 443 932 q 503 963 486 963 q 556 933 536 963 q 585 862 575 903 q 600 780 596 821 q 604 717 604 739 q 601 702 604 707 q 590 693 597 697 q 540 661 565 678 q 489 629 515 644 q 416 573 449 606 q 351 508 383 540 q 345 499 346 501 q 344 494 344 496 q 349 485 344 490 l 360 471 q 467 369 410 413 q 599 310 525 326 q 618 286 617 306 z "},"L":{"ha":496,"x_min":13,"x_max":508,"o":"m 443 333 q 494 310 479 331 q 508 268 508 289 q 504 242 508 256 q 454 163 492 200 q 368 94 417 125 q 267 43 319 64 q 175 13 215 22 q 139 8 156 8 q 64 35 100 8 q 17 131 28 61 q 13 186 13 158 q 18 246 13 217 q 29 274 21 265 q 56 286 38 283 q 72 291 71 289 q 74 294 74 293 q 71 311 74 300 q 42 473 46 404 q 38 583 38 542 q 42 690 38 638 q 53 781 44 732 q 81 869 61 829 q 135 937 101 910 q 222 964 169 964 q 283 957 251 964 q 332 897 332 944 q 328 868 332 883 q 272 594 296 732 q 228 318 249 457 q 226 309 226 314 q 229 300 226 304 q 295 310 263 303 q 360 324 328 317 q 399 331 381 328 q 431 333 417 333 q 443 333 438 333 z "},"M":{"ha":836,"x_min":17,"x_max":819,"o":"m 779 749 q 811 528 803 626 q 819 356 819 431 q 817 256 819 306 q 801 161 814 207 q 763 72 788 115 q 625 -24 715 -8 q 616 -24 619 -24 q 611 -25 613 -25 q 604 -24 608 -25 q 567 -9 576 -21 q 558 21 558 3 q 560 38 558 29 q 589 511 589 274 q 589 553 589 532 l 589 583 q 578 576 581 582 q 575 565 576 571 q 508 392 540 479 q 456 214 476 306 q 455 210 456 211 q 454 208 454 210 q 433 173 446 178 q 415 168 421 168 q 383 182 400 168 q 365 202 372 190 q 353 226 358 214 q 338 269 344 247 q 326 311 332 290 q 291 418 311 367 q 249 522 271 469 l 244 529 l 238 528 l 238 374 q 243 260 239 317 q 253 147 247 204 q 256 126 256 136 q 257 106 256 117 q 257 97 257 101 q 231 60 257 69 q 157 43 193 43 q 57 79 106 43 q 46 92 50 85 q 39 108 42 99 q 28 157 32 132 q 21 207 24 182 q 17 315 17 261 q 19 397 17 343 q 29 532 21 450 q 42 653 35 593 q 64 771 50 713 q 76 818 69 794 q 93 864 82 842 q 97 883 97 874 q 93 900 97 892 l 89 915 q 85 935 85 928 q 87 942 85 938 q 103 957 89 947 q 156 981 131 976 q 200 986 182 986 q 232 983 215 986 q 297 931 272 975 q 386 736 347 836 q 403 693 394 714 q 421 651 413 672 q 428 660 428 654 q 431 669 428 665 q 465 785 444 729 q 510 894 485 840 q 581 979 535 946 q 632 996 606 996 q 660 992 646 996 q 764 900 732 971 q 773 874 772 882 q 774 865 774 865 q 758 835 774 850 q 753 822 753 829 q 757 808 753 815 q 772 779 767 794 q 779 749 776 764 z "},"N":{"ha":678,"x_min":19,"x_max":665,"o":"m 654 850 q 665 749 665 801 q 664 717 665 733 q 648 513 657 614 q 621 310 639 411 q 594 199 610 253 q 557 92 578 144 q 526 32 544 58 q 467 -4 500 -4 q 419 14 444 -4 q 372 67 390 39 q 342 123 354 94 q 321 182 331 151 q 278 349 297 265 q 254 522 258 432 q 246 510 246 517 q 246 497 246 504 q 231 310 235 403 q 224 122 226 217 l 224 107 l 222 74 l 222 58 q 222 54 222 56 q 213 26 222 35 q 188 17 203 17 q 181 17 185 17 q 125 43 153 21 q 64 132 83 79 q 40 222 49 176 q 28 315 32 268 q 19 519 19 418 q 28 724 19 622 q 49 838 32 781 q 69 885 57 863 q 99 926 81 907 q 169 957 129 957 q 172 957 171 957 q 198 956 185 957 q 224 953 211 956 q 296 913 267 944 q 317 858 317 890 q 328 708 319 782 q 351 558 338 633 q 369 458 360 508 q 393 358 378 407 q 399 339 396 349 q 411 319 401 329 q 419 367 418 344 q 422 414 421 390 q 428 553 428 483 q 427 615 428 567 q 414 747 426 664 q 400 819 408 783 q 379 892 392 856 q 378 904 378 899 q 389 931 378 919 q 453 970 424 965 q 496 975 482 975 q 556 964 524 975 q 617 922 588 953 q 654 850 646 890 z "},"O":{"ha":507,"x_min":8,"x_max":494,"o":"m 493 422 q 494 390 494 406 q 485 294 494 346 q 456 181 475 242 q 437 130 449 154 q 410 82 425 106 q 341 22 378 36 q 269 8 304 8 q 239 10 254 8 q 126 67 168 21 q 57 179 85 114 q 8 429 8 297 q 10 479 8 454 q 90 800 22 644 q 122 861 104 832 q 158 918 139 890 q 201 953 175 942 q 254 964 226 964 q 309 951 285 964 q 352 919 333 939 q 384 874 371 900 q 404 821 397 849 q 409 799 408 807 q 410 789 410 792 q 403 765 410 778 q 400 757 400 761 q 411 750 400 750 q 438 736 429 747 q 454 710 447 725 q 476 639 469 675 q 486 565 482 603 q 492 501 490 529 q 493 451 493 472 q 493 422 493 436 m 335 293 q 343 383 343 338 q 340 442 343 401 q 317 543 338 482 q 313 552 315 547 q 304 560 311 557 q 267 422 282 493 q 259 367 260 388 q 258 342 258 347 q 264 283 258 313 q 274 254 267 269 q 299 239 281 239 q 322 254 314 239 q 330 274 326 264 q 335 293 333 283 z "},"P":{"ha":588,"x_min":-6,"x_max":589,"o":"m 371 347 q 359 341 360 344 q 358 336 358 338 q 361 325 358 332 q 391 240 376 282 q 431 158 406 197 q 432 156 432 157 q 433 153 432 154 l 439 142 q 440 139 440 140 q 442 136 440 138 q 447 119 447 128 q 435 94 447 107 q 386 50 411 71 q 329 14 361 29 q 265 -3 296 -3 q 217 8 247 -3 q 164 71 186 18 q 135 169 143 119 q 126 268 128 218 q 126 303 126 286 q 139 481 126 389 q 188 671 151 572 q 189 676 189 674 q 186 683 189 681 q 160 672 172 679 q 136 656 147 664 q 133 654 135 656 l 132 653 q 129 651 131 653 l 115 640 q 113 639 114 640 l 111 638 q 108 636 110 638 q 75 624 89 624 q 61 626 71 624 q 36 649 51 628 q 0 719 6 689 q -6 769 -6 750 q 0 819 -6 794 q 54 921 13 878 q 172 971 96 964 q 240 975 207 975 q 407 951 328 975 q 533 871 486 928 q 588 735 581 814 q 589 706 589 719 q 544 524 589 608 q 406 368 500 439 q 371 347 388 354 m 335 415 q 388 481 367 447 q 418 553 408 514 q 424 585 424 574 q 425 601 425 597 q 421 635 425 618 q 324 711 401 707 q 314 711 318 711 q 299 708 303 711 q 294 686 294 706 q 298 607 294 646 q 308 529 301 568 q 318 474 313 501 q 335 415 324 446 z "},"Q":{"ha":507,"x_min":8,"x_max":494,"o":"m 483 603 q 492 499 490 540 q 494 436 494 457 q 490 353 494 394 q 469 239 483 294 q 429 131 456 183 q 393 77 414 101 q 344 38 372 53 q 356 30 350 31 q 365 28 361 29 q 403 5 388 19 q 425 -33 418 -10 q 428 -50 428 -42 q 401 -86 428 -75 q 386 -92 397 -89 q 291 -128 335 -101 q 207 -186 247 -154 q 181 -197 193 -197 q 153 -181 165 -197 q 144 -167 147 -174 q 138 -153 140 -160 q 121 -75 124 -115 q 121 -65 121 -71 q 175 22 121 -4 l 199 31 q 194 36 194 35 q 194 36 194 36 q 100 114 135 64 q 44 228 65 164 q 9 388 10 332 q 8 447 8 443 q 35 650 8 549 q 90 818 56 739 q 121 876 104 849 q 157 932 138 904 q 199 968 174 957 q 252 979 225 979 q 304 969 279 979 q 344 943 329 960 q 381 892 365 919 q 406 832 397 864 q 409 813 408 819 q 410 804 410 806 q 403 782 410 793 q 400 774 400 776 q 411 764 400 765 q 435 753 426 763 q 451 729 444 744 q 472 667 465 699 q 483 603 479 635 m 333 306 q 344 358 343 338 q 344 385 344 378 q 342 439 344 413 q 332 510 339 475 q 306 582 325 546 q 272 465 285 524 q 261 402 264 429 q 258 357 258 375 q 261 317 258 338 q 265 295 263 306 q 271 274 267 285 q 299 254 279 254 q 324 274 317 254 q 333 306 329 288 z "},"R":{"ha":606,"x_min":4,"x_max":597,"o":"m 593 338 q 597 294 597 315 q 583 222 597 260 q 519 151 568 183 q 458 132 489 132 q 399 149 429 132 q 354 180 374 161 q 318 221 335 199 q 307 235 311 228 q 292 249 303 242 q 329 90 303 168 q 333 79 332 82 q 342 47 342 60 q 338 33 342 42 q 307 14 335 25 q 259 -3 282 3 q 217 -10 236 -10 q 200 -8 208 -10 q 106 43 140 -1 q 71 102 83 71 q 57 169 58 133 q 56 200 56 185 q 61 276 56 235 q 78 365 67 317 q 108 491 92 429 q 140 615 125 553 q 149 644 143 631 q 160 674 154 658 q 142 665 149 671 q 128 653 135 658 q 81 631 97 631 q 68 633 78 631 q 33 669 58 635 q 10 724 17 694 q 4 778 4 753 q 6 807 4 786 q 19 860 7 828 q 49 914 31 892 q 151 974 92 964 q 243 982 197 982 q 301 979 261 982 q 401 956 340 976 q 568 757 547 907 q 574 702 572 724 q 576 669 576 681 q 571 621 576 646 q 535 526 561 568 q 471 450 510 485 q 449 431 460 440 q 424 411 438 422 q 452 398 439 403 q 481 389 465 393 q 550 376 514 381 q 593 338 588 369 m 382 525 q 414 617 411 565 q 385 690 414 661 q 310 718 356 718 q 295 714 300 717 q 290 701 290 711 q 290 689 290 696 q 284 628 290 660 q 276 561 278 597 q 273 514 274 533 q 272 485 272 494 q 274 444 272 465 q 290 448 283 444 q 303 456 296 451 q 382 525 351 482 z "},"S":{"ha":599,"x_min":14,"x_max":585,"o":"m 485 540 q 585 350 585 476 q 585 340 585 346 q 565 232 583 282 q 506 140 546 182 q 397 51 456 88 q 268 6 339 15 q 236 3 251 3 q 160 17 201 3 q 81 71 119 31 q 26 161 38 115 q 15 244 15 207 q 18 290 15 267 q 78 379 25 351 q 86 382 82 382 q 96 376 92 382 q 143 333 117 347 q 201 315 169 319 q 290 308 246 308 q 379 324 335 308 q 410 339 397 328 q 422 363 422 351 q 410 385 422 374 q 388 397 399 394 q 364 403 376 400 q 354 404 358 404 l 347 404 q 336 406 342 404 l 278 411 q 268 413 272 413 l 261 413 q 250 414 256 413 q 176 429 213 419 q 107 458 140 439 q 32 547 50 494 q 14 663 14 600 l 17 681 l 17 689 q 49 806 21 756 q 126 893 78 856 q 233 949 176 931 q 354 969 290 967 q 413 962 382 967 q 475 944 444 957 q 520 918 500 935 q 557 878 540 901 q 576 838 571 860 q 581 794 581 817 q 531 639 581 706 q 519 626 528 635 q 497 611 504 611 q 492 612 496 611 q 481 636 489 613 q 358 724 446 724 q 354 724 356 724 q 232 685 290 724 q 199 639 208 671 q 197 631 197 635 q 208 611 197 618 q 247 599 228 600 q 313 592 279 594 q 378 582 346 589 q 433 565 406 575 q 485 540 460 556 z "},"T":{"ha":568,"x_min":-4,"x_max":578,"o":"m 560 863 q 578 796 578 831 q 571 751 578 774 q 570 750 571 750 q 569 749 569 750 l 569 743 q 569 742 569 742 q 568 740 568 742 q 556 714 561 724 q 546 700 551 704 q 532 696 540 696 q 525 697 531 696 q 503 700 519 697 q 418 708 461 708 q 332 700 375 708 q 331 693 331 696 q 333 685 331 689 q 339 675 336 681 q 357 627 353 651 q 361 578 361 603 q 363 517 363 547 q 362 491 363 501 q 361 476 361 481 q 367 396 361 435 q 381 294 371 343 q 408 196 390 244 q 409 194 408 194 q 410 192 410 193 l 413 183 q 413 181 413 182 q 414 179 414 181 q 424 144 422 156 q 426 126 426 132 q 424 108 426 118 q 411 85 421 97 q 383 58 401 74 q 332 23 360 36 q 274 3 304 10 q 249 0 261 0 q 195 22 221 0 q 157 76 169 43 q 141 139 146 107 q 133 204 136 171 q 132 246 132 225 q 176 531 132 393 q 199 602 188 567 q 226 676 211 638 q 176 656 199 667 q 131 635 153 646 q 110 624 119 629 q 90 614 101 618 q 69 610 79 610 q 26 633 46 610 q 8 663 15 647 q -1 697 1 678 q -4 749 -4 722 q -3 775 -4 756 q 6 826 -3 794 q 41 897 17 869 q 101 942 65 925 q 167 963 133 956 q 235 972 200 969 q 265 974 250 974 q 356 967 308 974 q 460 940 404 960 q 515 911 490 929 q 560 863 540 893 z "},"U":{"ha":593,"x_min":15,"x_max":579,"o":"m 565 744 q 578 597 576 651 q 579 529 579 543 q 569 372 579 450 q 528 208 558 285 q 439 68 497 131 q 374 20 410 36 q 303 4 339 4 q 200 35 249 4 q 85 148 126 81 q 31 306 44 215 q 19 406 24 356 q 15 507 15 457 q 26 702 18 604 q 58 896 35 800 q 89 945 68 928 q 139 967 110 963 q 163 968 151 968 q 247 946 206 968 q 318 865 289 924 q 329 824 329 844 q 325 797 329 811 q 294 649 297 708 q 290 558 290 589 q 297 438 290 499 q 304 392 300 414 q 315 350 308 371 q 339 310 322 328 q 361 299 353 299 q 383 312 372 299 q 400 343 393 325 q 412 378 407 361 q 417 404 417 396 q 426 567 426 486 q 422 687 426 607 q 381 885 417 767 q 376 906 378 896 q 371 925 374 915 q 371 933 371 929 q 394 957 371 957 q 432 952 414 957 q 465 932 450 947 q 532 850 506 896 q 565 744 558 804 z "},"V":{"ha":508,"x_min":7,"x_max":503,"o":"m 501 785 q 503 757 503 771 q 497 686 503 725 q 486 601 492 647 q 436 367 469 481 q 364 140 403 253 q 351 104 360 128 q 330 58 342 81 q 303 19 318 36 q 271 3 288 3 q 228 14 247 3 q 192 43 208 25 q 165 82 176 61 q 144 122 153 103 q 40 451 72 281 q 23 543 32 497 q 10 636 14 589 q 7 697 7 667 q 8 732 7 707 q 15 797 8 757 q 31 855 19 825 q 59 908 42 885 q 101 947 76 932 q 160 963 126 963 q 187 960 172 963 q 214 951 201 957 q 234 933 226 944 q 242 907 242 922 l 242 885 l 240 839 l 240 817 q 239 757 239 786 q 244 643 239 707 q 267 500 250 579 q 279 433 274 467 q 293 367 285 399 q 299 372 299 368 q 301 381 300 376 q 329 569 321 475 q 340 761 338 664 q 340 801 340 782 l 339 882 q 339 922 339 903 q 379 969 339 969 q 383 969 381 969 q 439 949 417 968 q 475 902 461 929 q 494 844 489 875 q 501 785 500 813 z "},"W":{"ha":981,"x_min":17,"x_max":967,"o":"m 954 738 q 965 600 963 653 q 967 526 967 547 q 960 400 967 464 q 947 308 956 353 q 919 218 938 263 q 829 71 886 136 q 752 12 786 19 q 699 4 718 4 q 628 17 665 4 q 567 49 594 28 q 514 96 539 69 q 501 110 507 103 q 488 125 494 117 q 463 97 475 110 q 440 69 451 83 q 353 8 390 13 q 304 4 315 4 q 197 38 250 4 q 81 158 121 86 q 28 325 42 231 q 17 507 17 417 q 26 689 17 597 q 35 774 29 732 q 50 860 40 817 q 51 865 51 863 q 53 869 51 867 l 57 888 q 60 897 60 893 q 90 947 69 929 q 140 967 111 964 q 164 968 153 968 q 311 881 256 968 q 329 822 329 853 q 322 786 329 806 q 292 633 293 688 q 290 568 290 578 q 307 388 290 478 q 310 376 308 382 l 315 357 q 318 346 317 351 q 333 317 322 331 q 361 300 347 300 q 388 321 375 300 q 407 390 407 354 q 407 403 407 396 q 403 515 403 460 q 405 599 403 543 q 418 739 407 656 q 419 746 419 742 l 419 750 q 421 757 419 754 l 425 792 q 428 810 428 803 q 467 874 432 851 q 509 891 489 888 q 543 894 529 894 q 578 891 557 894 q 624 875 599 888 q 667 843 650 863 q 683 814 679 828 q 688 788 688 800 q 686 772 688 781 q 670 625 671 675 q 669 572 669 575 q 688 386 669 479 q 699 345 692 364 q 724 313 707 326 q 750 299 739 299 q 756 299 750 299 q 774 319 763 300 q 797 369 789 343 q 807 422 804 394 q 814 565 814 494 q 810 678 814 604 q 775 861 806 753 q 766 891 771 876 q 758 921 761 906 q 758 929 758 925 q 785 957 758 957 q 788 957 786 957 q 824 950 807 956 q 856 931 840 944 q 922 845 896 892 q 954 738 949 799 z "},"X":{"ha":640,"x_min":6,"x_max":647,"o":"m 214 456 q 173 499 193 476 q 132 543 153 521 q 57 646 89 588 q 33 739 33 689 q 37 787 33 750 q 81 868 40 824 q 128 910 103 893 q 186 933 154 926 q 199 935 193 935 q 253 886 240 935 q 285 801 265 842 q 329 722 306 761 q 358 689 340 703 q 367 710 365 700 q 372 731 369 719 q 439 889 392 817 q 506 932 465 932 q 538 926 521 932 q 567 908 554 919 q 592 883 581 897 q 626 810 619 846 q 633 744 633 775 q 632 714 633 729 q 627 703 632 706 q 617 696 622 700 q 574 663 592 676 q 540 635 556 649 q 510 603 525 621 q 476 560 496 586 q 474 557 475 558 l 469 549 q 467 546 468 547 q 459 534 460 538 q 458 529 458 531 q 467 515 458 524 q 508 472 488 494 q 549 428 528 450 q 624 325 592 383 q 647 232 647 282 q 644 184 647 221 q 600 103 640 147 q 552 61 578 78 q 494 38 526 44 q 482 36 488 36 q 428 85 440 36 q 395 169 415 129 q 351 249 375 210 q 322 282 340 268 q 266 159 292 218 q 200 40 240 100 q 133 -3 174 -3 q 101 3 118 -3 q 72 21 85 10 q 47 46 58 32 q 13 119 19 83 q 6 185 6 154 q 7 215 6 200 q 12 226 7 224 q 22 233 17 229 q 119 315 72 272 q 204 411 165 358 q 207 414 206 413 l 211 422 q 214 425 213 424 q 222 437 221 433 q 222 442 222 440 q 214 456 222 447 z "},"Y":{"ha":585,"x_min":-7,"x_max":593,"o":"m 551 918 q 586 845 579 881 q 593 779 593 810 q 592 749 593 764 q 587 738 592 740 q 576 731 582 735 q 480 649 526 692 q 394 553 433 606 q 392 550 393 551 l 388 542 q 385 539 386 540 q 377 527 378 531 q 376 522 376 524 q 385 508 376 517 q 399 488 396 500 q 403 460 401 475 q 406 418 406 439 l 408 389 q 411 347 410 368 q 423 258 417 303 q 436 167 429 213 q 438 140 438 153 q 412 56 438 94 q 328 10 386 18 q 313 8 321 8 q 299 6 306 8 q 275 3 286 3 q 253 6 267 3 q 225 17 240 8 q 197 40 210 26 q 178 67 185 53 q 151 160 153 113 q 150 203 150 181 q 156 318 150 256 q 183 453 163 381 q 185 465 185 460 q 174 490 185 479 q 133 533 153 511 q 92 578 113 556 q 17 681 49 622 q -7 774 -7 724 q -3 822 -7 785 q 40 903 0 858 q 88 944 63 928 q 146 968 114 961 q 158 969 153 969 q 213 921 200 969 q 245 836 225 876 q 289 757 265 796 q 318 724 300 738 q 327 744 325 735 q 332 765 329 754 q 399 924 351 851 q 465 967 425 967 q 497 961 481 967 q 527 943 514 954 q 551 918 540 932 z "},"Z":{"ha":539,"x_min":10,"x_max":529,"o":"m 525 315 q 529 285 529 300 q 528 269 529 281 q 522 239 528 258 q 485 163 511 196 q 383 65 439 104 q 256 14 326 26 q 202 6 224 8 q 169 3 181 3 q 129 7 149 3 q 72 33 96 14 q 36 89 49 53 q 17 158 18 135 q 17 182 17 181 q 40 269 17 226 q 48 283 43 276 q 60 294 53 290 q 112 335 90 310 q 154 386 133 360 q 194 440 175 413 q 233 496 214 468 q 253 530 244 513 q 264 568 261 547 q 265 583 265 576 q 219 636 265 629 q 200 638 210 638 q 160 631 181 638 q 115 608 138 619 q 74 581 93 597 q 60 572 65 572 q 57 573 60 572 q 49 585 54 574 q 28 638 38 611 q 14 688 18 664 q 10 731 10 711 q 11 758 10 739 q 24 806 13 776 q 42 853 32 829 q 68 896 51 876 q 129 943 96 928 q 201 965 163 958 q 256 969 228 969 q 328 961 292 969 q 347 958 338 958 q 365 956 356 957 q 405 947 386 954 q 443 931 424 940 q 488 894 471 915 q 515 847 506 872 q 524 806 524 822 q 525 783 525 790 q 522 747 525 765 q 505 680 517 713 q 478 617 493 647 q 393 466 438 539 q 296 326 349 393 q 288 315 293 324 l 288 308 q 331 316 310 311 q 375 326 353 321 q 428 340 403 333 q 482 349 454 346 q 492 350 488 350 q 512 343 504 350 q 525 315 519 336 z "},"a":{"ha":664,"x_min":-10,"x_max":671,"o":"m 643 375 q 671 349 671 371 q 669 335 671 342 q 647 284 661 307 q 610 246 633 261 q 596 217 596 236 q 596 163 596 189 q 585 110 596 136 q 564 72 578 92 q 533 34 550 51 q 494 5 515 17 q 453 -7 474 -7 q 449 -7 450 -7 q 415 26 418 -7 q 411 89 414 58 q 404 151 408 119 q 401 169 404 158 q 390 185 401 185 q 385 183 388 185 q 323 176 353 181 q 263 169 293 172 q 251 156 251 168 q 251 120 251 138 q 254 85 251 103 q 254 79 254 82 q 251 65 254 71 q 238 54 247 60 q 213 49 226 49 q 171 58 192 49 q 133 84 150 68 q 103 119 117 100 q 83 157 90 139 q 67 185 76 175 q 40 201 58 196 q 21 216 31 204 q 5 242 11 228 q -6 272 -1 257 q -10 296 -10 286 q -2 324 -10 315 q 25 340 6 333 q 38 342 32 342 q 46 341 43 342 q 50 340 49 340 q 65 350 60 340 q 71 369 71 358 q 74 392 71 381 q 101 492 85 443 q 136 589 118 540 q 181 701 158 646 q 225 811 203 756 q 234 831 229 822 q 244 851 239 840 q 281 879 260 879 q 307 872 290 879 q 319 865 314 869 q 331 858 325 861 q 366 883 347 872 q 407 893 385 893 q 442 884 428 893 q 467 860 457 875 q 483 829 476 846 q 494 796 489 813 q 541 596 522 696 q 578 394 560 496 q 596 376 579 376 q 613 378 604 378 q 624 377 617 378 q 643 375 632 376 m 340 369 q 358 372 356 371 q 360 378 360 374 q 358 389 360 382 q 338 608 350 501 q 334 627 336 618 q 325 647 332 636 q 296 506 310 575 q 271 365 282 438 q 308 367 290 367 q 340 369 325 368 z "},"b":{"ha":574,"x_min":10,"x_max":569,"o":"m 443 494 q 510 453 482 479 q 553 396 538 428 q 569 343 568 364 q 569 319 569 322 q 558 249 569 285 q 507 153 540 196 q 431 76 474 111 q 185 -18 324 -10 q 171 -18 178 -18 q 69 39 106 -18 q 43 101 46 76 q 40 135 40 125 q 51 199 40 165 q 64 219 56 210 q 74 234 72 233 q 76 235 76 235 q 93 224 81 235 q 144 204 115 204 q 160 206 151 204 q 235 228 200 211 q 301 268 269 244 q 338 335 331 292 q 339 344 339 340 q 315 379 339 367 q 275 389 296 389 q 256 388 271 389 q 218 381 242 386 q 211 376 211 379 q 212 373 211 375 q 214 365 213 371 q 222 336 218 350 q 229 308 226 322 q 232 286 232 296 q 225 263 232 274 q 190 247 218 251 q 167 246 178 246 q 101 265 133 246 q 58 332 69 283 q 47 421 47 378 q 58 505 47 453 q 117 624 68 557 q 164 656 133 647 q 172 657 168 657 q 188 639 186 657 l 188 631 l 186 614 l 186 606 q 185 574 185 590 q 186 542 185 563 q 190 494 188 522 q 196 493 193 493 q 202 496 199 493 q 208 501 206 499 q 268 564 244 531 q 289 600 282 582 q 296 636 296 621 q 286 664 296 650 q 238 682 276 678 q 203 685 219 685 q 65 639 128 685 q 38 626 46 626 q 32 628 36 626 q 18 656 28 629 q 10 708 10 681 q 11 736 10 715 q 27 788 13 757 q 67 842 42 818 q 125 879 92 867 q 258 904 192 904 q 305 903 265 904 q 417 874 344 901 q 468 836 449 861 q 499 778 488 811 q 508 714 508 744 q 499 653 508 690 q 457 567 489 615 q 433 538 446 551 q 406 510 421 525 q 426 501 417 506 q 443 494 435 497 z "},"c":{"ha":547,"x_min":7,"x_max":533,"o":"m 528 335 q 533 265 533 299 q 526 190 533 235 q 475 90 519 144 q 332 3 421 22 q 299 -1 315 -1 q 218 21 257 -1 q 94 130 139 64 q 28 281 49 196 q 7 443 7 363 q 35 606 7 524 q 213 831 83 753 q 264 855 240 849 q 306 861 288 861 q 336 858 321 861 q 343 857 339 857 q 361 865 351 857 q 391 881 374 876 q 428 886 408 886 q 497 864 471 886 q 518 817 518 846 q 517 801 518 810 q 504 725 510 763 q 496 647 499 688 q 488 582 492 615 q 481 515 485 549 q 476 492 479 496 q 460 489 472 489 q 451 489 457 489 q 431 491 440 490 q 411 494 421 492 q 383 511 396 501 q 364 536 371 521 q 324 654 335 597 l 324 657 l 322 661 q 317 671 322 667 q 297 660 306 667 q 281 644 289 653 q 242 590 257 622 q 223 531 226 557 q 219 489 219 506 q 224 442 219 469 q 246 385 229 414 q 310 330 269 346 q 393 314 350 314 q 449 324 422 314 q 500 360 476 335 q 510 365 506 365 q 519 357 515 365 q 524 347 522 351 q 528 335 526 342 z "},"d":{"ha":565,"x_min":10,"x_max":557,"o":"m 540 656 q 557 506 557 579 q 547 387 557 464 q 472 204 536 310 q 325 44 417 108 q 268 13 297 25 q 206 -6 239 0 q 178 -8 192 -8 q 116 3 150 -8 q 53 46 82 15 q 17 108 25 76 q 10 160 10 140 q 19 222 10 189 q 60 294 31 260 q 75 304 67 304 q 86 300 81 304 q 102 290 94 294 q 124 282 110 285 q 108 319 115 301 q 94 353 101 336 q 71 419 81 386 q 58 489 61 453 q 57 515 57 501 q 60 540 57 528 q 138 636 69 611 q 172 645 158 643 q 193 647 186 647 q 224 643 208 647 q 261 618 247 636 q 274 597 272 606 q 275 586 275 589 q 268 564 275 576 q 218 438 233 503 q 201 303 203 374 q 188 261 201 282 q 203 258 196 258 q 214 260 207 258 q 232 264 221 261 q 379 388 332 293 q 395 435 392 411 q 399 476 399 460 q 395 519 399 493 q 377 578 392 544 q 335 638 363 613 q 265 681 296 674 q 215 689 233 689 q 157 679 188 689 q 115 664 135 672 q 81 636 94 656 q 72 631 76 631 q 67 632 71 631 q 58 638 64 633 q 26 701 29 663 q 26 713 26 707 q 39 768 26 742 q 75 818 51 794 q 247 893 151 893 q 333 879 289 893 q 540 656 503 826 z "},"e":{"ha":508,"x_min":19,"x_max":499,"o":"m 499 231 q 499 218 499 224 q 488 164 499 190 q 453 114 476 138 q 399 74 431 92 q 333 42 368 56 q 263 19 299 28 q 197 8 228 11 q 176 7 186 7 q 108 19 142 7 q 47 75 74 32 q 25 146 25 110 q 26 167 25 147 q 44 224 26 186 q 69 250 53 243 q 107 260 86 257 q 89 340 92 297 q 76 356 89 351 q 34 387 46 365 q 19 439 22 408 q 19 453 19 446 q 24 507 19 479 q 35 537 26 524 q 60 557 43 550 q 75 576 75 564 q 75 579 75 578 q 75 585 75 582 q 75 590 75 588 q 78 608 76 600 q 81 619 81 615 q 79 628 81 624 q 68 638 76 635 q 53 649 60 642 q 32 678 39 661 q 22 714 25 694 q 19 764 19 739 q 26 814 19 789 q 51 860 33 846 q 100 878 68 875 q 113 878 106 878 q 151 875 131 878 q 240 864 196 868 q 329 860 285 860 q 383 861 357 860 q 436 865 408 863 q 446 867 442 867 q 483 851 471 867 q 496 819 496 836 q 492 796 496 808 q 454 732 481 761 q 393 682 428 703 q 321 648 358 661 q 249 632 283 635 q 236 629 244 632 q 231 625 235 629 q 251 605 242 615 q 263 579 260 594 q 270 571 264 571 q 282 572 276 571 q 310 575 296 574 l 365 579 q 393 582 379 581 q 408 584 400 583 q 424 585 415 585 q 463 549 458 585 q 464 536 464 542 q 460 512 464 525 q 447 483 456 499 q 415 441 435 458 q 370 410 394 424 q 319 388 346 397 q 268 371 293 378 q 244 360 247 364 q 242 344 242 357 q 242 332 242 339 q 244 304 243 314 q 244 292 244 294 q 239 258 244 275 q 256 257 247 257 q 281 260 267 257 q 311 265 294 263 q 318 267 315 267 l 331 268 q 338 269 335 269 l 388 276 q 394 278 392 278 l 407 279 q 414 281 411 281 q 435 283 424 283 q 451 282 443 283 q 499 231 494 274 z "},"f":{"ha":614,"x_min":6,"x_max":626,"o":"m 582 835 q 588 835 585 835 q 626 792 626 835 q 597 717 626 753 q 511 644 560 671 q 405 596 460 614 q 292 567 350 578 q 281 565 286 565 q 269 563 276 564 q 265 560 268 563 q 271 549 268 554 q 275 538 274 544 q 307 513 281 513 q 313 513 310 513 q 342 514 328 514 q 355 513 349 514 q 365 513 361 513 q 399 515 382 513 q 415 517 407 517 q 444 511 431 517 q 469 492 463 504 q 476 467 476 481 q 475 457 476 463 q 450 413 468 431 q 342 342 404 360 q 328 335 329 336 q 328 332 328 333 q 331 317 328 328 q 351 263 339 289 q 379 211 364 236 q 392 191 386 200 q 401 171 397 182 q 410 139 410 154 q 409 126 410 136 q 399 97 408 117 q 368 61 389 79 q 321 30 347 43 q 273 12 294 17 q 238 7 251 7 q 214 10 225 7 q 149 65 167 19 q 139 129 139 93 q 139 163 139 146 q 140 205 139 179 q 143 265 140 231 q 141 281 143 279 q 124 285 139 283 q 60 305 82 288 q 29 363 39 322 q 22 413 22 389 q 29 457 22 436 q 103 513 43 513 q 126 512 114 513 q 151 510 139 511 q 169 513 163 510 q 176 528 175 517 q 179 541 176 535 q 182 551 182 547 q 181 558 182 554 q 165 561 174 560 l 138 565 q 122 568 131 567 q 10 685 29 592 q 6 726 6 707 q 25 813 6 772 q 126 878 57 876 q 146 879 136 879 q 169 878 156 879 q 201 869 183 876 q 308 847 254 854 q 417 838 361 840 q 485 834 458 835 q 526 833 513 833 q 582 835 554 833 z "},"g":{"ha":581,"x_min":7,"x_max":578,"o":"m 576 476 q 563 419 575 446 q 532 369 551 392 q 524 350 524 361 q 525 342 524 346 q 533 264 533 303 q 532 226 533 254 q 511 151 531 197 q 476 92 497 119 q 426 44 454 64 q 365 12 397 24 q 296 0 332 0 q 217 22 256 0 q 89 137 135 67 q 24 294 43 207 q 7 435 7 365 q 8 481 7 440 q 32 596 8 521 q 100 732 56 672 q 214 832 144 792 q 265 855 242 849 q 306 861 288 861 q 335 858 319 861 q 340 858 338 858 q 363 867 351 858 q 426 886 386 886 q 466 880 446 886 q 499 863 486 874 q 517 819 517 844 q 517 810 517 814 q 510 763 514 786 l 499 671 q 492 624 496 647 q 468 594 490 603 q 435 586 449 588 q 415 585 422 585 q 389 588 401 585 q 339 617 353 594 q 319 671 325 639 q 306 666 311 669 q 296 658 301 663 q 247 601 264 633 q 224 528 231 568 q 221 489 221 508 q 228 431 221 460 q 270 355 239 382 q 349 318 301 328 q 388 314 368 314 q 419 317 399 314 q 467 336 439 319 q 430 335 447 335 q 393 339 413 335 q 351 360 369 343 q 322 401 332 378 q 310 438 311 424 q 310 456 310 453 q 317 493 310 476 q 363 525 332 525 q 365 525 364 525 q 411 524 389 524 q 455 525 428 524 q 522 529 482 526 q 544 531 535 531 q 556 530 549 531 q 569 524 564 529 q 576 510 575 518 q 578 494 578 501 q 576 476 578 486 z "},"h":{"ha":728,"x_min":-3,"x_max":728,"o":"m 711 506 q 725 479 722 490 q 728 463 728 468 q 724 440 728 451 q 703 415 717 422 q 671 407 689 408 q 645 401 647 404 q 643 390 643 397 q 644 371 643 383 l 650 322 l 658 222 l 664 174 q 669 117 667 146 q 678 60 672 88 q 681 38 681 47 q 672 7 681 21 q 631 -17 663 -7 q 564 -28 599 -28 q 519 -24 542 -28 q 469 -1 490 -18 q 435 42 449 15 q 416 91 422 65 q 407 143 410 117 q 403 236 403 190 q 401 328 403 282 l 401 344 q 399 359 400 357 q 393 361 397 361 q 383 360 390 361 q 349 353 367 357 q 314 347 332 350 q 292 324 293 346 q 287 248 289 286 q 285 172 285 210 q 285 167 285 169 l 283 158 q 283 153 283 156 l 283 113 q 283 107 283 110 l 282 99 q 282 93 282 96 q 244 47 279 47 q 219 51 233 47 q 164 92 185 63 q 125 174 133 128 q 115 219 119 197 q 106 265 110 242 q 82 286 101 286 q 78 286 79 286 q 43 299 57 286 q 18 332 29 313 q 4 365 8 347 q -1 401 0 383 q -3 418 -3 410 q 51 503 -3 475 q 66 517 63 510 q 69 538 69 525 q 68 593 68 565 q 71 673 68 626 q 86 781 74 719 q 99 822 89 804 q 162 895 128 882 q 229 908 196 908 q 267 906 247 908 q 274 903 271 904 l 290 899 q 297 896 294 897 q 346 832 339 879 q 347 814 347 822 q 347 801 347 810 q 343 778 346 792 q 336 724 340 751 l 324 615 q 317 561 321 589 q 353 562 340 561 q 374 563 367 563 q 400 561 388 563 q 411 566 408 561 q 415 578 414 571 q 418 615 417 597 q 422 653 419 633 q 435 749 428 701 q 451 844 443 796 q 472 892 457 876 q 519 911 488 907 q 544 914 532 914 q 574 910 557 914 q 615 896 592 907 q 628 878 628 892 q 626 863 626 871 q 626 847 626 856 q 624 735 624 790 q 624 678 624 721 q 628 565 625 636 q 632 548 628 554 q 649 540 636 542 q 663 536 656 539 q 676 531 669 533 q 711 506 699 524 z "},"i":{"ha":322,"x_min":17,"x_max":314,"o":"m 311 788 q 314 753 314 769 q 313 726 314 743 q 308 682 311 708 q 299 619 304 651 l 281 497 q 271 435 276 467 q 256 318 263 376 l 244 242 q 229 125 238 183 q 223 90 226 107 q 214 56 219 72 q 207 40 211 47 q 196 26 203 33 q 167 15 182 15 q 136 26 151 15 q 109 58 121 42 q 88 94 97 75 q 60 178 69 138 q 29 356 40 267 q 17 536 18 444 q 18 627 17 582 q 26 718 19 672 q 35 757 29 738 q 49 796 42 776 q 108 856 68 839 q 189 872 149 872 q 244 864 217 872 q 311 788 306 849 z "},"j":{"ha":553,"x_min":6,"x_max":549,"o":"m 467 892 q 533 850 517 882 q 549 796 549 818 q 539 753 549 775 q 510 713 528 729 q 469 688 493 697 q 438 676 454 681 q 404 664 422 671 q 457 612 443 644 q 481 544 471 579 q 506 424 501 474 q 510 349 510 375 q 503 256 510 303 q 453 104 492 175 q 385 25 425 56 q 289 -14 346 -6 q 239 -17 264 -17 q 188 -14 219 -17 q 117 8 157 -11 q 38 72 64 33 q 8 138 11 111 q 6 175 6 165 q 18 243 6 207 q 57 310 31 279 q 75 326 65 321 q 86 334 82 333 q 90 335 90 335 q 106 325 97 335 q 128 309 115 314 q 157 304 142 304 q 178 304 168 304 q 203 305 188 304 q 238 313 218 306 q 318 403 299 338 q 331 500 331 453 q 329 542 331 510 q 304 633 328 575 q 270 617 285 626 q 240 599 256 607 q 216 585 228 592 q 192 575 204 579 q 150 568 169 568 q 103 580 131 568 q 57 633 76 592 q 41 683 43 663 q 39 717 39 704 q 42 753 39 735 q 67 828 49 793 q 100 866 81 851 q 150 883 119 881 q 224 893 188 888 q 299 901 261 899 q 340 903 319 903 q 393 901 361 903 q 467 892 425 899 z "},"k":{"ha":625,"x_min":14,"x_max":618,"o":"m 617 261 q 618 232 618 247 q 539 56 618 131 q 503 40 522 40 q 478 46 490 40 q 451 60 464 53 q 425 78 438 67 q 316 187 363 126 q 242 324 269 247 q 238 331 239 329 q 227 319 228 326 q 225 304 226 311 q 216 181 218 242 q 214 60 214 121 l 214 35 q 207 15 213 19 q 186 8 201 10 q 121 42 146 8 q 106 65 113 53 q 96 89 99 76 q 51 245 71 168 q 21 404 31 322 q 14 526 14 465 q 31 717 14 622 q 43 764 35 740 q 67 810 51 788 q 110 851 86 838 q 153 869 133 865 q 188 872 174 872 q 217 869 199 872 q 256 858 235 867 q 271 843 264 856 q 284 807 282 824 q 286 776 286 790 q 286 761 286 768 q 278 685 285 722 q 267 608 272 647 q 264 593 265 601 l 261 567 q 258 551 260 560 q 267 558 264 551 q 322 657 292 610 q 379 754 353 704 q 429 829 400 794 q 465 865 444 850 q 501 876 483 876 q 525 872 508 876 q 557 843 542 868 q 593 751 585 799 q 603 653 601 703 q 589 632 603 639 q 539 602 564 617 q 488 572 514 588 q 415 522 447 551 q 350 463 382 493 q 343 450 343 456 q 347 442 343 446 l 356 432 q 465 339 408 379 q 597 282 521 299 q 617 261 615 278 z "},"l":{"ha":497,"x_min":13,"x_max":508,"o":"m 443 304 q 494 283 479 301 q 508 243 508 264 q 504 219 508 232 q 487 185 497 200 q 461 154 476 169 q 336 68 403 103 q 257 35 297 49 q 175 11 217 21 q 139 7 156 7 q 64 32 100 7 q 17 119 28 57 q 13 169 13 144 q 18 225 13 197 q 29 250 21 243 q 56 260 38 257 q 72 265 71 263 q 74 268 74 267 q 71 283 74 274 q 42 431 46 368 q 38 531 38 493 q 42 628 38 579 q 76 781 46 710 q 116 839 92 815 q 178 872 140 863 q 222 878 200 878 q 242 877 226 878 q 283 871 257 876 q 332 817 332 861 q 328 790 332 806 q 296 654 310 722 q 268 517 282 586 q 247 403 257 460 q 228 289 238 347 q 226 282 226 286 q 229 272 226 278 q 295 282 263 275 q 360 294 328 289 q 401 301 381 299 q 443 304 422 304 z "},"m":{"ha":836,"x_min":17,"x_max":819,"o":"m 779 682 q 811 481 803 569 q 819 324 819 392 q 817 233 819 279 q 763 65 810 142 q 625 -21 715 -8 q 615 -22 621 -22 q 604 -21 610 -22 q 567 -8 576 -18 q 558 19 558 3 q 560 35 558 26 q 589 467 589 250 q 589 504 589 485 l 589 532 q 578 524 581 529 q 575 515 576 519 q 508 357 540 436 q 456 193 476 278 l 454 190 l 454 189 q 433 157 446 161 q 415 153 421 153 q 383 165 400 153 q 365 184 372 174 q 353 207 358 194 q 326 283 338 242 q 291 381 311 333 q 249 475 271 428 l 244 482 l 238 481 l 238 340 q 243 237 239 288 q 253 135 247 186 q 256 115 256 125 q 257 96 256 106 q 257 89 257 92 q 231 54 257 64 q 158 40 193 40 q 57 72 106 40 q 46 83 50 76 q 39 99 42 90 q 28 143 32 121 q 21 189 24 165 q 17 288 17 239 q 19 361 17 313 q 29 485 21 410 q 42 594 35 540 q 64 703 50 649 q 76 746 69 725 q 93 788 82 767 q 98 800 97 796 q 99 806 99 804 q 93 821 99 813 q 92 824 93 822 l 90 831 q 89 833 90 832 q 85 850 85 843 q 87 858 85 853 q 103 871 89 863 q 200 899 149 899 q 232 896 215 899 q 270 880 254 893 q 297 847 286 867 q 344 760 322 804 q 386 669 367 715 q 394 650 390 660 l 413 613 q 421 593 417 603 q 428 601 428 596 q 431 610 428 606 q 465 715 444 664 q 510 815 485 765 q 540 858 522 839 q 581 892 558 876 q 632 907 606 907 q 660 903 646 907 q 764 819 732 883 q 773 797 772 804 q 774 788 774 789 q 758 760 774 774 q 753 749 753 756 q 757 736 753 743 q 772 710 767 724 q 779 682 776 697 z "},"n":{"ha":676,"x_min":18,"x_max":665,"o":"m 654 774 q 665 682 665 729 q 664 653 665 668 q 648 466 657 558 q 621 282 639 374 q 594 181 610 231 q 557 83 578 132 q 526 29 543 51 q 467 -4 499 -4 q 419 13 444 -4 q 394 35 406 24 q 372 61 382 46 q 342 111 354 85 q 321 165 331 138 q 278 317 297 242 q 254 475 258 393 q 246 465 246 471 q 246 453 246 458 q 231 282 235 367 q 224 111 226 197 q 223 82 224 96 q 222 54 222 68 q 222 50 222 51 q 213 24 222 32 q 189 15 203 15 q 181 15 185 15 q 125 39 151 19 q 90 75 106 54 q 64 119 74 96 q 40 202 49 160 q 28 288 32 244 q 18 474 18 381 q 28 660 18 567 q 49 763 32 713 q 69 806 57 786 q 99 843 81 826 q 168 872 131 872 q 172 872 171 872 q 198 871 185 871 q 224 868 211 871 q 296 832 267 861 q 317 781 317 811 q 328 644 319 711 q 351 508 338 576 q 369 417 360 463 q 393 326 378 371 q 399 308 396 318 q 411 292 401 299 q 419 335 418 314 q 422 376 421 356 q 428 503 428 440 q 427 560 428 515 q 414 681 426 604 q 400 747 408 714 q 379 811 392 779 q 376 825 376 818 q 378 835 376 829 q 389 847 381 840 q 452 883 424 879 q 494 888 481 888 q 555 877 522 888 q 617 839 588 867 q 654 774 646 811 z "},"o":{"ha":507,"x_min":8,"x_max":494,"o":"m 493 385 q 494 356 494 369 q 485 267 494 315 q 456 164 475 219 q 437 118 449 140 q 410 75 425 96 q 342 19 378 32 q 272 7 306 7 q 239 10 256 7 q 126 62 168 19 q 57 163 85 104 q 18 285 28 228 q 8 392 8 343 q 10 436 8 414 q 56 648 19 551 q 158 836 92 744 q 200 868 175 858 q 253 878 225 878 q 350 839 311 878 q 404 747 389 800 q 409 728 408 735 q 410 718 410 721 q 403 697 410 708 q 400 690 400 693 q 411 682 400 683 q 438 671 429 681 q 454 647 447 661 q 476 582 469 615 q 486 515 482 549 q 492 457 490 483 q 493 411 493 431 q 493 385 493 397 m 335 268 q 343 350 343 310 q 340 403 343 367 q 317 494 338 440 q 313 503 315 499 q 304 510 311 507 q 267 385 282 450 q 259 335 260 353 q 258 311 258 317 q 264 258 258 285 q 274 231 267 244 q 299 217 282 217 q 322 232 314 217 q 330 249 326 240 q 335 268 333 258 z "},"p":{"ha":588,"x_min":-6,"x_max":589,"o":"m 371 317 q 359 310 360 313 q 358 306 358 307 q 361 296 358 301 q 379 248 371 269 q 397 207 388 226 q 417 167 406 188 q 442 124 428 147 q 447 108 447 115 q 435 86 447 96 q 358 26 403 56 q 265 -3 313 -3 q 195 24 222 -3 q 153 88 168 50 q 132 169 138 126 q 126 244 126 211 q 126 276 126 260 q 139 438 126 354 q 188 611 151 521 q 189 617 189 614 q 186 622 189 619 q 160 612 172 619 q 136 597 147 604 l 108 579 q 75 568 89 568 q 36 590 54 568 q 0 654 6 626 q -6 700 -6 682 q 0 747 -6 724 q 54 839 13 800 q 172 885 96 878 q 240 888 207 888 q 308 885 267 888 q 407 867 349 882 q 533 792 486 844 q 588 669 581 740 q 589 643 589 656 q 544 476 589 553 q 406 335 500 400 q 389 324 397 329 q 371 317 381 319 m 335 378 q 388 437 367 407 q 418 503 408 467 q 424 533 424 522 q 425 547 425 544 q 421 578 425 563 q 324 647 401 643 q 313 647 317 647 q 299 645 303 647 q 294 625 294 643 q 304 500 294 567 q 335 378 314 433 z "},"q":{"ha":507,"x_min":8,"x_max":494,"o":"m 483 549 q 492 454 490 492 q 494 397 494 417 q 490 321 494 360 q 475 241 485 283 q 449 159 465 199 q 406 86 432 119 q 344 33 381 53 q 356 26 350 26 q 365 25 361 26 q 425 -31 411 10 q 428 -46 428 -39 q 401 -79 428 -68 q 386 -83 397 -81 q 291 -116 335 -92 q 207 -169 247 -140 q 181 -181 192 -181 q 154 -167 165 -181 q 135 -136 143 -154 q 124 -99 128 -118 q 121 -68 121 -79 q 121 -60 121 -64 q 175 19 121 -3 l 199 28 q 196 31 196 31 q 194 33 196 32 q 100 103 135 57 q 44 207 65 149 q 9 353 10 303 q 8 408 8 403 q 35 592 8 499 q 82 726 54 667 q 157 849 110 786 q 199 882 174 872 q 253 892 225 892 q 352 852 314 892 q 406 757 390 813 q 409 740 408 746 q 410 733 410 733 q 403 713 410 722 q 400 704 400 708 q 411 696 400 697 q 443 677 431 694 q 464 636 456 660 q 477 588 472 613 q 483 549 482 564 m 333 278 q 344 326 343 308 q 344 350 344 344 q 342 399 344 374 q 332 464 339 432 q 306 529 325 496 q 272 424 285 476 q 261 366 264 390 q 258 326 258 342 q 261 289 258 308 q 271 250 264 267 q 282 237 275 242 q 296 232 289 232 q 299 232 297 232 q 324 250 317 232 q 326 257 325 254 l 331 271 q 333 278 332 275 z "},"r":{"ha":606,"x_min":4,"x_max":597,"o":"m 593 307 q 597 268 597 288 q 583 202 597 238 q 519 139 568 167 q 457 121 489 121 q 399 135 429 121 q 354 164 374 147 q 318 200 335 181 q 307 214 311 207 q 292 226 303 221 q 307 154 297 190 q 329 82 317 118 l 333 72 q 342 43 342 54 q 338 31 342 38 q 307 13 335 24 q 259 -3 282 3 q 217 -10 236 -10 q 200 -8 208 -10 q 106 39 140 -1 q 71 94 83 65 q 57 154 58 122 q 56 182 56 168 q 61 251 56 214 q 78 333 67 289 q 108 447 92 392 q 140 560 125 503 q 149 586 143 574 q 160 614 154 599 q 142 606 149 611 q 128 594 135 600 q 81 574 97 574 q 68 576 78 574 q 33 610 58 578 q 10 658 17 632 q 4 708 4 685 q 6 734 4 715 q 19 782 7 753 q 49 832 31 811 q 151 886 90 878 q 249 894 200 894 q 301 892 263 894 q 401 871 340 890 q 568 690 547 826 q 574 639 572 658 q 576 610 576 619 q 571 565 576 588 q 535 480 561 518 q 471 410 510 442 q 449 393 460 401 q 424 375 438 385 q 452 362 439 367 q 481 354 465 357 q 515 349 497 351 q 550 343 532 346 q 593 307 588 336 m 382 478 q 414 561 411 514 q 385 627 414 601 q 314 653 357 653 q 310 653 313 653 q 290 639 290 653 q 290 628 290 633 q 284 572 290 601 q 276 511 278 543 q 273 467 274 485 q 272 442 272 450 q 274 406 272 424 q 279 406 276 406 q 290 408 285 406 q 303 414 296 411 q 347 442 326 426 q 382 478 367 458 z "},"s":{"ha":599,"x_min":14,"x_max":585,"o":"m 485 492 q 585 319 585 435 q 585 310 585 314 q 506 128 582 201 q 397 47 456 79 q 268 4 339 14 q 236 1 251 1 q 160 15 200 1 q 81 65 119 28 q 26 147 38 106 q 15 221 15 188 q 18 264 15 242 q 78 346 25 321 q 85 347 82 347 q 96 342 92 347 q 143 304 117 317 q 201 288 169 292 q 269 280 246 281 q 294 279 292 279 q 379 294 336 279 q 410 308 396 299 q 422 329 422 319 q 410 350 422 340 q 388 362 399 358 q 364 367 376 365 q 354 368 358 368 l 347 368 q 336 369 342 368 l 278 375 q 268 376 272 376 l 261 376 q 250 378 256 376 q 176 390 213 382 q 107 418 140 399 q 34 492 54 446 q 14 596 14 538 q 15 611 14 603 q 17 628 17 619 q 49 734 21 689 q 126 813 78 779 q 233 864 176 849 q 354 882 290 879 q 413 876 382 879 q 475 861 444 872 q 520 835 500 851 q 557 800 540 819 q 576 763 571 783 q 581 724 581 743 q 531 582 581 642 q 519 571 526 575 q 497 557 504 557 q 492 558 496 557 q 481 579 489 558 q 358 660 446 657 q 292 651 325 660 q 232 624 260 643 q 199 582 206 608 q 197 575 197 578 q 208 557 197 564 q 247 546 228 546 q 313 540 279 542 q 378 531 346 538 q 433 515 406 524 q 485 492 460 507 z "},"t":{"ha":568,"x_min":-4,"x_max":578,"o":"m 560 785 q 578 725 578 756 q 571 685 578 706 q 570 683 571 683 q 569 682 569 683 l 569 676 q 569 675 569 675 q 568 674 568 675 q 556 649 561 658 q 546 637 551 640 q 532 633 540 633 q 525 634 531 633 q 503 638 519 635 q 418 644 461 644 q 332 638 375 644 q 331 632 331 635 q 333 624 331 628 q 339 614 336 619 q 357 572 353 594 q 361 526 361 550 q 363 471 363 499 q 362 448 363 457 q 361 433 361 439 q 367 360 361 397 q 381 267 371 313 q 408 178 390 222 q 409 176 408 176 q 410 174 410 175 l 413 167 q 413 165 413 165 q 414 163 414 164 q 424 131 422 142 q 426 115 426 121 q 424 98 426 107 q 411 78 421 89 q 383 53 401 67 q 332 21 360 33 q 274 1 304 8 q 253 -1 263 -1 q 228 2 242 -1 q 199 16 214 6 q 174 40 185 26 q 157 69 164 54 q 141 126 146 97 q 133 186 136 156 q 132 224 132 206 q 176 483 132 358 q 199 548 188 515 q 226 615 211 581 q 176 597 199 607 q 131 578 153 588 q 128 576 129 578 l 94 561 q 90 560 93 561 q 68 556 79 556 q 26 576 46 556 q 8 603 15 589 q -1 635 1 618 q -4 682 -4 658 q -3 706 -4 688 q 6 753 -3 724 q 41 817 17 792 q 101 857 65 842 q 235 885 168 883 q 274 886 254 886 q 460 857 371 886 q 515 829 490 846 q 560 785 540 813 z "},"u":{"ha":593,"x_min":15,"x_max":579,"o":"m 565 678 q 578 544 576 593 q 579 482 579 496 q 569 339 579 411 q 528 189 558 258 q 439 61 497 119 q 351 8 389 13 q 303 4 314 4 q 200 32 251 4 q 85 135 126 74 q 31 279 44 196 q 19 369 24 324 q 15 463 15 415 q 25 621 18 546 q 47 771 32 696 l 58 815 q 89 862 68 846 q 139 881 110 878 q 164 882 151 882 q 248 861 207 882 q 318 789 289 840 q 329 749 329 768 q 325 726 329 738 q 294 591 297 646 q 290 510 290 536 q 297 399 290 454 q 315 318 304 354 q 339 282 322 297 q 361 271 351 271 q 367 272 363 271 q 383 286 372 272 q 417 368 410 321 q 426 517 426 443 q 422 626 426 553 q 381 806 417 699 q 378 815 379 811 l 374 833 q 371 843 372 839 q 371 850 371 847 q 394 871 371 871 q 403 871 399 871 q 434 867 418 871 q 465 849 450 863 q 532 774 506 815 q 565 678 558 732 z "},"v":{"ha":508,"x_min":7,"x_max":503,"o":"m 501 715 q 503 689 503 701 q 497 624 503 660 q 486 547 492 589 q 436 334 469 438 q 364 128 403 231 q 351 94 360 115 q 329 52 342 72 q 302 17 317 32 q 271 3 288 3 q 229 13 249 3 q 194 38 210 22 q 165 74 178 54 q 144 111 153 93 q 40 411 72 251 q 23 494 32 453 q 10 579 14 536 q 7 635 7 607 q 8 667 7 644 q 15 726 8 690 q 31 781 19 754 q 61 829 43 808 q 104 863 79 850 q 160 876 129 876 q 185 874 171 876 q 213 866 200 872 q 233 851 225 860 q 242 826 242 842 q 240 799 240 813 q 241 785 240 792 q 242 771 242 778 q 240 744 242 757 q 239 689 239 717 q 244 585 239 643 q 267 456 250 526 q 279 394 274 424 q 293 333 285 364 q 299 340 299 336 q 301 347 300 343 q 331 538 322 442 q 340 729 340 633 l 339 803 l 339 839 q 376 882 339 882 q 383 882 379 882 q 438 865 415 881 q 474 824 460 849 q 494 772 488 800 q 501 715 500 743 z "},"w":{"ha":979,"x_min":15,"x_max":965,"o":"m 953 672 q 963 547 961 594 q 965 481 965 499 q 958 365 965 422 q 920 202 950 274 q 828 64 890 131 q 766 18 799 32 q 697 4 733 4 q 597 28 642 4 q 513 88 551 51 q 499 100 506 93 q 486 114 493 107 q 462 88 474 100 q 439 64 450 75 q 303 4 381 4 q 196 35 247 4 q 80 144 119 79 q 26 296 40 210 q 15 462 15 379 q 25 628 15 544 q 33 706 28 667 q 50 786 39 746 l 50 790 q 51 792 51 792 l 56 808 q 58 817 58 814 q 89 863 68 847 q 139 881 110 878 q 163 882 151 882 q 310 801 254 882 q 328 750 328 776 q 321 717 328 733 q 290 576 292 626 q 289 518 289 526 q 306 354 289 436 q 312 331 308 344 q 322 303 315 317 q 338 281 329 290 q 360 272 347 272 q 386 292 374 272 q 406 354 406 321 q 406 367 406 361 q 401 469 401 418 q 403 545 401 494 q 417 674 406 596 q 418 678 417 676 l 418 685 q 419 689 419 686 l 424 722 q 426 730 425 726 q 426 738 426 733 q 440 774 429 758 q 468 798 451 789 q 504 811 485 807 q 542 815 524 815 q 610 803 578 815 q 665 767 643 790 q 686 715 686 744 q 685 703 686 710 q 669 569 669 615 q 668 521 668 524 q 686 351 668 436 q 694 328 689 342 q 706 301 699 314 q 725 281 714 289 q 749 272 736 272 q 771 287 761 272 q 788 320 781 301 q 800 358 796 339 q 806 385 804 376 q 813 514 813 450 q 808 617 813 550 q 774 783 804 685 q 765 810 769 797 q 757 839 760 824 q 757 846 757 843 q 783 872 757 872 q 786 872 785 872 q 849 850 819 871 q 900 800 878 829 q 936 737 922 771 q 953 672 950 703 z "},"x":{"ha":640,"x_min":6,"x_max":647,"o":"m 457 497 q 456 486 456 492 q 467 463 456 474 q 551 382 508 425 q 624 290 594 339 q 647 206 647 251 q 644 162 647 196 q 600 88 640 128 q 494 29 554 39 q 479 28 486 28 q 428 71 440 28 q 411 115 422 89 q 385 167 400 142 q 355 216 371 193 q 322 251 339 239 q 267 138 294 193 q 200 26 240 82 q 132 -12 174 -12 q 85 0 106 -12 q 47 32 64 13 q 13 99 19 67 q 6 158 6 131 q 7 186 6 172 q 12 197 7 193 q 22 203 17 200 q 119 278 72 239 q 204 365 165 317 q 214 378 210 374 q 215 389 215 383 q 204 413 215 401 q 119 493 163 450 q 47 585 76 536 q 24 669 24 624 q 27 713 24 679 q 71 788 31 747 q 176 846 117 836 q 192 847 185 847 q 243 804 231 847 q 260 760 249 786 q 285 708 271 733 q 316 659 300 682 q 349 624 332 636 q 358 643 356 633 q 363 661 360 653 q 379 715 368 683 q 407 775 390 746 q 447 825 424 804 q 497 846 469 846 q 544 833 524 846 q 582 801 565 821 q 617 735 610 767 q 624 675 624 703 q 622 647 624 661 q 617 637 622 640 q 607 631 613 633 q 564 601 582 613 q 531 577 546 589 q 501 550 515 565 q 467 510 486 535 q 457 497 461 501 z "},"y":{"ha":585,"x_min":-7,"x_max":593,"o":"m 551 836 q 586 769 579 801 q 593 710 593 738 q 592 682 593 696 q 587 672 592 675 q 576 665 582 668 q 480 590 526 629 q 394 503 433 551 q 385 490 389 494 q 377 480 378 483 q 376 476 376 476 q 385 464 376 471 q 399 444 396 456 q 403 419 401 432 q 407 367 406 393 q 411 317 408 342 q 423 234 417 275 q 436 153 429 193 q 438 128 438 140 q 412 51 438 86 q 328 10 386 17 q 313 8 321 8 q 299 6 306 8 q 272 3 285 3 q 220 19 247 3 q 178 61 193 36 q 151 146 153 101 q 150 185 150 165 q 156 290 150 233 q 183 413 163 346 q 185 424 185 418 q 174 447 185 436 q 89 528 132 485 q 17 619 46 571 q -7 704 -7 658 q -3 748 -7 714 q 40 822 0 782 q 146 881 86 871 q 161 882 154 882 q 213 839 200 882 q 229 794 218 821 q 255 742 240 768 q 285 694 269 717 q 318 658 301 671 q 327 678 325 668 q 332 696 329 688 q 349 749 338 718 q 376 810 360 781 q 416 860 393 839 q 467 881 439 881 q 514 868 493 881 q 551 836 535 856 z "},"z":{"ha":539,"x_min":10,"x_max":529,"o":"m 525 288 q 529 260 529 274 q 528 245 529 256 q 522 217 528 235 q 485 149 511 178 q 383 60 439 96 q 256 13 326 24 q 203 5 224 7 q 171 3 182 3 q 129 7 150 3 q 36 81 60 19 q 17 144 18 122 q 17 167 17 165 q 40 246 17 207 q 48 259 43 253 q 60 268 53 265 q 112 305 90 282 q 154 351 133 328 q 194 401 175 375 q 233 451 214 426 q 253 483 244 467 q 264 518 261 499 q 265 532 265 525 q 219 579 265 572 q 200 581 210 581 q 160 574 181 581 q 115 555 138 565 q 74 529 93 544 q 59 521 64 521 q 49 532 54 521 q 28 580 38 556 q 14 626 18 604 q 10 665 10 647 q 11 690 10 672 q 24 733 13 707 q 42 776 32 756 q 68 815 51 797 q 129 859 96 846 q 201 879 163 872 q 253 882 226 882 q 328 875 290 882 q 365 871 347 871 q 405 862 386 868 q 443 847 424 856 q 488 814 471 833 q 515 772 506 794 q 524 734 524 749 q 525 714 525 719 q 522 681 525 696 q 505 619 517 649 q 478 561 493 589 q 393 425 438 490 q 296 297 349 360 q 288 286 293 294 l 288 281 q 331 288 310 283 q 375 297 353 292 q 428 309 401 304 q 482 317 454 314 q 493 318 488 318 q 512 313 504 318 q 525 288 519 307 z "},"!":{"ha":328,"x_min":24,"x_max":308,"o":"m 174 260 q 156 278 164 268 q 140 299 147 288 q 71 429 101 363 q 29 571 40 496 q 27 583 28 578 q 26 596 26 589 q 24 613 25 604 q 24 626 24 621 q 58 775 24 710 q 95 822 74 801 q 143 853 117 842 q 188 866 169 864 q 213 868 206 868 q 254 861 233 868 q 295 838 286 851 q 304 807 304 824 q 301 783 304 796 q 263 558 275 671 q 246 328 250 444 q 244 302 244 315 q 239 276 243 289 q 219 252 232 256 q 200 249 206 249 q 174 260 186 249 m 267 193 q 306 149 303 169 q 308 124 308 128 q 282 65 308 93 q 229 33 263 46 q 160 21 196 21 q 157 21 158 21 q 78 60 111 21 q 57 111 57 83 q 58 126 57 111 q 79 167 58 140 q 114 190 90 179 q 161 204 138 200 q 204 208 185 208 q 231 207 213 208 q 267 193 249 206 z "},"?":{"ha":563,"x_min":24,"x_max":539,"o":"m 489 801 q 533 737 528 765 q 539 697 539 708 q 519 628 539 664 q 483 573 504 599 q 439 524 463 547 q 401 486 419 504 q 368 447 383 468 q 340 399 350 424 q 336 381 336 389 q 342 360 336 369 q 349 336 349 347 q 340 310 349 325 q 303 293 331 294 q 296 293 300 293 q 242 315 268 293 q 213 368 217 336 q 211 386 211 376 q 217 419 211 403 q 264 501 232 468 l 301 544 q 324 588 319 563 q 324 592 324 590 q 311 604 324 603 q 296 606 303 606 q 268 601 282 606 q 217 582 240 594 q 169 551 193 569 q 142 534 149 535 q 136 533 136 533 q 103 549 124 533 q 57 593 75 568 q 28 650 39 618 q 24 676 24 664 q 27 701 24 686 q 43 735 31 715 q 81 782 58 763 q 129 817 103 801 q 208 851 167 840 q 293 865 250 863 q 363 858 329 863 q 429 839 397 854 q 489 801 461 825 m 364 194 q 401 151 399 172 q 403 126 403 131 q 376 68 403 93 q 330 38 356 47 q 276 26 304 28 q 226 36 249 28 q 185 64 204 44 q 158 124 158 90 q 159 144 158 125 q 192 188 160 163 q 256 220 232 219 q 282 221 279 221 q 364 194 324 221 z "},"#":{"ha":675,"x_min":21,"x_max":654,"o":"m 642 528 q 652 512 650 519 q 654 500 654 504 q 650 485 654 492 q 617 467 643 467 q 599 467 608 467 q 582 469 590 468 q 578 469 579 469 q 568 458 568 469 q 567 447 567 454 q 564 421 564 431 q 567 410 564 414 q 599 397 569 406 q 627 385 615 393 q 642 356 639 376 q 642 349 642 351 q 625 307 642 325 q 583 289 608 289 q 579 289 581 289 q 563 290 568 290 q 551 288 554 290 q 547 263 549 285 q 544 203 546 233 q 540 146 543 174 q 522 114 539 114 q 497 125 513 114 q 444 186 464 150 q 422 231 432 208 q 404 278 411 254 q 383 296 400 296 q 381 296 382 296 l 363 296 l 328 294 l 310 294 q 290 291 293 294 q 286 271 288 288 q 286 265 286 268 l 285 256 q 285 250 285 253 l 281 208 q 279 188 281 194 q 277 170 278 179 q 265 157 276 161 q 254 154 260 154 q 243 158 250 154 q 229 169 236 163 q 167 267 186 208 q 146 285 161 285 q 139 283 143 285 q 99 279 119 281 q 60 278 79 278 q 33 286 40 279 q 22 311 25 293 q 21 322 21 317 q 32 358 21 340 q 67 388 43 376 q 115 399 92 397 q 128 411 128 400 q 128 414 128 413 q 126 422 126 418 q 125 428 126 425 q 119 447 122 444 q 111 449 117 449 q 97 447 107 449 q 80 444 86 446 q 72 443 74 443 q 54 453 64 443 q 40 483 40 467 q 43 499 40 490 q 92 539 58 535 q 115 551 110 542 q 121 575 121 560 q 157 665 125 625 q 181 687 168 679 q 206 694 193 694 q 215 693 211 694 l 226 693 q 238 693 232 693 q 306 642 289 693 q 314 589 314 617 q 314 582 314 586 q 314 579 314 581 q 329 565 314 565 q 338 565 333 565 q 349 565 344 565 q 357 564 354 564 q 374 569 367 564 q 382 583 382 575 q 382 588 382 585 q 382 594 382 590 q 383 610 382 603 q 392 644 388 626 q 404 676 397 661 q 445 722 419 708 q 493 736 471 736 q 513 733 503 736 q 568 690 549 725 q 582 650 579 671 q 585 608 585 629 l 585 603 q 582 583 583 592 q 581 571 581 575 q 583 557 581 564 q 599 548 588 549 q 622 542 611 547 q 633 535 628 539 q 642 528 638 532 m 338 418 q 365 418 357 418 q 376 420 374 418 q 379 428 379 422 q 378 436 379 431 q 378 460 378 442 q 364 475 378 475 q 342 474 353 474 q 321 474 332 474 q 301 457 303 474 q 301 434 301 439 q 300 428 300 429 q 303 419 300 422 q 311 417 306 417 q 317 417 313 417 q 338 418 322 418 z "},"@":{"ha":813,"x_min":21,"x_max":790,"o":"m 661 768 q 758 664 725 724 q 790 533 790 604 q 790 521 790 526 q 751 392 789 453 q 683 331 724 347 q 610 314 642 314 q 575 318 592 314 q 503 374 528 331 q 460 327 482 349 q 414 288 439 306 q 343 257 381 263 q 318 254 331 254 q 267 267 293 254 q 222 315 242 279 q 199 411 199 361 q 207 474 199 442 q 249 560 221 522 q 325 622 278 599 q 399 640 363 640 q 441 635 411 640 q 515 597 471 629 q 522 590 519 594 q 554 543 538 565 q 574 489 571 521 q 585 453 576 467 q 617 432 599 432 q 649 451 636 432 q 672 504 668 483 q 675 535 675 525 q 664 586 675 560 q 631 640 650 617 q 582 681 611 664 q 499 715 533 708 q 443 721 464 721 q 381 713 413 721 q 217 626 281 688 q 135 464 154 564 q 131 417 131 440 q 135 369 131 399 q 160 303 139 339 q 217 240 181 267 q 306 201 253 213 q 349 197 328 197 q 413 208 376 197 q 486 261 450 219 q 514 297 501 279 q 532 308 522 308 q 543 306 538 308 q 579 282 563 294 q 608 250 596 269 q 624 197 624 228 q 621 165 624 189 q 593 113 618 142 q 537 62 569 82 q 468 31 504 42 q 374 17 419 17 q 310 23 353 17 q 207 68 267 29 q 90 176 136 113 q 28 325 43 240 q 21 408 21 368 q 47 558 21 478 q 161 719 74 639 q 256 788 206 760 q 368 828 307 817 q 450 836 410 836 q 540 826 486 836 q 661 768 594 815 m 500 479 q 509 502 506 492 q 513 518 513 513 q 510 531 513 525 q 488 543 503 542 q 460 547 474 544 q 451 547 456 547 q 407 518 422 547 q 393 460 393 488 q 397 431 393 446 q 410 409 404 411 q 421 407 417 407 q 442 413 429 407 q 476 441 463 424 q 500 479 489 458 z "},"":{"ha":707,"x_min":21,"x_max":685,"o":"m 679 301 q 685 244 685 272 q 667 156 685 204 q 593 57 650 107 q 551 33 575 40 q 504 26 528 26 q 488 27 501 26 q 451 35 474 28 q 413 51 428 42 q 381 85 394 64 q 360 131 368 107 q 352 169 353 156 q 351 185 351 182 q 360 225 351 207 q 400 256 371 256 l 408 256 q 417 256 413 256 q 460 272 442 256 q 479 324 479 288 q 479 328 479 325 q 426 414 476 388 q 367 431 400 428 q 357 431 361 431 q 347 433 353 432 q 334 441 336 436 q 332 449 332 446 q 338 461 332 454 q 381 544 369 500 q 400 636 393 589 q 404 674 404 654 q 397 725 404 699 q 354 764 389 760 q 342 765 347 765 q 304 738 314 765 q 287 674 290 703 q 283 625 283 646 q 285 596 283 610 q 295 473 288 533 q 313 350 303 413 q 325 269 319 310 q 332 188 331 228 q 333 171 333 179 q 333 158 333 167 q 329 136 332 149 q 281 51 321 83 q 192 18 242 18 q 188 18 190 18 q 178 18 183 18 q 89 43 131 18 q 44 87 60 61 q 22 144 29 113 q 21 153 21 149 q 26 165 21 160 q 82 277 67 218 q 103 400 97 336 q 110 500 107 450 q 125 600 114 550 q 156 698 136 651 q 211 785 176 744 q 383 867 282 867 q 435 861 408 867 q 502 833 472 854 q 551 780 532 811 q 575 723 571 749 q 579 683 579 697 q 574 638 579 660 q 544 567 563 600 q 494 507 525 533 q 488 501 492 504 q 479 493 485 497 q 491 488 486 488 q 500 486 496 488 q 619 422 575 469 q 679 301 663 374 z "},"":{"ha":519,"x_min":22,"x_max":497,"o":"m 449 304 q 492 247 488 274 q 497 210 497 221 q 478 144 497 178 q 433 88 458 113 q 372 49 408 64 q 282 22 318 26 q 231 18 246 18 q 149 29 190 18 q 92 53 117 36 q 51 103 67 71 q 38 164 38 133 q 53 229 38 196 q 74 256 63 246 q 83 262 81 261 q 86 263 86 263 q 97 254 90 263 q 128 227 110 236 q 167 213 146 218 q 204 206 189 208 q 229 204 219 204 q 257 207 243 204 q 297 222 283 211 q 310 240 310 232 q 296 256 310 249 q 214 285 257 274 q 176 292 194 288 q 139 300 158 296 q 82 325 110 308 q 39 368 54 342 q 23 410 24 394 q 22 429 22 426 q 33 481 22 454 q 69 528 44 507 q 71 529 71 529 l 74 531 q 75 532 75 532 l 85 539 q 86 540 86 540 l 89 542 q 90 543 90 543 q 68 582 78 563 q 53 625 58 601 q 49 663 49 644 q 54 703 49 679 q 79 760 60 728 q 140 821 103 794 q 214 856 178 847 q 279 865 250 865 q 331 860 297 865 q 413 824 365 856 q 468 760 453 796 q 483 690 483 725 q 482 664 483 678 q 458 604 478 629 q 410 563 439 579 q 386 554 397 556 q 382 554 385 554 q 368 565 372 554 q 278 639 344 639 q 253 636 265 639 q 225 628 238 633 q 206 608 213 624 q 201 593 201 600 q 213 572 201 581 q 228 562 219 565 q 247 556 238 558 q 305 535 275 544 q 363 514 335 526 q 424 481 396 499 q 470 426 467 450 q 474 396 474 403 q 447 328 474 361 l 436 315 q 442 309 439 311 q 449 304 446 307 m 335 354 q 347 351 342 351 q 353 353 350 351 q 356 369 356 356 q 333 413 356 399 q 285 436 308 428 q 220 460 253 449 q 156 488 188 471 q 149 489 151 489 q 140 478 142 489 q 140 468 140 474 q 169 413 140 432 q 188 401 178 406 q 208 393 197 397 q 271 371 239 379 q 335 354 303 363 z "},"&":{"ha":753,"x_min":28,"x_max":725,"o":"m 674 244 q 700 226 696 244 q 710 160 710 193 q 709 140 710 158 q 690 88 708 121 q 648 44 671 53 q 608 36 625 36 q 572 42 592 36 q 529 62 549 49 q 490 90 510 75 q 463 115 476 103 q 433 142 449 128 q 422 133 426 139 q 411 122 417 128 q 360 78 388 99 q 301 44 333 58 q 215 28 258 28 q 163 33 189 28 q 106 60 132 42 q 62 106 81 79 q 35 158 43 132 q 28 206 28 185 q 29 225 28 215 q 73 357 36 300 q 172 454 110 414 q 183 464 182 461 q 183 468 183 467 q 179 479 183 472 q 160 525 169 503 q 144 571 151 547 q 131 650 131 611 q 134 693 131 663 q 163 764 138 724 q 230 831 188 804 q 328 865 272 858 q 368 868 349 868 q 406 865 388 868 q 469 844 443 861 q 513 802 496 826 q 538 752 531 778 q 546 703 546 726 q 546 696 546 700 q 543 669 546 682 q 536 643 540 656 q 521 629 532 629 q 513 631 517 629 q 479 635 496 635 q 454 633 471 635 q 414 624 438 631 q 342 531 349 601 q 342 514 342 522 q 349 462 342 489 q 374 407 356 435 q 398 376 385 390 q 426 349 411 363 q 435 370 433 360 q 439 390 436 381 q 439 394 439 392 q 431 408 439 401 q 406 438 417 421 q 393 481 393 458 q 401 518 393 499 q 439 544 414 540 q 468 547 454 547 q 499 544 481 547 q 546 542 518 542 q 589 540 567 540 q 633 542 606 540 q 697 547 660 543 q 710 549 704 549 q 721 545 717 549 q 725 524 725 542 q 719 494 725 508 q 706 468 714 481 q 567 381 657 396 q 540 356 544 376 q 532 328 536 342 q 522 301 528 315 q 518 285 518 290 q 519 281 518 283 q 536 272 521 279 q 577 258 556 264 q 619 249 599 253 q 674 244 647 244 m 214 275 q 255 240 236 244 q 282 236 274 236 q 335 251 307 236 q 278 324 306 288 q 225 397 251 360 q 197 351 199 369 q 196 328 196 332 q 214 275 196 299 z "},"$":{"ha":576,"x_min":25,"x_max":551,"o":"m 483 406 q 549 300 549 367 q 543 258 549 281 q 511 196 532 222 q 350 83 449 110 q 326 73 329 78 q 322 46 322 68 q 322 25 322 35 q 318 6 322 15 q 301 -17 310 -15 q 289 -18 292 -18 q 264 -4 276 -18 q 253 17 256 6 q 247 39 250 28 q 239 66 243 63 q 213 72 235 69 q 129 96 167 75 q 60 149 92 117 q 34 190 40 167 q 25 238 28 213 q 25 249 25 243 q 31 299 25 274 q 53 349 36 324 q 72 372 61 361 q 90 383 83 383 q 96 383 92 383 q 113 371 100 382 q 164 339 136 351 q 221 317 192 326 q 226 315 224 315 q 238 329 238 315 l 238 354 l 239 354 l 239 360 q 235 385 239 381 q 210 394 232 389 q 166 405 188 399 q 125 422 144 411 q 64 473 86 443 q 38 526 42 503 q 33 561 33 550 q 43 615 33 585 q 82 678 53 646 q 147 727 111 710 q 224 753 183 744 q 247 776 243 757 q 264 808 250 796 q 297 824 278 819 q 326 826 313 826 q 335 826 331 826 q 374 812 364 824 q 383 782 383 800 q 382 767 383 775 q 382 763 382 764 q 386 751 382 754 q 399 744 390 747 q 458 722 431 738 q 508 686 485 707 q 548 634 544 657 q 551 603 551 611 q 533 540 551 572 q 500 497 519 517 q 476 485 488 485 q 469 485 475 485 q 450 499 464 486 q 406 525 431 518 q 357 536 382 532 q 354 536 356 536 q 343 525 343 536 q 341 499 342 511 q 338 474 340 486 q 338 471 338 472 q 354 450 338 454 l 404 439 q 483 406 446 426 m 233 478 q 236 499 236 488 q 233 519 236 508 q 225 518 228 519 q 209 510 217 514 q 201 499 201 506 q 201 493 201 496 q 214 481 204 482 q 233 478 224 481 m 376 321 q 388 327 382 324 q 393 338 393 331 q 376 360 393 356 q 372 361 374 361 q 367 363 369 361 l 346 367 q 341 368 343 368 q 336 369 339 368 q 335 369 335 369 q 325 361 328 369 q 323 340 324 349 q 322 328 322 332 q 324 310 322 319 q 376 321 350 310 z "},"":{"ha":540,"x_min":22,"x_max":519,"o":"m 482 254 q 490 254 486 254 q 513 247 506 254 q 519 228 519 239 q 517 213 519 221 q 432 97 492 142 q 342 43 389 65 q 243 8 296 21 q 182 3 213 3 q 146 4 164 3 q 44 58 65 17 q 22 140 22 100 q 28 189 22 163 q 31 199 28 193 q 54 240 42 232 q 90 249 67 249 q 104 249 96 249 q 107 261 107 256 q 107 272 107 267 q 108 283 108 278 q 102 306 108 296 q 74 324 96 317 q 43 342 54 329 q 29 366 32 354 q 26 386 26 378 q 29 409 26 396 q 40 439 32 422 q 57 447 47 447 l 82 447 q 78 472 79 460 q 76 494 78 483 q 74 542 74 518 q 90 655 74 594 q 164 775 107 715 q 319 846 231 846 q 376 839 347 846 q 458 794 428 826 q 500 714 488 763 q 506 676 506 694 q 494 624 506 653 q 453 563 483 594 q 425 539 440 549 q 393 519 410 529 q 379 515 386 515 q 363 524 369 515 q 332 550 349 538 q 283 568 308 568 q 243 558 264 568 q 210 521 219 549 q 196 454 200 493 q 194 443 194 447 q 197 437 194 439 q 214 435 199 435 q 266 438 240 436 q 317 444 292 439 q 331 447 324 446 q 346 447 339 447 q 368 429 368 447 q 367 421 368 425 q 342 382 361 401 q 286 344 317 358 q 222 322 256 331 q 199 313 203 317 q 196 289 196 310 q 195 274 196 282 q 193 260 194 267 q 192 247 192 251 q 193 240 192 243 q 217 235 194 236 q 265 233 242 233 q 338 236 296 233 q 435 250 381 239 q 458 253 446 253 q 482 254 471 253 z "},"":{"ha":653,"x_min":21,"x_max":632,"o":"m 579 375 q 632 233 632 308 q 630 187 632 229 q 563 79 628 144 q 484 28 528 44 q 397 11 440 11 q 371 12 394 11 q 303 31 347 13 q 225 86 260 50 q 160 183 185 131 q 122 293 135 235 q 122 295 122 294 q 121 297 121 296 l 121 306 q 120 308 121 307 q 119 310 119 308 q 115 322 118 318 q 107 326 113 326 q 100 325 104 326 l 85 325 q 50 334 64 325 q 29 356 36 343 q 22 377 22 368 q 21 388 21 386 q 25 413 21 400 q 58 439 35 439 q 61 439 60 439 l 106 439 q 113 449 111 439 q 113 453 113 451 q 108 460 113 458 q 97 463 104 461 q 87 464 92 463 q 76 467 82 465 q 33 526 33 479 q 47 561 35 550 q 76 572 58 572 q 85 572 81 572 q 103 569 96 571 q 114 567 111 567 q 129 572 122 567 q 140 590 139 578 q 146 611 142 601 q 329 833 200 754 q 425 863 376 863 q 486 851 456 863 q 581 764 556 831 q 594 713 592 736 q 597 675 597 690 q 596 649 597 661 q 571 587 593 614 q 519 553 549 560 q 513 551 515 551 q 497 564 501 551 q 410 631 474 631 q 393 629 401 631 q 282 560 329 621 q 320 558 303 558 q 354 554 338 557 q 371 553 363 554 q 381 540 379 551 q 382 536 382 538 q 376 526 382 531 q 363 519 369 522 q 317 498 340 506 q 269 483 293 490 q 258 481 264 482 q 250 474 253 481 q 247 463 247 467 q 246 458 246 460 q 250 447 246 453 q 257 443 253 443 q 262 444 258 443 q 271 446 265 444 q 296 449 283 447 q 322 451 308 450 q 332 453 325 453 q 340 453 336 453 q 356 451 347 453 q 371 439 365 450 q 372 432 372 435 q 365 421 372 426 q 350 408 357 415 q 326 392 339 397 q 299 379 313 386 q 285 374 292 376 q 272 364 279 371 q 378 304 313 304 q 381 304 379 304 q 488 374 453 306 q 492 383 490 379 q 519 407 496 407 q 538 404 528 407 q 579 375 561 399 z "},"":{"ha":567,"x_min":24,"x_max":544,"o":"m 532 767 q 544 738 544 750 q 543 727 544 735 q 521 706 542 719 q 458 656 488 682 q 401 599 429 629 q 355 540 375 571 q 311 479 335 508 q 307 468 307 474 q 308 463 307 467 q 311 453 308 460 q 318 446 314 446 q 321 447 318 446 q 329 447 324 447 q 381 451 356 449 q 431 457 406 453 q 449 460 440 460 q 468 460 458 460 q 485 449 485 458 q 479 438 485 444 q 446 397 464 415 q 404 368 428 379 q 369 352 386 360 q 335 338 353 344 q 321 324 321 335 q 322 318 321 321 q 329 307 324 307 q 342 308 335 307 q 361 311 351 310 l 396 318 q 415 321 406 319 q 426 322 421 322 q 439 324 432 322 q 454 311 454 324 q 453 306 454 308 q 445 286 450 294 q 433 269 440 278 q 363 207 404 232 q 350 188 350 200 q 351 179 350 183 q 367 131 360 156 q 383 83 374 107 q 389 53 389 67 q 378 25 389 39 q 343 0 368 11 q 303 -11 319 -8 q 278 -14 288 -14 q 247 -10 263 -14 q 168 47 194 1 q 138 132 146 85 q 131 147 135 142 q 117 156 128 153 q 63 200 74 169 q 51 257 51 231 q 51 263 51 260 q 75 286 51 285 q 99 289 86 289 q 124 290 111 289 q 140 303 139 290 q 140 307 140 306 q 136 315 140 313 q 125 318 132 317 q 115 321 121 318 q 67 353 76 332 q 57 389 57 374 q 67 426 57 406 q 99 449 78 449 q 101 449 100 449 q 131 449 117 449 q 161 446 146 449 q 167 446 164 446 q 189 464 185 446 q 190 467 190 465 l 194 475 q 195 476 194 476 q 196 478 196 476 q 199 485 199 482 q 192 493 199 490 q 187 494 189 494 q 182 496 185 494 l 165 504 q 160 506 163 506 q 156 507 158 506 q 57 582 100 531 q 24 667 24 622 q 57 753 24 713 q 160 822 97 800 q 181 826 171 826 q 202 823 196 826 q 211 804 208 819 q 214 794 214 799 l 215 788 q 218 778 217 783 l 232 724 q 235 714 235 718 l 236 707 q 239 696 238 701 q 278 608 251 649 q 332 735 299 674 q 356 775 343 756 q 388 811 369 794 q 438 832 413 832 q 485 815 461 832 q 510 793 499 804 q 532 767 522 782 z "},"":{"ha":563,"x_min":21,"x_max":540,"o":"m 539 264 q 540 249 540 256 q 526 196 540 222 q 469 123 506 150 q 385 85 433 96 q 357 81 371 81 q 335 74 336 79 q 335 64 335 69 q 335 51 335 60 q 335 38 335 44 q 333 24 335 31 q 322 0 331 4 q 308 -4 314 -4 q 289 3 300 -4 q 269 23 275 11 q 261 50 264 35 q 256 72 260 69 q 236 81 253 75 q 124 139 169 97 q 51 240 79 181 q 22 335 24 300 q 21 381 21 371 q 33 485 21 432 q 103 624 51 568 q 226 717 154 679 q 244 730 238 724 q 253 751 251 736 q 258 769 254 760 q 264 788 261 778 q 303 830 278 824 q 340 836 328 836 q 381 828 361 836 q 401 797 401 818 q 400 785 401 792 q 397 774 399 779 l 392 754 q 389 743 390 749 q 401 736 394 738 q 414 732 407 735 q 485 676 465 713 q 506 599 506 640 q 504 576 506 588 q 494 546 503 560 q 474 523 486 532 q 449 508 463 514 q 425 499 436 501 q 422 499 424 499 q 406 513 410 499 q 392 535 401 526 q 369 551 382 544 q 353 557 358 557 q 349 556 351 557 q 344 538 346 554 q 343 524 343 531 l 343 514 q 342 500 343 507 l 336 426 q 335 413 335 419 l 335 403 q 333 389 335 396 q 333 374 333 382 l 332 344 q 332 329 332 338 q 332 322 332 325 q 333 314 332 315 q 336 313 335 313 q 350 318 340 313 q 400 367 386 335 q 426 385 408 385 q 433 385 429 385 q 483 364 463 382 q 539 264 528 325 m 167 389 q 193 339 169 361 q 246 314 217 317 q 242 422 243 368 q 240 535 240 476 q 179 470 193 508 q 165 404 165 432 q 167 389 165 396 z "},"":{"ha":776,"x_min":-10,"x_max":767,"o":"m 767 226 q 767 214 767 219 q 755 159 767 185 q 719 108 743 133 q 665 65 696 82 q 601 38 635 49 q 535 16 568 25 q 465 4 501 7 q 440 3 453 3 q 374 15 407 3 q 315 71 342 28 q 293 144 293 107 q 311 218 293 182 q 337 244 321 238 q 374 254 353 251 q 361 285 367 275 q 356 315 356 294 q 356 319 356 319 q 355 318 356 319 q 353 317 354 317 q 347 318 350 317 q 294 322 335 321 q 206 322 254 322 q 190 244 192 275 q 189 196 189 213 q 192 132 189 164 q 190 124 190 129 q 192 100 192 111 q 191 90 192 94 q 190 81 190 85 q 193 53 190 67 q 194 47 194 50 q 176 24 194 32 q 149 17 163 17 q 124 22 136 17 q 28 115 56 49 q 26 124 26 118 q 18 159 22 142 q 11 196 14 176 q 7 253 7 225 q 8 280 7 260 q 10 335 8 300 q -8 349 -8 339 q -9 374 -8 357 q -10 397 -10 390 q -8 443 -10 417 q 1 497 -6 469 q 21 535 8 525 q 32 540 22 539 q 50 542 42 542 q 69 540 60 542 q 76 558 72 549 q 119 669 97 614 q 164 781 142 725 q 173 801 168 792 q 183 819 178 810 q 204 844 194 840 q 219 847 214 847 q 247 840 232 847 q 265 830 250 839 q 294 813 281 821 q 367 872 308 868 q 379 872 372 872 q 418 869 397 872 q 589 854 503 854 q 703 861 646 854 q 713 861 708 861 q 751 846 739 861 q 763 814 763 831 q 758 790 763 803 q 689 696 739 731 q 607 650 649 668 q 517 628 565 632 q 509 626 513 626 q 503 625 506 626 q 501 624 501 625 q 497 621 500 622 q 508 606 503 617 q 519 584 514 596 q 528 561 525 572 q 533 542 532 550 q 541 533 535 533 q 553 535 547 533 q 564 536 558 536 l 571 536 q 581 538 575 536 l 636 542 q 650 544 643 543 q 664 544 657 544 q 678 547 671 546 q 693 547 686 547 q 733 511 729 547 q 735 499 735 504 q 731 474 735 488 q 718 446 726 461 q 685 403 704 422 q 640 372 665 383 q 591 350 617 360 q 539 333 565 340 q 523 330 529 331 q 513 327 517 329 q 510 319 510 325 q 510 303 510 314 q 510 289 510 294 q 511 279 511 283 q 510 269 511 275 q 506 254 508 264 q 525 253 515 253 q 548 255 535 253 q 578 260 561 257 l 681 276 q 696 278 690 278 q 703 279 701 279 q 718 276 710 279 q 767 226 763 271 m 342 585 q 347 602 344 594 q 349 614 349 610 q 347 622 349 618 q 335 633 344 629 q 319 643 326 636 q 303 667 310 653 q 278 598 290 635 q 256 522 267 561 q 298 519 285 519 q 317 518 311 518 q 331 519 326 518 q 344 539 344 525 q 344 542 344 540 q 344 550 344 543 q 343 564 343 557 q 342 577 343 571 q 342 585 342 583 z "},"":{"ha":856,"x_min":8,"x_max":846,"o":"m 846 208 q 846 196 846 201 q 834 141 846 167 q 799 90 822 115 q 744 47 775 64 q 682 19 714 31 q 615 -2 649 7 q 544 -14 581 -11 q 519 -15 532 -15 q 453 -3 486 -15 q 394 53 421 10 l 393 54 l 393 57 l 392 58 q 331 19 361 28 q 275 11 300 11 q 239 14 257 11 q 126 66 168 24 q 57 167 85 108 q 8 394 8 276 q 10 440 8 418 q 37 590 17 518 q 90 733 57 663 q 122 788 104 761 q 158 840 139 814 q 200 872 175 863 q 251 882 225 882 q 302 874 278 882 q 342 851 326 867 q 362 831 353 842 q 379 808 371 819 q 447 854 394 850 q 460 854 453 854 q 499 851 478 854 q 669 836 583 836 q 783 843 726 836 q 793 843 789 843 q 831 828 818 843 q 843 796 843 813 q 839 772 843 785 q 768 678 819 714 q 687 632 729 650 q 596 610 644 614 q 594 609 594 610 q 593 608 594 608 l 586 608 q 585 608 585 608 q 583 607 585 607 q 581 606 581 607 q 578 603 581 604 q 598 582 589 592 q 610 557 607 572 q 617 547 611 547 q 620 548 617 547 q 629 549 624 549 q 640 550 635 550 l 647 550 q 657 551 651 550 l 713 557 q 724 558 718 558 l 731 558 q 740 560 735 558 q 755 561 747 561 q 771 563 763 561 q 810 525 806 560 q 811 513 811 518 q 807 488 811 501 q 794 460 803 475 q 761 417 781 436 q 717 386 742 397 q 667 365 693 375 q 615 347 642 354 q 592 337 594 340 q 589 321 589 333 q 589 310 589 317 q 591 281 590 290 q 592 269 592 271 q 586 236 592 253 q 606 235 596 235 q 627 237 614 235 q 658 242 640 239 q 710 250 685 246 q 760 258 735 254 q 776 260 771 260 q 783 261 782 261 q 799 258 790 261 q 846 208 842 253 m 335 272 q 343 354 343 314 q 340 408 343 371 q 317 499 338 444 q 313 508 315 503 q 304 515 311 513 q 267 389 281 451 q 259 339 260 357 q 258 315 258 321 q 264 263 258 289 q 269 249 267 256 q 275 235 271 242 q 299 221 285 221 q 306 222 299 221 q 322 236 314 222 q 330 253 326 244 q 335 272 333 263 z "},"":{"ha":564,"x_min":7,"x_max":551,"o":"m 544 519 q 551 450 551 485 q 541 365 551 415 q 496 253 531 315 q 342 128 444 157 q 326 123 332 125 q 319 118 321 121 q 317 110 317 115 q 317 93 317 104 q 319 74 318 83 q 319 56 319 65 q 294 18 318 24 q 282 17 288 17 q 249 39 261 17 q 239 75 239 58 l 239 81 l 238 93 q 235 110 238 104 q 222 118 233 115 q 170 141 193 125 q 126 176 147 157 q 85 239 96 204 q 71 313 74 274 q 69 353 69 333 q 72 401 69 372 q 93 467 74 429 q 82 468 86 468 q 72 467 78 468 q 60 464 67 465 q 51 464 56 464 q 19 483 31 464 q 8 525 8 506 q 7 553 7 539 q 8 581 7 564 q 17 622 10 599 q 63 699 31 669 q 136 749 96 728 q 222 774 178 769 q 235 778 231 775 q 240 792 239 781 q 297 849 242 847 l 311 849 q 360 833 351 843 q 369 803 369 822 q 367 776 369 792 q 365 758 365 765 q 367 751 365 754 q 383 740 368 747 q 493 651 457 710 q 544 519 529 593 m 246 275 l 246 444 q 246 449 246 447 q 235 458 246 458 q 228 460 232 460 q 222 458 225 460 q 215 449 218 457 q 213 438 214 443 l 206 418 q 203 407 204 413 q 196 371 197 385 q 194 353 194 357 q 200 317 194 335 q 239 268 210 283 q 246 275 246 271 m 322 272 q 358 306 346 283 q 369 349 369 328 q 369 358 369 354 q 354 400 367 382 q 322 424 342 418 l 322 272 z "},"":{"ha":775,"x_min":-11,"x_max":765,"o":"m 765 249 q 765 235 765 242 q 753 176 765 204 q 718 119 742 147 q 664 72 694 90 q 600 40 633 54 q 533 17 567 28 q 464 4 500 7 q 439 3 451 3 q 374 16 407 3 q 314 78 340 29 q 292 158 292 118 q 310 240 292 199 q 335 268 319 260 q 372 279 351 276 q 360 312 365 301 q 354 346 354 322 q 354 350 354 350 q 353 349 354 350 q 351 347 353 347 q 346 349 349 347 q 293 353 333 353 q 204 354 253 353 q 189 267 190 303 q 188 215 188 232 q 190 144 188 179 q 189 136 189 142 q 190 110 190 124 q 190 99 190 104 q 189 89 189 93 q 192 58 189 74 q 193 49 193 53 q 189 36 193 42 q 175 25 185 31 q 150 19 163 19 q 122 25 136 19 q 26 126 54 54 q 25 135 25 129 q 17 175 21 156 q 10 215 13 194 q 6 276 6 246 q 6 307 6 285 q 8 367 7 329 q -10 382 -10 374 q -10 410 -10 392 q -11 435 -11 428 q -9 486 -11 457 q 0 545 -7 515 q 19 588 7 575 q 31 593 21 592 q 49 594 40 594 q 68 593 58 594 q 71 603 69 599 q 75 613 72 607 q 118 735 96 675 q 163 857 140 794 q 182 900 171 878 q 221 929 196 929 q 246 924 232 929 q 264 911 249 921 q 293 892 279 901 q 365 957 307 953 q 386 960 376 960 q 397 959 389 960 q 417 956 404 958 q 586 938 501 938 q 701 946 643 938 q 708 946 706 946 q 749 929 736 946 q 761 894 761 913 q 757 868 761 882 q 688 764 740 806 q 606 714 647 735 q 515 689 564 693 q 508 688 511 688 q 501 686 504 688 l 496 681 q 507 664 501 675 q 518 640 513 653 q 527 615 524 628 q 532 594 531 603 q 539 585 533 585 q 542 585 539 585 q 551 586 546 586 q 579 589 565 588 l 635 596 q 663 599 649 597 q 677 600 669 600 q 692 600 685 600 q 732 561 728 600 q 733 547 733 554 q 729 520 733 535 q 717 489 725 506 q 639 408 692 438 q 590 384 615 394 q 538 365 564 374 q 513 358 517 360 q 508 343 508 357 q 508 333 508 339 q 509 318 508 324 q 510 307 510 313 q 508 295 510 301 q 504 278 507 289 q 521 276 513 276 q 546 279 532 276 q 576 285 560 282 q 583 286 581 286 l 596 288 q 603 289 600 289 l 653 299 q 660 300 657 300 l 672 301 q 679 303 676 303 q 699 306 689 306 q 717 303 708 306 q 765 249 761 297 m 340 643 q 345 660 343 653 q 347 674 347 668 q 346 683 347 679 q 334 694 343 690 q 318 706 325 699 q 301 732 307 719 q 277 657 289 697 q 254 574 265 617 q 298 569 283 571 q 318 568 313 568 q 329 569 326 568 q 343 592 343 578 q 343 594 343 593 l 343 603 l 340 635 l 340 643 z "},"":{"ha":856,"x_min":8,"x_max":846,"o":"m 846 249 q 846 235 846 242 q 834 176 846 204 q 799 119 822 147 q 744 72 775 90 q 682 40 714 54 q 615 17 649 28 q 544 4 581 7 q 519 3 532 3 q 454 16 488 3 q 394 78 421 29 l 393 79 l 393 82 l 392 83 q 274 32 344 32 q 239 35 257 32 q 126 92 168 46 q 57 203 85 138 q 8 453 8 322 q 10 503 8 478 q 90 824 22 668 q 122 885 104 856 q 158 942 139 914 q 200 978 175 967 q 251 989 225 989 q 302 980 278 989 q 342 956 326 971 q 379 907 361 935 q 447 957 396 953 q 468 960 457 960 q 478 959 471 960 q 499 956 486 958 q 612 939 569 940 q 667 938 654 938 q 783 946 725 938 q 790 946 788 946 q 830 929 817 946 q 843 894 843 913 q 839 868 843 882 q 768 764 819 803 q 687 714 729 735 q 596 689 644 693 q 594 688 594 689 q 593 688 594 688 l 586 688 q 585 687 585 688 q 583 686 585 686 q 581 684 581 685 q 578 681 581 683 q 598 658 589 669 q 610 631 607 647 q 617 621 611 621 q 620 622 617 621 q 629 622 624 622 l 740 633 q 755 635 747 635 q 771 636 763 636 q 810 596 806 636 q 811 582 811 589 q 807 556 811 569 q 794 525 803 542 q 717 443 769 474 q 615 401 671 419 q 592 390 594 394 q 589 372 589 385 q 589 360 589 367 q 591 329 590 340 q 592 315 592 318 q 586 278 592 297 q 603 276 594 276 q 627 279 614 276 q 658 285 640 282 q 710 294 685 289 q 760 303 735 299 q 781 306 771 306 q 799 303 790 306 q 846 249 842 297 m 335 318 q 343 408 343 363 q 340 467 343 426 q 317 567 338 507 q 313 577 315 572 q 304 585 311 582 q 267 446 282 519 q 259 391 260 411 q 258 365 258 371 q 264 307 258 338 q 269 291 267 299 q 275 276 271 283 q 297 263 283 263 q 306 263 299 263 q 322 279 314 264 q 330 298 326 289 q 335 318 333 307 z "},"":{"ha":564,"x_min":7,"x_max":551,"o":"m 544 571 q 551 493 551 532 q 541 401 551 456 q 496 276 531 346 q 342 140 444 172 q 319 130 321 135 q 317 101 317 125 q 319 81 318 90 q 319 60 319 71 q 294 19 318 25 q 282 18 288 18 q 249 42 261 18 q 239 82 239 64 q 239 89 239 86 l 238 101 q 238 108 238 106 q 222 129 238 125 q 170 154 193 136 q 126 193 147 172 q 85 263 96 224 q 71 342 74 301 q 69 386 69 364 q 72 440 69 408 q 93 513 74 472 q 83 514 88 514 q 72 512 78 514 q 60 508 67 510 q 53 508 56 508 q 19 531 31 508 q 8 576 8 556 q 7 608 7 592 q 8 638 7 619 q 17 683 10 657 q 63 767 31 735 q 136 822 96 799 q 177 840 156 833 q 222 850 199 847 q 235 855 231 851 q 240 869 239 858 q 256 915 242 901 q 297 932 269 929 q 311 931 307 932 q 360 914 351 925 q 369 882 369 903 q 367 853 369 869 q 365 833 365 840 q 367 824 365 828 q 383 813 368 819 q 493 715 457 779 q 544 571 529 651 m 246 303 l 246 488 q 246 492 246 490 q 235 503 246 503 q 228 504 232 504 q 222 503 225 504 q 215 493 218 501 q 213 482 214 488 l 206 458 q 203 447 204 453 q 196 407 197 422 q 194 386 194 392 q 200 347 194 367 q 239 294 210 310 q 246 303 246 297 m 322 299 q 358 335 346 310 q 369 383 369 361 q 369 393 369 389 q 354 439 367 419 q 322 465 342 458 l 322 299 z "},"%":{"ha":674,"x_min":21,"x_max":653,"o":"m 271 540 q 206 491 239 504 q 147 478 174 478 q 106 483 126 478 q 40 524 60 494 q 21 588 21 554 q 22 610 21 599 q 27 631 25 621 q 32 650 29 640 q 41 677 38 665 q 44 697 44 689 q 43 710 44 704 q 43 714 43 711 q 46 726 43 719 q 51 739 49 732 q 72 775 60 758 q 100 807 85 792 q 131 822 114 821 q 164 825 147 824 q 168 825 165 825 q 229 799 203 825 q 267 756 249 778 q 296 706 285 733 q 311 638 311 671 q 271 540 311 585 m 610 600 q 495 484 551 542 q 385 364 439 426 l 322 294 q 308 277 315 286 q 292 260 300 268 q 231 181 258 222 q 178 94 203 139 q 150 26 158 63 q 136 6 144 8 q 124 3 128 3 q 103 13 114 3 q 75 79 75 39 q 78 103 75 92 q 85 126 82 115 q 171 319 117 229 q 292 511 231 417 q 426 693 354 606 q 513 790 468 746 q 554 819 528 810 q 571 822 564 822 q 603 808 590 822 q 642 747 631 776 q 653 694 653 718 q 647 657 653 676 q 632 625 642 639 q 610 600 622 611 m 132 636 q 121 611 125 622 q 117 593 117 600 q 119 576 117 585 q 140 561 124 561 q 168 571 158 564 q 184 589 183 582 q 185 597 185 596 q 171 619 185 610 q 158 629 164 625 q 144 638 151 633 q 138 640 140 640 q 132 636 135 640 m 521 350 q 642 192 615 294 q 647 150 647 169 q 627 77 647 117 q 554 14 607 38 q 475 -4 518 -1 q 411 10 440 -4 q 363 49 382 25 q 337 97 343 72 q 331 139 331 122 q 333 169 331 154 q 382 275 346 228 l 408 317 q 447 356 425 349 q 479 363 468 363 q 521 350 500 363 m 503 139 q 504 146 504 143 q 482 175 504 163 q 463 185 472 182 q 442 192 453 189 q 436 193 439 193 q 431 192 433 193 q 426 182 428 190 q 423 161 424 169 q 422 149 422 153 q 424 131 422 140 q 434 110 428 115 q 458 104 440 104 l 465 104 q 503 139 496 108 z "},"(":{"ha":418,"x_min":21,"x_max":396,"o":"m 389 -15 q 396 -35 396 -25 q 393 -46 396 -40 q 385 -51 389 -51 q 379 -50 383 -51 q 368 -46 375 -49 q 193 56 267 -17 q 31 375 60 185 q 24 426 26 400 q 21 479 22 451 q 53 675 24 583 q 147 846 82 767 q 241 933 189 899 q 360 983 293 968 q 374 988 368 986 q 382 990 381 990 q 392 982 389 990 q 394 975 394 978 q 388 965 394 969 q 374 956 381 961 q 347 931 358 944 q 325 901 336 917 q 260 774 285 839 q 229 633 236 708 q 221 515 222 558 q 219 457 219 472 q 226 339 219 399 q 257 206 233 269 q 314 81 281 142 q 335 49 324 64 q 360 19 347 35 q 389 -15 378 1 z "},")":{"ha":418,"x_min":22,"x_max":397,"o":"m 389 560 q 394 509 392 535 q 397 457 397 483 q 366 260 394 353 q 272 89 338 168 q 177 1 229 36 q 58 -49 125 -33 q 44 -53 50 -51 q 38 -56 39 -56 q 26 -47 31 -56 q 25 -40 25 -44 q 31 -31 25 -36 q 44 -21 38 -26 q 71 4 60 -10 q 93 33 82 18 q 159 162 135 96 q 189 303 183 228 q 198 422 196 376 q 200 486 200 468 q 193 596 200 540 q 162 729 185 665 q 104 854 139 793 q 83 885 94 871 q 58 915 72 900 q 44 932 51 924 q 29 950 36 940 q 23 963 24 957 q 22 969 22 968 q 25 981 22 975 q 35 986 29 986 q 40 985 36 986 q 50 981 44 983 q 225 879 151 951 q 389 560 360 749 z "},"{":{"ha":442,"x_min":21,"x_max":422,"o":"m 411 985 q 422 972 422 979 q 413 957 422 965 q 403 951 410 954 q 366 926 379 943 q 344 888 353 908 q 321 809 329 849 q 306 729 313 769 q 294 676 300 701 q 279 624 288 650 q 199 500 254 549 q 182 485 193 496 q 249 430 226 465 q 283 353 271 394 q 297 285 293 319 q 304 217 300 251 q 314 145 308 181 q 326 74 319 110 q 347 25 333 46 q 388 -7 361 4 q 402 -16 396 -11 q 408 -29 408 -21 q 408 -33 408 -32 q 400 -49 407 -44 q 386 -57 393 -54 q 358 -64 372 -64 q 338 -60 347 -64 q 247 -12 285 -44 q 189 72 208 19 q 164 149 174 110 q 147 229 154 189 q 133 292 140 261 q 115 353 126 322 q 88 408 104 383 q 47 451 72 432 q 22 473 24 468 q 21 479 21 478 q 42 510 21 488 q 86 573 69 539 q 114 644 103 607 q 128 699 122 672 q 142 753 135 725 q 169 831 153 793 q 211 903 186 868 q 358 996 267 982 q 369 997 364 997 q 411 985 392 997 z "},"}":{"ha":442,"x_min":21,"x_max":421,"o":"m 394 483 q 419 462 418 467 q 421 456 421 457 q 400 425 421 447 q 356 362 372 396 q 328 290 339 328 q 313 236 319 263 q 300 182 307 210 q 272 104 289 142 q 231 32 254 67 q 83 -61 175 -47 q 72 -62 78 -62 q 31 -50 50 -62 q 21 -37 21 -44 q 29 -22 21 -29 q 39 -17 33 -19 q 75 10 63 -7 q 97 47 88 26 q 121 126 113 86 q 136 206 129 165 q 148 259 142 233 q 163 311 154 285 q 194 378 175 347 q 243 435 214 410 q 251 442 247 438 q 260 450 254 446 q 193 505 215 469 q 158 582 171 540 q 145 649 149 615 q 138 718 142 683 q 128 790 133 754 q 115 861 122 825 q 94 910 108 889 q 54 943 81 931 q 40 951 46 946 q 33 964 33 956 q 33 968 33 967 q 41 984 35 979 q 56 992 47 989 q 85 999 69 999 q 104 996 94 999 q 195 949 157 981 q 253 864 233 917 q 278 785 268 825 q 294 706 288 746 q 308 643 301 674 q 326 582 315 613 q 394 483 347 521 z "},"[":{"ha":336,"x_min":21,"x_max":314,"o":"m 206 674 q 204 599 206 636 l 200 451 q 199 376 200 414 q 199 339 199 357 q 203 197 199 272 q 217 38 207 122 q 217 30 217 33 q 218 24 218 26 q 224 4 221 7 q 246 0 228 1 q 254 0 250 0 q 281 -3 267 0 q 306 -28 303 -7 q 282 -57 306 -47 l 278 -57 q 275 -58 276 -58 q 208 -65 235 -62 q 168 -67 182 -67 q 115 -62 142 -67 q 87 -50 96 -60 q 71 -25 78 -40 q 58 22 63 -1 q 49 71 53 46 q 28 263 33 167 q 21 463 24 360 q 29 670 22 565 q 54 881 36 775 q 66 933 58 908 q 88 981 74 957 q 119 1001 100 1001 q 131 1001 125 1001 l 150 1000 q 161 1000 156 1000 l 244 996 q 265 996 256 996 q 286 994 275 996 q 314 969 314 993 q 314 967 314 968 q 286 940 314 944 q 261 938 274 939 q 236 938 249 938 q 222 922 222 938 q 213 798 219 860 q 206 674 206 736 z "},"]":{"ha":335,"x_min":21,"x_max":314,"o":"m 288 865 q 308 672 303 769 q 314 472 313 575 q 306 265 313 371 q 282 54 300 160 q 269 3 276 28 q 247 -46 261 -22 q 215 -67 238 -67 q 132 -63 174 -64 q 50 -60 90 -62 q 27 -53 33 -58 q 21 -35 21 -47 q 27 -15 21 -21 q 50 -6 33 -8 q 74 -3 61 -4 q 99 -3 86 -3 q 114 13 113 -1 q 123 137 117 75 q 131 261 129 199 l 136 558 q 136 601 136 581 q 133 739 136 665 q 118 899 129 813 q 117 911 118 907 q 110 931 114 929 q 89 935 107 933 q 72 935 81 935 q 54 938 63 935 q 37 947 43 940 q 31 963 31 954 q 31 967 31 964 q 51 990 31 983 q 54 992 54 992 l 58 992 q 60 993 60 993 q 126 999 100 997 q 167 1001 153 1001 q 219 997 193 1001 q 248 985 239 994 q 264 960 257 975 q 278 913 274 936 q 288 865 283 889 z "},"<":{"ha":399,"x_min":17,"x_max":379,"o":"m 374 550 q 379 532 379 538 q 378 526 379 529 q 361 514 376 524 q 277 455 318 486 q 197 389 236 424 q 186 378 192 383 q 178 365 181 374 q 210 335 193 350 q 246 306 226 319 q 297 264 274 286 q 346 222 321 242 q 352 217 350 219 q 354 213 354 215 q 351 207 354 210 q 333 178 343 192 q 308 158 324 165 q 289 152 296 153 q 282 151 282 151 q 257 160 269 151 q 134 253 190 201 q 33 368 78 304 q 17 413 17 390 q 32 453 17 433 q 204 621 106 556 q 249 635 224 635 q 261 633 254 635 q 374 550 343 625 z "},">":{"ha":399,"x_min":18,"x_max":381,"o":"m 364 401 q 381 357 381 379 q 365 315 381 336 q 287 224 329 267 q 193 147 244 182 q 149 133 174 133 q 136 135 143 133 q 24 218 57 143 q 18 236 18 231 q 19 242 18 239 q 36 254 21 244 q 120 313 79 282 q 200 379 161 344 q 211 390 206 385 q 221 403 217 394 q 188 434 204 418 q 151 463 171 450 q 100 504 124 482 q 51 546 76 526 q 44 557 44 551 q 46 563 44 560 q 64 590 54 576 q 89 610 74 603 q 108 616 101 615 q 117 617 115 617 q 140 608 129 617 q 263 515 207 567 q 364 401 319 464 z "},"-":{"ha":579,"x_min":22,"x_max":556,"o":"m 453 519 q 531 483 507 513 q 556 397 556 454 q 551 365 556 381 q 531 326 544 338 q 489 313 517 315 q 399 309 444 310 q 310 304 354 308 q 212 293 261 300 q 114 275 163 286 q 86 271 99 271 q 58 278 72 271 q 32 318 44 286 q 22 372 22 343 q 33 426 22 400 q 65 474 43 453 q 118 507 86 496 q 199 527 163 522 q 267 532 236 532 q 297 531 282 532 q 375 526 336 528 q 453 519 414 524 z "},"=":{"ha":582,"x_min":24,"x_max":558,"o":"m 94 390 q 55 403 69 390 q 32 438 40 415 q 24 483 24 461 q 39 544 24 508 q 101 600 54 579 q 178 621 139 617 q 271 626 238 625 q 311 628 304 628 q 418 614 364 628 q 467 597 443 607 q 513 575 490 588 q 551 518 547 556 q 556 497 553 507 q 558 476 558 488 q 547 441 558 453 q 518 429 536 429 q 510 429 514 429 q 474 432 492 432 q 439 433 457 432 q 284 420 360 432 q 132 393 208 408 q 113 390 122 390 q 94 390 104 390 m 503 363 q 544 331 532 358 q 550 306 550 317 q 541 281 550 294 q 503 267 532 267 q 489 265 496 265 q 478 266 485 265 q 461 267 472 267 q 347 256 403 264 q 235 242 292 249 l 117 225 q 98 222 107 224 q 78 219 89 221 q 71 218 74 218 q 60 222 65 218 q 49 233 54 226 q 33 274 33 251 q 36 292 33 282 q 51 318 42 307 q 76 335 61 329 q 155 355 115 350 q 235 364 194 360 q 332 369 283 369 q 376 369 342 369 q 468 367 410 368 q 503 363 486 367 z "},"+":{"ha":601,"x_min":21,"x_max":578,"o":"m 538 488 q 573 441 568 465 q 578 407 578 417 q 563 357 578 381 q 529 338 550 338 q 517 339 524 338 q 453 344 485 344 q 390 343 422 344 q 371 324 371 343 q 371 317 371 321 l 369 301 q 369 294 369 299 l 367 236 q 367 229 367 233 l 365 214 q 365 207 365 211 q 345 165 363 176 q 314 154 328 154 q 290 160 303 154 q 252 183 267 167 q 226 219 238 199 q 207 299 208 258 q 201 318 204 315 q 194 321 199 321 q 178 318 189 321 q 139 310 158 314 q 100 303 119 306 q 82 301 90 301 q 28 343 44 301 q 21 386 21 367 q 44 462 21 428 q 106 511 67 496 q 139 522 122 518 q 174 529 156 526 q 194 535 192 532 q 200 557 197 539 q 208 598 203 578 q 221 638 213 618 q 251 680 232 665 q 301 697 269 694 q 325 699 314 699 q 352 697 336 699 q 388 685 368 696 q 416 659 411 671 q 421 638 421 647 q 417 614 421 626 l 400 551 q 396 532 396 539 q 398 527 396 529 q 421 522 400 525 q 446 519 433 521 q 469 515 458 518 q 538 488 504 510 z "},":":{"ha":285,"x_min":24,"x_max":261,"o":"m 117 450 q 86 457 104 450 q 51 481 68 464 q 24 542 24 508 q 26 570 24 547 q 67 617 29 593 q 149 642 110 642 q 219 617 186 642 q 251 579 243 599 q 258 547 258 560 q 253 521 258 535 q 238 495 247 506 q 215 475 228 485 q 173 457 197 464 q 117 450 149 450 m 244 361 q 261 318 261 342 q 258 297 261 314 q 232 260 256 279 q 184 233 210 240 q 131 226 158 226 q 122 226 126 226 q 64 244 89 226 q 37 274 44 257 q 29 308 29 292 q 30 322 29 311 q 42 351 31 333 q 74 378 53 368 q 117 396 92 386 q 150 403 132 403 q 186 398 168 403 q 219 383 204 393 q 244 361 235 374 z "},";":{"ha":299,"x_min":22,"x_max":274,"o":"m 56 490 q 30 524 38 506 q 22 558 22 542 q 24 574 22 563 q 37 604 25 586 q 69 633 49 622 q 89 643 79 639 q 108 651 99 647 q 138 660 126 660 q 151 661 150 661 q 190 656 171 661 q 226 639 208 650 q 256 611 244 628 q 274 563 274 588 q 270 535 274 556 q 235 496 267 515 q 187 474 211 481 q 140 467 163 467 q 92 472 113 467 q 56 490 72 476 m 193 404 q 237 386 219 400 q 261 355 254 372 q 268 321 268 338 q 267 306 268 318 q 254 278 267 294 q 246 260 249 269 q 240 240 243 250 q 217 188 232 213 q 183 142 203 164 q 160 128 172 128 q 151 128 158 128 q 133 140 144 129 q 125 161 125 149 q 126 172 125 167 q 131 191 129 183 q 132 203 132 199 q 131 214 132 208 q 114 233 131 232 q 86 244 97 238 q 50 276 63 257 q 38 318 38 294 q 38 324 38 321 q 53 369 39 351 q 92 400 68 388 q 114 407 103 404 q 138 410 125 410 q 166 408 153 408 q 193 404 179 407 z "},"~":{"ha":639,"x_min":42,"x_max":610,"o":"m 603 471 q 610 449 610 461 q 601 426 610 438 q 568 378 585 403 q 533 331 551 354 q 472 279 506 296 q 404 263 438 263 q 399 263 401 263 q 319 278 354 263 q 251 317 283 293 q 247 319 250 319 l 246 321 q 242 324 244 322 l 221 340 q 211 347 219 342 q 176 361 193 361 q 146 351 161 361 q 140 349 144 350 l 138 347 q 132 344 135 347 l 106 328 q 100 325 104 326 l 97 324 q 92 321 94 324 q 78 315 85 317 q 69 313 72 313 q 60 317 64 313 q 46 333 50 325 q 42 349 42 340 q 43 358 42 353 q 51 378 46 369 q 59 388 56 383 q 65 397 63 393 l 94 435 q 118 465 103 450 q 146 490 133 479 q 251 531 196 531 q 324 514 286 531 q 401 469 364 496 q 467 446 435 446 q 532 472 500 446 q 545 480 539 476 q 558 486 551 483 q 571 488 565 488 q 603 471 589 488 z "},"":{"ha":260,"x_min":22,"x_max":239,"o":"m 238 -122 q 239 -135 239 -128 q 231 -161 239 -147 q 204 -183 224 -175 q 178 -190 190 -190 q 172 -190 175 -190 q 91 -170 132 -190 q 29 -103 50 -150 q 22 -67 22 -85 q 31 -29 22 -49 q 55 1 40 -11 q 89 18 69 14 q 97 21 93 21 q 99 20 99 21 q 101 19 100 19 q 108 26 106 19 q 92 58 101 42 q 81 92 83 74 q 81 100 81 96 q 99 126 81 119 q 114 131 107 131 q 136 117 126 131 q 168 74 153 96 q 199 31 183 53 q 214 -7 214 10 q 207 -31 214 -15 q 160 -49 200 -46 q 133 -55 146 -50 q 110 -75 121 -60 q 143 -85 125 -85 q 154 -83 149 -85 q 158 -83 157 -83 q 161 -82 158 -82 l 175 -82 q 178 -81 178 -82 q 182 -81 179 -81 q 219 -92 204 -81 q 238 -122 233 -103 z "},"":{"ha":260,"x_min":21,"x_max":238,"o":"m 171 18 q 205 1 190 14 q 229 -29 219 -11 q 238 -67 238 -49 q 231 -103 238 -85 q 169 -170 210 -150 q 88 -190 128 -190 q 82 -190 85 -190 q 69 -189 75 -190 q 56 -185 63 -187 q 28 -161 36 -175 q 21 -135 21 -147 q 22 -122 21 -128 q 42 -92 26 -103 q 79 -81 57 -81 q 83 -81 82 -81 q 86 -82 83 -82 l 99 -82 q 103 -83 101 -82 q 106 -83 104 -83 q 117 -85 111 -85 q 150 -75 135 -85 q 128 -55 140 -60 q 100 -49 115 -50 q 53 -31 60 -46 q 46 -7 46 -15 q 61 31 46 10 q 92 74 76 53 q 124 117 107 96 q 146 131 133 131 q 161 126 153 131 q 179 100 179 119 q 179 92 179 96 q 167 58 176 74 q 151 26 158 42 q 158 19 154 19 q 160 20 160 19 q 163 21 161 21 q 171 18 167 21 z "},"*":{"ha":543,"x_min":21,"x_max":522,"o":"m 497 657 q 511 638 511 650 q 506 621 511 631 q 499 610 504 618 q 483 592 489 594 q 471 589 478 589 q 454 590 464 589 l 353 619 q 342 624 346 622 q 333 625 338 625 q 328 625 331 625 q 325 603 325 614 q 325 582 325 593 q 325 575 325 579 l 324 563 q 324 556 324 560 l 324 506 q 324 499 324 503 l 322 486 q 322 479 322 483 q 278 436 322 436 q 229 461 249 438 q 213 486 218 472 q 203 515 207 500 q 192 560 196 538 q 186 606 189 582 q 185 613 185 608 q 181 619 185 617 q 160 608 169 615 q 140 594 150 601 q 124 585 132 590 q 107 575 115 581 q 82 565 92 565 q 75 567 81 565 q 58 588 69 568 q 50 617 50 603 q 61 651 50 635 q 114 706 83 682 q 124 713 119 710 q 132 722 129 715 l 81 751 q 38 789 53 768 q 22 824 22 811 q 21 839 21 836 q 31 879 21 858 q 65 906 44 906 q 94 896 79 906 q 130 874 111 883 q 168 853 149 864 q 172 877 171 865 q 175 900 172 889 q 186 942 176 921 q 240 982 201 981 q 264 985 251 985 q 289 985 276 985 q 336 963 321 982 q 351 917 351 943 q 351 908 351 913 q 350 890 351 899 q 346 871 349 881 q 344 859 344 864 q 343 853 343 854 q 344 843 343 847 q 360 851 354 846 q 374 860 367 856 q 405 878 389 869 q 439 892 421 886 q 463 896 451 896 q 481 892 471 896 q 503 867 492 888 q 519 826 513 849 q 522 810 522 818 q 494 768 522 782 q 454 750 475 757 q 414 735 433 743 q 399 731 407 732 q 383 722 390 729 q 394 714 389 717 q 407 708 400 711 q 452 683 431 697 q 497 657 474 669 z "},"":{"ha":519,"x_min":22,"x_max":497,"o":"m 176 976 q 220 957 203 971 q 245 926 238 943 q 253 893 253 910 q 252 878 253 890 q 239 849 251 867 q 229 831 232 840 q 224 811 226 821 q 201 759 215 783 q 167 714 186 735 q 142 700 156 700 q 117 711 128 700 q 110 733 110 719 q 111 744 110 739 q 115 785 115 764 q 99 806 115 801 q 85 810 92 807 q 71 815 78 813 q 35 847 47 829 q 22 889 22 865 q 22 894 22 892 q 38 941 24 922 q 75 971 51 960 q 121 981 96 981 q 150 979 136 979 q 176 976 164 979 m 421 976 q 465 957 447 971 q 490 926 482 943 q 497 893 497 910 q 497 878 497 890 q 483 849 496 867 q 474 831 476 840 q 468 811 471 821 q 445 759 460 783 q 411 714 431 735 q 386 700 400 700 q 361 711 372 700 q 353 723 354 718 q 353 729 353 728 q 356 744 353 736 q 360 785 360 764 q 356 798 358 793 q 343 806 353 803 q 329 810 336 807 q 315 815 322 813 q 279 847 292 829 q 267 889 267 865 q 267 894 267 892 q 282 941 268 922 q 319 971 296 960 q 365 981 340 981 q 394 979 381 979 q 421 976 408 979 z "},"":{"ha":519,"x_min":22,"x_max":497,"o":"m 204 865 q 240 834 228 853 q 253 792 253 815 q 253 786 253 789 q 238 740 251 758 q 200 710 224 722 q 154 700 174 700 q 125 702 139 701 q 99 706 111 703 q 55 724 72 710 q 30 755 38 738 q 22 789 22 772 q 23 803 22 792 q 36 832 24 815 q 46 850 43 840 q 51 869 49 860 q 74 922 60 897 q 108 968 89 946 q 133 982 121 982 q 158 969 146 982 q 165 947 165 961 q 164 936 165 943 q 160 896 160 918 q 164 883 161 888 q 176 876 167 878 q 190 872 183 874 q 204 865 197 869 m 449 865 q 485 834 472 853 q 497 792 497 815 q 497 786 497 789 q 482 740 496 758 q 444 710 468 722 q 399 700 418 700 q 369 702 383 701 q 342 706 356 703 q 298 724 315 710 q 274 755 281 738 q 267 789 267 772 q 267 803 267 792 q 281 832 268 815 q 290 850 288 840 q 296 869 293 860 q 319 922 304 897 q 353 968 333 946 q 377 981 364 981 q 401 969 390 981 q 409 957 408 963 q 410 949 410 951 q 408 936 410 943 q 404 896 404 918 q 421 876 404 878 q 435 872 428 874 q 449 865 442 869 z "},"\"":{"ha":394,"x_min":21,"x_max":374,"o":"m 163 979 q 192 963 186 971 q 197 946 197 954 q 193 928 197 939 q 176 861 182 894 q 168 793 169 828 q 165 753 165 774 q 164 714 165 733 q 140 694 164 694 q 108 698 124 694 q 78 710 92 701 q 49 742 54 724 q 33 792 40 767 q 22 843 25 817 q 21 867 21 856 q 23 897 21 879 q 36 939 25 915 q 67 976 49 967 q 111 986 85 986 q 125 986 118 986 q 163 979 144 986 m 339 979 q 368 963 363 971 q 374 946 374 954 q 369 928 374 939 q 352 861 358 894 q 344 793 346 828 q 342 753 342 774 q 340 714 342 733 q 317 694 340 694 q 284 698 300 694 q 254 710 268 701 q 225 742 231 724 q 209 792 217 767 q 199 843 201 817 q 197 867 197 856 q 199 897 197 879 q 213 939 201 915 q 243 976 225 967 q 288 986 261 986 q 301 986 294 986 q 339 979 321 986 z "},"":{"ha":304,"x_min":22,"x_max":282,"o":"m 272 739 q 282 688 282 713 q 261 625 282 660 q 176 581 240 590 q 163 579 169 579 q 154 579 157 579 q 53 616 85 579 q 22 696 22 653 q 25 728 22 711 q 45 786 32 760 q 82 833 58 813 q 94 851 90 842 q 111 875 99 865 q 154 894 133 894 q 196 875 175 894 q 218 850 208 864 q 236 821 228 836 q 256 781 247 801 q 272 739 264 760 m 176 664 q 197 683 197 667 q 196 692 197 688 q 139 771 185 739 q 128 744 132 757 q 122 715 125 731 q 122 707 122 711 q 134 674 122 686 q 165 663 146 663 q 176 664 171 663 z "},"":{"ha":361,"x_min":22,"x_max":338,"o":"m 322 844 q 338 786 338 819 q 338 776 338 782 q 310 681 338 719 q 233 619 283 643 q 197 609 211 610 q 181 608 182 608 q 133 616 157 608 q 87 639 108 624 q 50 676 65 654 q 26 727 31 704 q 22 767 22 750 q 25 799 22 782 q 38 832 29 815 q 92 871 58 871 q 108 868 100 871 q 165 800 163 853 l 165 764 q 167 746 165 754 q 192 722 172 722 q 200 724 196 722 q 238 756 226 729 q 247 784 244 769 q 251 814 249 799 q 253 823 253 818 q 254 833 253 828 q 285 864 261 858 q 292 864 289 864 q 322 844 311 864 z "},"":{"ha":329,"x_min":21,"x_max":307,"o":"m 307 689 q 307 681 307 685 q 293 644 307 658 q 272 633 282 633 q 251 647 261 633 q 239 672 243 660 l 189 765 q 164 719 175 740 q 142 678 153 697 q 133 661 138 669 q 121 646 128 653 q 79 626 101 626 q 56 632 68 626 q 21 686 24 646 q 22 703 21 694 q 28 721 24 713 q 60 786 42 754 q 103 846 79 818 q 129 867 115 861 q 163 876 147 876 q 196 863 179 876 q 239 825 218 844 q 275 781 260 806 q 307 689 301 738 z "},"":{"ha":318,"x_min":21,"x_max":297,"o":"m 268 868 q 290 855 282 865 q 297 833 297 844 q 297 829 297 831 q 290 804 297 818 q 253 724 274 763 q 204 651 233 685 q 163 632 186 632 q 147 633 156 632 q 118 647 129 638 q 60 710 85 675 q 25 788 36 744 q 21 815 21 803 q 38 851 21 838 q 90 868 54 865 q 93 868 92 868 q 109 861 103 868 q 122 846 115 854 l 178 769 q 183 762 181 765 q 193 756 186 758 l 221 822 q 222 826 222 825 q 224 829 222 828 l 229 842 q 232 847 232 847 q 260 869 242 869 q 268 868 264 869 z "},"":{"ha":429,"x_min":19,"x_max":407,"o":"m 389 876 q 407 833 407 868 q 381 747 397 790 q 328 668 365 703 q 291 644 306 646 q 274 643 276 643 q 225 658 250 643 q 200 676 213 667 q 175 696 188 686 q 131 711 154 711 q 117 710 124 711 q 79 686 90 706 q 76 683 79 686 l 69 674 q 46 661 58 661 q 35 664 40 661 q 23 675 26 668 q 19 688 19 682 q 21 696 19 692 q 58 790 32 747 q 131 861 83 833 q 179 876 154 876 q 199 875 183 876 q 242 854 215 874 q 244 851 243 853 l 283 821 q 286 818 285 819 q 306 808 300 808 q 310 809 307 808 q 322 825 313 810 q 347 863 333 844 q 376 879 361 879 q 389 876 382 879 z "},"":{"ha":282,"x_min":21,"x_max":261,"o":"m 260 796 q 261 783 261 789 q 246 758 261 767 q 163 702 201 733 q 81 644 124 671 q 53 633 63 633 q 44 635 50 633 q 26 661 38 638 q 22 676 24 672 l 21 690 q 30 733 24 714 q 51 771 36 753 q 144 853 90 818 q 185 865 164 865 q 204 863 189 865 q 238 839 219 861 q 260 796 253 822 z "},"`":{"ha":300,"x_min":19,"x_max":279,"o":"m 268 726 q 279 689 279 711 q 274 662 279 674 q 260 639 268 650 q 246 629 253 629 q 232 635 239 629 q 201 657 217 646 q 168 679 185 668 q 110 715 140 699 q 49 743 81 731 q 24 760 28 751 q 19 776 19 768 q 22 794 19 785 q 35 824 28 813 q 65 853 51 847 q 92 858 79 858 q 117 854 103 858 q 160 834 140 847 q 200 806 181 821 q 236 767 219 788 q 268 726 253 747 z "},"":{"ha":967,"x_min":21,"x_max":946,"o":"m 481 867 q 485 844 485 854 q 475 818 485 832 q 438 803 465 804 q 431 803 435 803 l 421 801 q 414 801 418 801 l 367 799 q 355 799 360 799 q 343 797 350 799 q 326 797 335 797 q 311 792 318 796 q 324 772 319 779 q 331 757 329 764 q 333 740 333 750 q 333 714 333 731 q 329 647 332 678 q 326 590 326 615 q 326 569 326 579 q 328 538 328 554 q 333 507 329 522 q 335 496 335 501 q 307 471 335 474 q 293 469 300 469 q 221 494 258 469 q 169 560 183 518 q 163 600 163 579 q 165 640 163 621 q 181 708 171 676 q 213 769 192 740 q 215 781 215 778 q 182 776 199 781 q 149 769 165 772 q 130 766 139 768 q 111 761 121 764 q 82 757 94 757 q 53 765 67 757 q 28 808 39 774 q 21 847 21 829 q 61 922 21 890 q 128 955 93 946 q 203 965 164 964 q 225 967 214 967 q 297 959 258 967 q 379 944 335 951 q 395 940 388 943 q 411 933 403 936 q 453 908 435 925 q 481 867 472 890 m 946 606 q 939 549 946 579 q 875 482 925 501 q 853 476 863 476 q 824 513 829 476 q 820 542 821 528 q 818 572 819 557 q 812 651 817 613 q 800 729 807 689 q 797 740 799 735 q 794 751 796 744 q 785 731 788 740 q 781 711 783 721 q 767 665 774 688 q 753 621 761 643 q 742 596 747 604 q 721 583 732 583 q 699 594 710 583 q 647 658 667 622 q 613 733 628 693 q 609 744 610 739 q 601 757 608 750 q 597 742 597 750 q 594 728 596 735 q 584 631 588 679 q 579 533 581 582 q 569 494 579 513 q 553 476 560 481 q 538 472 546 472 q 528 474 533 472 q 476 506 494 478 q 454 582 454 542 q 454 594 454 588 q 480 760 457 681 q 550 913 503 839 q 578 943 563 933 q 611 953 593 953 q 625 951 618 953 l 639 951 q 646 951 642 951 q 682 941 669 951 q 697 901 694 931 q 703 838 700 869 q 710 774 707 807 q 717 786 717 781 q 719 799 718 792 q 750 894 731 850 q 757 910 753 903 q 765 925 761 918 q 799 960 785 960 q 815 961 814 961 q 869 935 843 961 q 883 915 878 926 q 893 893 889 904 q 932 751 921 822 q 946 606 943 681 z "},"":{"ha":526,"x_min":22,"x_max":503,"o":"m 499 772 q 503 724 503 750 q 425 540 500 614 q 340 488 383 501 q 263 475 297 475 q 213 480 246 475 q 135 514 179 485 q 61 593 90 543 q 22 728 22 661 q 63 867 22 797 q 217 978 111 954 q 271 985 244 985 q 324 977 292 985 q 390 946 356 969 q 448 889 424 922 q 485 822 472 856 q 492 797 489 810 q 499 772 496 785 m 407 614 q 442 728 442 667 q 440 749 442 738 q 421 817 436 786 q 382 872 406 849 q 328 907 358 894 q 264 919 297 919 q 257 919 261 919 q 193 905 221 919 q 142 864 165 890 q 103 797 114 832 q 93 732 93 763 q 96 697 93 722 q 119 635 99 672 q 172 574 139 599 q 227 545 201 551 q 272 539 253 539 q 308 543 285 539 q 358 565 331 547 q 407 614 386 583 m 363 672 q 368 672 365 672 q 396 664 394 672 q 397 653 397 656 q 386 624 397 639 q 367 601 379 610 q 333 588 350 588 q 303 599 318 588 q 256 644 274 619 l 256 600 q 247 576 254 581 q 235 572 240 572 q 217 578 226 572 q 163 654 168 604 q 161 674 161 664 q 165 708 161 689 q 178 750 168 726 q 188 774 182 763 q 182 775 186 775 q 169 773 175 775 q 163 771 164 771 q 151 778 157 771 q 142 806 142 793 q 144 818 142 813 q 174 860 154 846 q 265 892 218 892 q 294 889 279 892 q 338 870 319 885 q 367 835 357 856 q 378 790 378 814 q 367 742 378 765 q 317 686 347 706 q 338 674 328 676 q 356 672 347 672 q 363 672 358 672 m 300 757 q 308 775 308 768 q 286 796 308 789 q 267 799 276 799 q 251 797 260 799 q 243 792 243 797 q 243 790 243 792 q 246 761 246 776 q 245 753 246 758 q 244 742 244 749 q 246 717 244 729 q 300 757 282 732 z "},"":{"ha":526,"x_min":24,"x_max":501,"o":"m 454 878 q 501 718 501 808 q 480 621 500 667 q 419 538 460 575 q 338 488 379 501 q 261 475 296 475 q 218 478 249 475 q 144 508 188 482 q 69 578 100 533 q 35 650 47 611 q 24 730 24 689 q 35 810 24 771 q 71 882 47 849 q 153 955 104 928 q 232 983 203 982 q 265 985 261 985 q 365 960 315 985 q 454 878 415 935 m 357 565 q 420 639 400 594 q 440 729 440 683 q 440 756 440 731 q 416 825 439 781 q 349 894 393 869 q 260 919 304 919 q 205 912 243 919 q 126 844 167 904 q 92 738 92 794 q 115 642 94 685 q 181 568 136 599 q 245 540 221 540 q 271 539 269 539 q 357 565 318 539 m 324 856 q 356 826 346 844 q 365 789 365 807 q 365 779 365 783 q 343 739 361 751 q 307 726 325 726 q 292 728 300 726 q 268 733 276 732 q 258 733 260 733 q 233 728 246 733 l 221 724 q 209 716 214 721 q 204 704 204 711 q 204 701 204 703 q 210 688 204 693 q 222 681 215 683 q 251 674 236 674 q 271 676 261 674 q 294 683 283 679 q 317 692 306 688 q 335 696 326 696 q 350 690 342 696 q 358 664 358 685 q 358 658 358 661 q 328 604 358 624 q 283 587 301 589 q 257 585 264 585 q 215 592 238 585 q 173 619 193 599 q 143 671 153 639 q 135 710 136 694 q 133 731 133 725 q 139 769 133 750 q 182 842 153 819 q 265 867 211 865 q 294 864 279 865 q 324 856 308 863 z "},"":{"ha":360,"x_min":17,"x_max":342,"o":"m 328 726 q 342 714 342 725 q 340 708 342 711 q 330 687 336 697 q 313 669 324 676 q 306 660 306 667 q 306 656 306 658 q 306 632 306 644 q 300 608 306 619 q 251 560 286 578 q 238 557 247 557 q 219 572 221 557 q 217 599 218 586 q 214 626 217 613 q 213 635 214 632 q 204 642 213 642 q 175 638 189 639 q 147 635 161 638 q 142 629 142 635 q 140 618 140 624 q 141 610 140 615 q 143 597 142 606 q 135 585 143 589 q 121 582 128 582 q 110 583 115 582 q 61 629 74 597 q 40 650 56 644 q 32 656 35 651 q 26 664 29 660 q 17 692 17 675 q 33 711 17 706 q 40 713 38 713 q 44 712 43 713 q 46 711 46 711 q 53 715 50 711 q 56 724 56 719 q 57 733 56 729 q 69 778 61 757 q 86 821 78 800 q 108 871 97 846 q 129 919 118 896 q 138 938 132 926 q 156 950 144 950 q 168 947 161 950 l 179 940 q 190 948 185 944 q 203 954 196 951 q 215 956 210 956 q 244 940 235 956 q 257 913 253 926 q 274 851 267 882 q 288 789 281 821 q 289 783 289 788 l 289 781 q 290 775 289 778 l 294 749 q 297 735 297 740 q 303 728 297 728 q 306 728 304 728 l 311 728 l 322 726 l 328 726 m 183 724 q 192 724 190 724 q 193 732 193 725 q 192 742 192 738 l 192 747 q 190 757 192 751 l 185 806 q 183 815 183 811 l 183 821 q 182 831 183 825 q 176 847 182 840 q 169 815 174 832 l 157 754 q 150 722 154 739 q 168 723 160 722 q 183 724 176 724 z "},"":{"ha":272,"x_min":24,"x_max":249,"o":"m 246 810 q 248 791 247 800 q 249 772 249 782 q 241 706 247 738 q 219 643 235 674 q 179 590 204 611 q 128 571 156 571 q 103 573 122 571 q 63 604 83 575 q 38 661 39 639 q 36 690 36 683 q 44 750 36 719 q 57 774 49 763 q 60 779 60 776 q 56 786 60 783 q 28 821 36 799 q 24 844 24 832 q 24 851 24 849 q 40 899 28 878 q 79 935 53 921 q 114 948 100 947 q 131 949 128 949 q 172 942 151 949 q 207 911 193 935 q 246 810 240 863 m 156 699 q 171 751 168 721 q 158 788 171 774 q 142 797 151 797 q 141 795 142 796 q 140 793 140 794 l 140 785 q 140 783 140 783 q 139 781 139 782 q 131 729 131 756 q 133 699 131 714 q 135 689 135 693 q 140 681 136 685 q 156 699 151 688 z "},"":{"ha":213,"x_min":22,"x_max":186,"o":"m 172 685 q 177 662 175 674 q 182 638 179 650 q 183 625 183 631 q 157 586 183 600 q 119 574 140 578 q 111 574 115 574 q 71 593 86 574 q 51 656 51 621 q 51 665 51 661 q 54 692 51 678 q 60 725 57 707 q 92 826 68 776 q 94 835 94 832 q 94 836 94 836 q 90 835 92 836 q 85 832 88 833 l 69 824 q 61 822 65 822 q 49 828 54 822 q 24 875 28 851 q 22 888 22 882 q 32 919 22 904 q 65 942 42 935 q 113 949 90 949 q 147 944 131 949 q 169 936 160 942 q 183 918 179 931 q 186 901 186 910 q 174 872 186 886 q 164 864 168 867 q 175 853 174 858 q 176 844 176 849 q 175 836 176 840 q 169 776 169 799 q 168 746 168 753 q 172 685 168 715 z "},"":{"ha":289,"x_min":24,"x_max":264,"o":"m 232 703 q 238 703 235 703 q 264 676 264 703 q 257 647 264 661 q 172 578 231 597 q 130 567 144 568 q 113 567 115 567 q 65 572 90 567 q 42 586 49 576 q 25 619 26 604 q 24 638 24 633 q 33 674 24 657 q 35 675 35 675 l 39 681 q 56 689 46 689 q 67 686 61 689 q 75 685 72 685 q 82 686 79 685 q 149 751 122 715 q 167 790 160 769 q 167 797 167 794 q 153 811 167 811 q 146 811 150 811 q 111 794 126 807 q 101 784 106 789 q 92 774 96 779 q 82 768 86 768 q 78 769 79 768 q 54 779 67 769 q 28 815 32 797 q 24 839 24 832 q 35 874 24 857 q 144 943 69 932 q 168 946 157 946 q 190 943 179 946 q 246 903 231 935 q 257 858 257 882 q 250 821 257 840 q 182 710 228 760 q 167 696 178 704 l 150 683 q 179 690 165 686 q 208 697 193 693 q 221 701 215 700 q 232 703 226 701 z "},"":{"ha":299,"x_min":24,"x_max":275,"o":"m 258 742 q 275 703 275 725 q 274 693 275 699 q 207 597 265 631 q 163 578 185 586 q 119 571 142 571 q 111 571 115 571 q 75 576 90 571 q 35 601 47 583 q 24 638 24 619 q 25 653 24 644 q 35 682 28 669 q 57 700 42 693 q 64 701 60 701 q 76 697 69 701 q 117 679 101 682 q 136 676 132 676 q 181 693 158 676 q 194 714 194 703 q 192 725 194 719 q 181 736 189 732 q 167 740 174 740 q 158 739 163 740 l 154 739 l 146 736 l 142 736 q 129 735 136 735 q 117 736 124 735 q 106 746 106 739 q 110 756 106 750 q 124 765 115 763 q 151 774 136 771 q 168 783 164 774 q 171 786 169 785 l 175 794 q 178 797 176 796 q 182 808 182 803 q 178 818 182 813 q 161 825 174 824 q 117 811 138 825 q 107 804 111 808 q 99 797 103 800 q 90 792 94 793 q 85 792 86 792 q 75 794 79 792 q 41 826 49 806 q 33 858 33 846 q 39 883 33 871 q 79 925 53 911 q 127 945 106 940 q 164 950 149 950 q 193 947 178 950 q 243 924 225 943 q 265 876 261 906 q 267 860 267 868 q 236 788 267 818 q 228 779 232 783 q 218 768 224 775 q 258 742 240 763 z "},"":{"ha":1072,"x_min":18,"x_max":1001,"o":"m 268 539 q 203 489 236 501 q 143 476 169 476 q 103 481 124 476 q 38 522 57 492 q 18 586 18 551 q 19 608 18 597 q 22 618 21 614 l 26 638 q 29 647 28 643 q 38 674 35 663 q 42 696 42 686 q 40 708 42 701 q 40 713 40 710 q 43 723 40 717 q 49 736 46 729 q 69 772 57 756 q 97 804 82 789 q 128 820 111 819 q 161 822 144 821 q 165 822 163 822 q 226 796 200 822 q 264 753 246 775 q 293 704 282 731 q 308 636 308 669 q 268 539 308 583 m 551 817 q 571 821 561 821 q 600 806 588 821 q 639 744 628 774 q 650 692 650 715 q 644 654 650 674 q 629 624 639 638 q 607 597 619 610 q 508 499 557 549 q 413 396 460 449 q 351 327 381 361 q 289 257 321 293 q 228 178 256 219 q 175 92 200 136 q 147 25 156 58 q 133 3 142 6 q 121 0 125 0 q 100 11 111 0 q 72 78 72 35 q 76 101 72 89 q 82 125 79 113 q 168 318 114 225 q 290 508 228 414 q 424 690 351 603 q 510 789 463 740 q 551 817 526 807 m 129 633 q 118 609 122 619 q 114 592 114 599 q 117 575 114 583 q 135 560 121 560 q 138 560 136 560 q 165 569 156 560 q 183 594 183 581 q 168 618 183 606 l 142 635 q 135 638 138 638 q 129 633 132 638 m 518 347 q 639 190 613 292 q 644 149 644 168 q 624 75 644 115 q 551 11 604 35 q 512 -1 532 4 q 472 -7 492 -6 q 408 8 438 -7 q 360 46 379 22 q 334 94 340 69 q 328 136 328 119 q 331 167 328 151 q 379 274 343 225 q 392 293 386 283 q 406 314 399 303 q 444 353 422 347 q 475 360 465 360 q 518 347 497 360 m 996 190 q 1001 149 1001 168 q 981 75 1001 115 q 908 11 961 35 q 869 -1 889 4 q 829 -7 850 -6 q 765 8 794 -7 q 717 46 736 22 q 691 94 697 69 q 685 136 685 119 q 688 167 685 151 q 736 274 700 225 q 749 293 743 283 q 763 314 756 303 q 801 353 779 347 q 832 360 822 360 q 875 347 854 360 q 996 190 972 292 m 500 136 q 501 144 501 140 q 479 174 501 161 q 460 183 469 179 q 439 189 450 186 q 433 190 436 190 q 424 181 425 190 q 420 158 421 167 q 419 146 419 150 q 421 129 419 138 q 431 107 425 113 q 456 101 438 101 l 463 101 q 500 136 493 106 m 857 136 q 858 144 858 140 q 836 174 858 161 q 817 183 826 179 q 796 189 807 186 q 790 190 793 190 q 781 181 782 190 q 777 158 778 167 q 776 146 776 150 q 778 129 776 138 q 788 107 782 113 q 813 101 794 101 l 819 101 q 857 136 850 106 z "},"":{"ha":611,"x_min":14,"x_max":590,"o":"m 47 731 q 32 753 39 742 q 22 778 25 764 q 21 790 21 783 q 31 822 21 806 q 65 844 42 838 q 113 851 89 851 q 147 847 131 851 q 168 839 158 844 q 183 821 178 833 q 186 804 186 813 q 174 775 186 789 q 172 775 174 775 l 165 769 q 163 767 165 769 q 174 756 172 761 q 175 747 175 751 q 174 739 175 743 q 167 679 168 701 q 167 650 167 657 q 172 588 167 619 q 176 565 174 576 q 182 540 179 553 q 183 528 183 535 q 157 489 183 503 q 119 476 139 481 q 110 476 114 476 q 71 496 83 476 q 50 558 50 524 q 53 593 50 576 q 58 628 56 610 q 90 729 68 679 q 93 738 93 735 q 93 739 93 739 q 88 738 90 739 q 83 735 86 736 l 68 726 q 60 725 64 725 q 47 731 53 725 m 540 806 q 580 745 569 774 q 590 694 590 717 q 585 654 590 675 q 571 624 581 638 q 549 597 561 610 q 450 499 499 549 q 353 396 401 449 q 231 257 292 329 q 169 178 197 219 q 117 92 140 136 q 88 25 99 61 q 74 3 82 6 q 63 0 65 0 q 40 11 51 0 q 14 74 14 36 q 14 78 14 76 q 17 101 14 89 q 24 125 19 113 q 110 318 53 225 q 230 508 168 414 q 364 690 292 603 q 406 740 385 715 q 450 789 426 765 q 493 817 471 810 q 511 821 503 821 q 540 806 528 821 m 531 122 q 538 122 535 122 q 563 96 563 122 q 556 67 563 83 q 469 -3 529 17 q 428 -12 443 -11 q 411 -12 414 -12 q 364 -7 389 -12 q 340 7 350 -6 q 324 39 325 24 q 322 58 322 54 q 332 94 322 79 l 336 100 q 354 108 344 108 q 365 106 360 108 q 372 103 369 104 q 374 103 374 103 q 381 107 376 103 q 447 172 417 133 q 464 211 460 189 q 465 219 465 215 q 450 231 465 231 q 443 231 447 231 q 425 225 433 229 q 410 214 417 221 l 389 193 q 379 189 385 189 q 376 189 378 189 q 364 193 369 190 q 353 199 358 196 q 326 234 331 217 q 322 258 322 251 q 333 293 322 276 q 442 363 368 351 q 465 365 454 365 q 489 363 478 365 q 544 324 528 356 q 554 279 554 301 q 547 240 554 260 q 519 182 536 210 q 481 129 503 154 q 465 116 474 122 q 447 103 456 110 q 477 109 463 106 q 507 117 492 113 q 531 122 517 119 z "},"":{"ha":608,"x_min":14,"x_max":590,"o":"m 47 731 q 32 753 39 742 q 22 778 25 764 q 21 790 21 783 q 31 822 21 806 q 65 844 42 838 q 113 851 89 851 q 147 847 131 851 q 168 839 158 844 q 183 821 178 833 q 186 804 186 813 q 174 775 186 789 q 172 775 174 775 l 165 769 q 163 767 165 769 q 174 756 172 761 q 175 747 175 751 q 174 739 175 743 q 167 679 168 701 q 167 650 167 657 q 172 588 167 619 q 176 565 174 576 q 182 540 179 553 q 183 528 183 535 q 157 489 183 503 q 119 476 139 481 q 110 476 114 476 q 71 496 83 476 q 50 558 50 524 q 53 593 50 576 q 58 628 56 610 q 72 680 64 654 q 90 729 79 706 q 93 738 93 735 q 93 739 93 739 q 88 738 90 739 q 83 735 86 736 l 68 726 q 60 725 64 725 q 47 731 53 725 m 540 806 q 580 744 569 774 q 590 693 590 715 q 585 654 590 675 q 571 624 581 638 q 549 597 561 610 q 450 499 499 549 q 353 396 401 449 q 231 257 292 329 q 169 178 197 219 q 117 92 140 136 q 88 25 99 61 q 74 3 82 6 q 63 0 65 0 q 40 11 51 0 q 14 74 14 36 q 14 78 14 76 q 17 101 14 89 q 24 125 19 113 q 110 318 53 225 q 230 508 168 414 q 364 690 292 603 q 406 740 385 715 q 450 789 426 765 q 493 817 471 810 q 511 821 503 821 q 540 806 528 821 m 522 183 q 531 185 526 185 q 543 176 539 185 q 546 158 546 168 q 540 142 546 149 q 515 117 532 125 q 508 106 508 114 q 508 101 508 104 q 518 64 511 82 q 535 29 525 46 q 539 18 539 21 q 531 10 539 15 q 508 -3 519 3 q 483 -10 497 -8 q 475 -10 479 -10 q 421 29 435 -10 q 417 50 418 40 q 415 67 415 60 q 415 76 415 72 l 415 83 q 417 88 417 86 q 415 91 417 90 q 407 92 414 92 q 390 92 399 92 q 371 94 381 93 q 319 127 338 101 q 301 178 301 153 q 303 193 301 186 q 319 246 307 221 q 389 335 347 297 q 406 347 397 342 q 422 358 414 353 q 449 365 433 365 q 468 363 454 365 q 493 343 482 360 q 511 292 511 318 q 511 286 511 289 q 499 268 511 274 q 474 252 486 261 q 451 233 463 243 q 431 199 436 218 q 429 189 429 194 q 431 179 429 185 q 439 172 433 172 q 444 178 442 172 q 454 193 449 186 q 467 207 460 200 q 479 217 471 213 q 489 219 485 219 q 506 204 500 219 l 506 200 l 507 192 l 507 188 q 506 183 507 185 q 506 181 506 182 q 508 176 506 179 q 510 177 510 176 q 511 178 510 178 l 519 182 q 521 183 521 182 q 522 183 521 183 z "},"":{"ha":658,"x_min":21,"x_max":639,"o":"m 108 474 q 72 479 88 474 q 33 504 44 486 q 21 540 21 522 q 22 556 21 547 q 33 585 25 572 q 54 603 39 594 q 61 604 57 604 q 74 600 67 604 q 114 582 99 585 q 133 579 129 579 q 178 596 156 579 q 192 617 192 606 q 189 628 192 622 q 178 639 186 635 q 164 643 171 643 q 156 642 160 643 l 151 642 l 143 639 l 139 639 q 126 638 133 638 q 114 639 121 638 q 103 649 103 642 q 107 658 103 653 q 121 668 113 665 q 149 676 133 674 q 165 686 161 676 q 168 689 167 688 l 172 697 q 175 700 174 699 q 179 711 179 706 q 175 721 179 715 q 158 728 171 726 q 114 714 135 728 q 104 707 108 711 q 96 700 100 703 q 88 695 92 696 q 82 694 83 694 q 72 697 76 694 q 39 728 47 708 q 31 761 31 749 q 36 786 31 775 q 76 828 50 814 q 124 848 103 843 q 161 853 146 853 q 190 850 175 853 q 240 827 222 846 q 263 779 258 808 q 264 763 264 771 q 233 690 264 721 q 225 682 229 686 q 215 671 221 678 q 256 644 238 665 q 272 606 272 628 q 271 596 272 601 q 204 500 263 533 q 160 481 182 489 q 117 474 139 474 q 108 474 113 474 m 589 806 q 628 745 618 774 q 639 694 639 717 q 633 654 639 675 q 619 624 629 638 q 597 597 610 610 q 499 499 547 549 q 403 396 450 449 q 341 327 371 361 q 279 257 311 293 q 218 178 246 219 q 165 92 190 136 q 136 25 147 61 q 124 3 132 6 q 111 0 115 0 q 90 11 101 0 q 63 78 63 35 q 65 101 63 89 q 72 125 68 113 q 109 224 88 175 q 158 318 131 272 q 279 508 217 414 q 413 690 342 603 q 454 740 433 715 q 499 789 475 765 q 542 817 518 808 q 561 821 551 821 q 589 806 578 821 m 572 183 q 581 185 576 185 q 592 176 588 185 q 596 161 596 168 q 589 142 596 151 q 564 117 581 125 q 557 106 557 114 q 557 101 557 104 q 567 64 560 82 q 583 29 574 46 q 589 18 589 22 q 588 17 589 18 q 579 10 588 15 q 557 -3 568 3 q 532 -10 546 -8 q 524 -10 528 -10 q 469 29 483 -10 q 464 78 464 50 l 465 82 q 465 90 465 89 q 457 92 464 92 q 438 92 447 92 q 421 94 429 93 q 368 127 386 101 q 350 178 350 153 q 351 193 350 186 q 358 220 354 207 q 369 246 363 233 q 438 335 394 296 q 454 347 446 342 q 471 358 463 353 q 497 365 482 365 q 517 363 503 365 q 543 343 531 360 q 555 319 550 332 q 560 292 560 307 q 560 286 560 289 q 547 268 560 274 q 523 252 535 261 q 500 233 511 243 q 479 199 485 218 q 478 189 478 194 q 479 179 478 185 q 488 172 482 172 q 493 178 490 172 q 503 193 497 186 q 515 207 508 200 q 528 217 519 211 q 538 219 533 219 q 554 204 549 219 q 556 188 556 199 q 555 183 556 185 q 554 181 554 182 q 557 176 554 179 q 564 180 560 179 q 572 183 568 181 z "},"":{"ha":576,"x_min":13,"x_max":589,"o":"m 525 342 q 575 318 561 339 q 589 276 589 297 q 585 249 589 264 q 568 210 579 228 q 542 178 557 193 q 417 83 489 122 q 256 21 339 39 q 217 15 235 15 q 144 42 179 15 q 99 139 110 69 q 93 197 93 168 q 99 254 93 226 q 110 282 101 274 q 138 293 118 290 q 154 298 153 296 q 156 303 156 300 q 153 318 156 308 q 132 414 140 367 q 92 406 113 411 q 69 403 79 403 q 44 409 57 403 q 21 442 32 415 q 13 484 13 461 q 22 528 13 507 q 49 568 31 550 q 96 594 68 586 q 107 598 101 597 q 119 601 113 599 q 120 649 119 625 q 122 697 121 674 q 133 783 125 742 q 158 865 142 825 q 198 929 174 903 q 258 965 222 956 q 303 971 282 971 q 322 970 307 971 q 364 964 338 969 q 413 906 413 954 q 408 876 413 893 q 380 742 393 810 q 354 607 367 675 q 370 606 363 607 q 385 604 378 606 q 454 574 433 597 q 475 506 475 550 q 474 492 475 499 q 472 479 474 486 q 453 448 465 457 q 417 438 442 439 q 371 435 393 435 q 325 433 349 435 l 308 325 q 307 317 307 321 q 311 307 307 313 q 376 317 343 310 q 440 332 408 325 q 482 338 461 335 q 525 342 503 342 z "},"":{"ha":589,"x_min":13,"x_max":600,"o":"m 535 299 q 585 278 571 297 q 600 239 600 260 q 596 215 600 228 q 553 150 585 179 q 494 103 525 124 q 428 64 463 82 q 267 7 349 24 q 231 3 247 3 q 156 27 192 3 q 108 114 119 51 q 104 164 104 139 q 110 221 104 193 q 121 246 113 239 q 147 256 129 253 q 164 260 163 258 q 165 264 165 263 q 163 279 165 269 q 152 319 157 299 q 143 361 147 340 q 118 356 131 358 q 92 350 106 353 q 69 347 79 347 q 44 353 57 347 q 21 386 32 360 q 13 428 13 406 q 22 473 13 451 q 49 513 31 494 q 96 539 68 531 q 104 542 100 540 l 121 546 q 129 549 125 547 q 131 586 131 568 q 133 624 131 604 q 168 776 138 706 q 208 835 183 811 q 269 868 232 858 q 314 874 292 874 q 333 873 318 874 q 375 867 349 872 q 424 813 424 857 q 419 786 424 801 q 392 669 404 728 q 367 550 379 610 q 376 549 372 550 q 385 549 381 549 q 454 518 433 542 q 475 450 475 494 q 474 437 475 443 q 472 424 474 431 q 453 392 465 401 q 417 382 442 383 q 376 380 397 381 q 335 379 356 379 q 333 372 335 376 l 332 363 q 331 356 332 360 l 324 308 q 322 301 324 306 l 321 292 q 319 285 321 289 q 318 278 318 281 q 321 268 318 272 q 387 278 354 271 q 451 290 419 285 q 490 297 472 294 q 521 299 507 299 q 535 299 528 299 z "},"":{"ha":272,"x_min":24,"x_max":249,"o":"m 246 810 q 248 791 247 800 q 249 772 249 782 q 241 706 247 738 q 219 643 235 674 q 179 590 204 611 q 128 571 156 571 q 103 573 122 571 q 63 604 83 575 q 38 661 39 639 q 36 690 36 683 q 44 750 36 719 q 57 774 49 763 q 60 779 60 776 q 56 786 60 783 q 28 821 36 799 q 24 844 24 832 q 24 851 24 849 q 40 899 28 878 q 79 935 53 921 q 114 948 100 947 q 131 949 128 949 q 172 942 151 949 q 207 911 193 935 q 246 810 240 863 m 156 699 q 171 751 168 721 q 158 788 171 774 q 142 797 151 797 q 141 795 142 796 q 140 793 140 794 l 140 785 q 140 783 140 783 q 139 781 139 782 q 131 729 131 756 q 133 699 131 714 q 135 689 135 693 q 140 681 136 685 q 156 699 151 688 z "},"^":{"ha":525,"x_min":21,"x_max":503,"o":"m 422 585 q 403 579 408 579 q 399 580 401 579 q 385 596 396 581 q 257 758 331 679 q 247 769 251 764 q 233 776 242 774 q 203 744 218 761 q 175 707 188 726 q 134 656 156 679 q 93 606 113 632 q 88 599 90 601 q 83 597 86 597 q 78 600 81 597 q 49 617 63 608 q 29 642 36 626 q 22 661 22 654 q 21 668 21 668 q 29 693 21 681 q 120 817 69 760 q 233 921 171 875 q 278 938 256 938 q 318 924 299 938 q 411 847 368 888 q 489 756 454 806 q 503 707 503 735 q 503 699 503 703 q 422 585 494 618 z "},".":{"ha":285,"x_min":29,"x_max":261,"o":"m 244 153 q 261 110 261 133 q 258 88 261 106 q 232 51 256 71 q 184 25 210 32 q 131 18 158 18 q 122 18 126 18 q 64 36 89 18 q 37 66 44 49 q 29 100 29 83 q 30 114 29 103 q 42 142 31 125 q 74 169 53 160 q 117 188 92 178 q 150 194 132 194 q 186 190 168 194 q 219 175 204 185 q 244 153 235 165 z "},",":{"ha":299,"x_min":38,"x_max":268,"o":"m 193 196 q 237 178 219 192 q 261 147 254 164 q 268 113 268 129 q 267 98 268 110 q 254 69 267 86 q 246 51 249 61 q 240 32 243 42 q 217 -20 232 4 q 183 -67 203 -44 q 160 -81 172 -81 q 151 -80 158 -81 q 133 -68 144 -79 q 125 -47 125 -60 q 126 -36 125 -42 q 131 -18 129 -25 q 132 -6 132 -11 q 131 6 132 0 q 114 25 131 24 q 86 36 97 29 q 50 67 63 49 q 38 110 38 86 q 38 115 38 113 q 53 161 39 143 q 92 192 68 179 q 114 199 103 196 q 138 201 125 201 q 166 199 153 200 q 193 196 179 199 z "},"'":{"ha":218,"x_min":21,"x_max":197,"o":"m 163 979 q 192 963 186 971 q 197 946 197 954 q 193 928 197 939 q 176 861 182 894 q 168 793 169 828 q 165 753 165 774 q 164 714 165 733 q 140 694 164 694 q 108 698 124 694 q 78 710 92 701 q 49 742 54 724 q 33 792 40 767 q 22 843 25 817 q 21 867 21 856 q 23 897 21 879 q 36 939 25 915 q 67 976 49 967 q 111 986 85 986 q 125 986 118 986 q 163 979 144 986 z "},"":{"ha":275,"x_min":22,"x_max":253,"o":"m 204 865 q 240 834 228 853 q 253 792 253 815 q 253 786 253 789 q 238 740 251 758 q 200 710 224 722 q 154 700 174 700 q 125 702 139 701 q 99 706 111 703 q 55 724 72 710 q 30 755 38 738 q 22 789 22 772 q 23 803 22 792 q 36 832 24 815 q 46 850 43 840 q 51 869 49 860 q 74 922 60 897 q 108 968 89 946 q 133 982 121 982 q 158 969 146 982 q 165 947 165 961 q 164 936 165 943 q 160 896 160 918 q 164 883 161 888 q 176 876 167 878 q 190 872 183 874 q 204 865 197 869 z "},"":{"ha":275,"x_min":22,"x_max":253,"o":"m 176 976 q 220 957 203 971 q 245 926 238 943 q 253 893 253 910 q 252 878 253 890 q 239 849 251 867 q 229 831 232 840 q 224 811 226 821 q 201 759 215 783 q 167 714 186 735 q 142 700 156 700 q 117 711 128 700 q 110 733 110 719 q 111 744 110 739 q 115 785 115 764 q 99 806 115 801 q 85 810 92 807 q 71 815 78 813 q 35 847 47 829 q 22 889 22 865 q 22 894 22 892 q 38 941 24 922 q 75 971 51 960 q 121 981 96 981 q 150 979 136 979 q 176 976 164 979 z "},"":{"ha":519,"x_min":22,"x_max":497,"o":"m 176 194 q 220 175 203 189 q 245 144 238 161 q 253 111 253 128 q 252 97 253 108 q 239 67 251 85 q 229 49 232 58 q 224 29 226 39 q 201 -23 215 1 q 167 -68 186 -47 q 142 -82 156 -82 q 117 -71 128 -82 q 110 -49 110 -62 q 111 -37 110 -44 q 115 3 115 -19 q 99 24 115 19 q 85 28 92 25 q 71 33 78 31 q 35 65 47 47 q 22 107 22 83 q 22 113 22 110 q 38 159 24 140 q 75 189 51 178 q 121 199 96 199 q 150 197 136 197 q 176 194 164 197 m 421 194 q 465 175 447 189 q 490 144 482 161 q 497 111 497 128 q 497 97 497 108 q 483 67 496 85 q 474 49 476 58 q 468 29 471 39 q 445 -23 460 1 q 411 -68 431 -47 q 386 -82 400 -82 q 361 -71 372 -82 q 353 -59 354 -64 q 353 -53 353 -54 q 356 -37 353 -46 q 360 3 360 -19 q 356 16 358 11 q 343 24 353 21 q 329 28 336 25 q 315 33 322 31 q 279 65 292 47 q 267 107 267 83 q 267 113 267 110 q 282 159 268 140 q 319 189 296 178 q 365 199 340 199 q 394 197 381 197 q 421 194 408 197 z "},"":{"ha":275,"x_min":22,"x_max":253,"o":"m 176 194 q 220 175 203 189 q 245 144 238 161 q 253 111 253 128 q 252 97 253 108 q 239 67 251 85 q 229 49 232 58 q 224 29 226 39 q 201 -23 215 1 q 167 -68 186 -47 q 142 -82 156 -82 q 117 -71 128 -82 q 110 -49 110 -62 q 111 -37 110 -44 q 115 3 115 -19 q 99 24 115 19 q 85 28 92 25 q 71 33 78 31 q 35 65 47 47 q 22 107 22 83 q 22 113 22 110 q 38 159 24 140 q 75 189 51 178 q 121 199 96 199 q 150 197 136 197 q 176 194 164 197 z "},"":{"ha":579,"x_min":22,"x_max":556,"o":"m 453 519 q 531 483 507 513 q 556 397 556 454 q 551 365 556 381 q 531 326 544 338 q 489 313 517 315 q 399 309 444 310 q 310 304 354 308 q 212 293 261 300 q 114 275 163 286 q 86 271 99 271 q 58 278 72 271 q 32 318 44 286 q 22 372 22 343 q 33 426 22 400 q 65 474 43 453 q 118 507 86 496 q 199 527 163 522 q 267 532 236 532 q 297 531 282 532 q 375 526 336 528 q 453 519 414 524 z "},"":{"ha":468,"x_min":21,"x_max":446,"o":"m 415 596 q 442 560 439 579 q 446 533 446 542 q 435 496 446 513 q 410 482 425 482 q 400 483 406 482 q 360 487 376 486 q 336 488 344 488 q 304 486 319 488 q 289 471 289 486 q 288 460 289 465 q 288 449 288 456 l 286 404 q 285 394 286 399 q 285 382 285 389 q 271 351 283 358 q 249 343 258 343 q 228 347 239 343 q 199 365 210 353 q 179 392 188 376 q 169 422 172 407 q 164 453 165 436 q 160 467 163 465 q 156 468 158 468 q 143 467 151 468 l 83 456 q 69 454 76 454 q 28 486 40 454 q 24 518 24 501 q 41 576 24 550 q 88 614 58 601 q 113 622 100 618 q 139 628 125 625 q 155 633 153 631 q 160 649 157 635 q 165 679 163 664 q 175 710 168 694 q 236 756 192 750 q 270 755 254 756 q 301 746 286 754 q 326 708 326 732 q 324 692 326 700 l 311 644 q 308 629 308 635 q 310 626 308 628 q 326 622 311 624 q 347 620 338 621 q 364 617 356 619 q 392 608 379 614 q 415 596 404 603 m 349 310 q 426 217 426 300 q 424 193 426 207 q 408 163 418 171 q 375 153 397 154 q 308 149 342 150 q 239 146 274 149 q 165 138 203 143 q 90 124 126 133 q 69 121 79 121 q 49 127 60 121 q 28 157 39 133 q 21 198 21 176 q 29 239 21 219 q 53 275 38 258 q 94 300 69 292 q 207 318 147 318 q 231 318 219 318 q 290 315 260 317 q 349 310 319 314 z "},"":{"ha":510,"x_min":21,"x_max":488,"o":"m 385 621 q 392 621 389 621 q 454 597 425 621 q 488 536 483 574 q 488 529 488 532 q 464 493 488 507 q 412 457 436 478 q 364 415 388 436 q 356 401 356 408 q 363 389 356 396 l 432 294 q 444 261 444 278 q 439 238 444 254 q 404 211 433 221 q 368 203 386 203 q 351 204 364 203 q 318 215 339 206 q 251 264 278 235 q 235 275 240 275 q 217 260 229 275 q 192 229 204 244 q 167 199 181 214 q 121 172 146 172 q 86 183 104 172 q 53 213 67 194 q 24 269 26 244 q 21 300 21 293 q 38 363 21 333 q 57 392 46 378 q 79 419 68 406 q 92 438 92 433 q 82 458 92 443 q 61 495 71 476 q 46 533 51 514 q 40 567 40 551 q 44 592 40 576 q 69 631 47 608 q 103 659 86 646 q 143 676 121 672 q 160 678 153 678 q 188 671 176 678 q 211 640 200 664 q 215 634 214 638 q 218 626 215 631 l 232 597 q 235 590 235 594 q 239 582 236 586 q 249 562 247 563 q 251 561 251 561 q 274 572 257 561 l 315 599 q 349 614 332 608 q 385 621 365 619 z "},"":{"ha":579,"x_min":22,"x_max":556,"o":"m 256 565 q 225 572 243 565 q 190 596 207 579 q 163 657 163 624 q 165 685 163 663 q 206 732 168 708 q 288 757 249 757 q 358 732 325 757 q 390 694 382 714 q 397 663 397 675 q 392 636 397 650 q 376 610 386 621 q 354 590 367 600 q 312 572 336 579 q 256 565 288 565 m 453 519 q 531 483 507 513 q 556 397 556 454 q 551 365 556 381 q 531 326 544 338 q 489 313 517 315 q 399 309 444 310 q 310 304 354 308 q 212 293 261 300 q 114 275 163 286 q 86 271 99 271 q 58 278 72 271 q 32 318 44 286 q 22 372 22 343 q 33 426 22 400 q 65 474 43 453 q 118 507 86 496 q 199 527 163 522 q 267 532 236 532 q 297 531 282 532 q 375 526 336 528 q 453 519 414 524 m 383 226 q 400 183 400 207 q 397 162 400 179 q 371 125 394 144 q 323 99 349 106 q 269 92 297 92 q 261 92 265 92 q 203 110 228 92 q 176 140 183 122 q 168 174 168 157 q 169 188 168 176 q 181 216 169 199 q 213 243 192 233 q 256 261 231 251 q 289 268 271 268 q 325 263 307 268 q 358 249 343 258 q 383 226 374 239 z "},"_":{"ha":579,"x_min":22,"x_max":556,"o":"m 453 242 q 531 206 507 235 q 556 119 556 176 q 551 88 556 103 q 531 49 544 60 q 489 35 517 38 q 399 31 444 32 q 310 26 354 31 q 212 15 261 22 q 114 -3 163 8 q 86 -7 99 -7 q 58 1 72 -7 q 32 40 44 8 q 22 94 22 65 q 33 149 22 122 q 65 197 43 175 q 118 229 86 218 q 199 249 163 244 q 267 254 236 254 q 297 253 282 254 q 375 248 336 250 q 453 242 414 246 z "},"":{"ha":349,"x_min":22,"x_max":328,"o":"m 322 550 q 328 532 328 538 q 326 526 328 529 q 313 514 325 524 q 241 455 276 486 q 174 389 206 424 q 165 378 169 383 q 157 365 160 374 q 185 335 171 350 q 214 306 199 319 q 258 264 238 286 q 299 222 278 242 q 306 213 306 218 q 304 207 306 210 q 289 178 297 192 q 268 158 281 165 q 251 152 257 153 q 244 151 244 151 q 224 160 233 151 q 121 253 168 201 q 35 368 74 304 q 22 413 22 390 q 33 453 22 433 q 179 621 96 556 q 217 635 196 635 q 228 633 222 635 q 322 550 297 625 z "},"":{"ha":350,"x_min":21,"x_max":328,"o":"m 314 401 q 328 356 328 378 q 315 315 328 335 q 249 224 285 267 q 169 147 214 182 q 132 133 153 133 q 122 135 128 133 q 26 218 56 143 q 21 236 21 231 q 22 242 21 239 q 38 254 24 244 q 176 379 108 308 q 185 390 181 385 q 193 403 190 394 q 165 434 179 418 q 135 463 150 450 q 92 504 111 482 q 50 546 72 526 q 46 551 47 549 q 44 556 44 554 q 46 563 44 558 q 60 590 53 576 q 82 610 68 603 q 99 616 93 615 q 106 617 104 617 q 125 608 115 617 q 229 515 182 567 q 314 401 276 464 z "},"":{"ha":626,"x_min":22,"x_max":606,"o":"m 322 550 q 328 532 328 538 q 326 526 328 529 q 313 514 325 524 q 241 455 276 486 q 174 389 206 424 q 165 378 169 383 q 157 365 160 374 q 185 335 171 350 q 214 306 199 319 q 258 264 238 286 q 299 222 278 242 q 306 213 306 218 q 304 207 306 210 q 289 178 297 192 q 268 158 281 165 q 251 152 257 153 q 244 151 244 151 q 224 160 233 151 q 121 253 168 201 q 35 368 74 304 q 22 413 22 390 q 33 453 22 433 q 179 621 96 556 q 217 635 196 635 q 228 633 222 635 q 322 550 297 625 m 600 550 q 606 532 606 538 q 604 526 606 529 q 590 514 603 524 q 519 455 554 486 q 451 389 483 424 q 442 378 447 383 q 435 365 438 374 q 463 335 449 350 q 493 306 476 319 q 536 264 517 286 q 576 222 556 242 q 583 213 583 218 q 582 207 583 210 q 567 178 575 192 q 546 158 558 165 q 528 152 535 153 q 522 151 522 151 q 501 160 511 151 q 399 253 446 201 q 313 368 351 304 q 300 411 300 390 q 313 453 300 433 q 457 621 372 554 q 494 635 474 635 q 506 633 500 635 q 600 550 575 625 z "},"":{"ha":626,"x_min":21,"x_max":606,"o":"m 304 235 q 299 253 299 247 q 300 258 299 256 q 314 271 301 261 q 385 330 350 299 q 453 396 421 361 q 462 406 457 401 q 469 419 467 411 q 442 450 456 435 q 411 479 428 465 q 368 521 388 499 q 328 563 349 543 q 321 572 321 568 q 322 578 321 575 q 338 606 329 593 q 358 626 346 619 q 376 633 369 632 q 382 633 382 633 q 403 625 393 633 q 506 532 458 583 q 592 417 553 481 q 606 374 606 394 q 592 332 606 353 q 447 164 532 231 q 410 150 431 150 q 399 151 404 150 q 304 235 329 160 m 26 235 q 21 254 21 249 q 22 258 21 256 q 36 271 22 261 q 108 330 72 299 q 175 396 143 361 q 184 406 179 401 q 192 419 189 411 q 163 450 178 435 q 133 479 149 465 q 90 521 110 499 q 49 563 71 543 q 44 568 46 565 q 43 572 43 571 q 44 578 43 575 q 60 606 51 593 q 81 626 68 619 q 97 633 92 632 q 104 633 103 633 q 124 625 114 633 q 228 532 181 583 q 313 417 275 481 q 326 372 326 394 q 314 332 326 351 q 169 164 254 231 q 131 150 150 150 q 121 151 126 150 q 26 235 51 160 z "},"":{"ha":328,"x_min":38,"x_max":322,"o":"m 79 708 q 40 753 43 732 q 38 778 38 774 q 64 836 38 808 q 117 868 83 856 q 186 881 150 881 q 189 881 188 881 q 268 842 235 881 q 289 790 289 818 q 288 776 289 790 q 267 735 288 761 q 233 712 257 722 q 185 697 208 701 q 142 693 161 693 q 115 694 133 693 q 79 708 97 696 m 172 642 q 190 624 182 633 q 206 603 199 614 q 275 472 244 539 q 317 331 306 406 q 319 318 318 324 q 319 306 319 313 q 322 289 321 297 q 322 275 322 281 q 288 126 322 192 q 251 81 274 100 q 203 49 229 61 q 158 36 176 38 q 133 35 140 35 q 92 40 113 35 q 51 64 60 50 q 42 94 42 78 q 44 118 42 106 q 83 344 71 231 q 100 574 96 457 q 102 599 101 586 q 107 625 103 613 q 127 649 114 646 q 146 653 140 653 q 172 642 160 653 z "},"":{"ha":563,"x_min":33,"x_max":547,"o":"m 207 697 q 181 724 190 708 q 169 751 171 740 q 168 765 168 761 q 174 794 168 779 q 194 824 181 810 q 241 854 215 844 q 294 865 267 864 q 344 856 322 864 q 386 828 367 847 q 413 768 413 801 q 412 748 413 767 q 379 704 411 729 q 315 672 339 672 q 289 671 292 671 q 207 697 247 671 m 82 90 q 38 155 43 126 q 33 194 33 183 q 51 264 33 229 q 88 319 67 293 q 132 368 108 344 q 169 406 151 388 q 203 444 188 424 q 231 493 221 468 q 235 511 235 503 q 229 532 235 522 q 222 556 222 544 q 231 582 222 567 q 268 599 240 597 q 275 599 271 599 q 328 577 303 599 q 358 524 354 556 q 360 506 360 515 q 354 472 360 489 q 307 390 339 424 l 269 347 q 247 304 251 329 q 247 301 247 303 q 260 288 247 290 q 275 286 268 286 q 303 290 289 286 q 354 310 331 297 q 401 340 378 322 q 428 358 422 357 q 435 358 435 358 q 468 343 447 358 q 514 299 496 324 q 543 242 532 274 q 547 215 547 228 q 544 191 547 206 q 528 157 540 176 q 490 110 513 129 q 442 75 468 90 q 363 40 404 51 q 278 26 321 29 q 208 33 242 29 q 142 53 174 38 q 82 90 110 67 z "},"":{"ha":936,"x_min":6,"x_max":928,"o":"m 582 835 q 588 835 585 835 q 626 792 626 835 q 597 717 626 753 q 511 644 560 671 q 405 596 460 614 q 292 567 350 578 q 281 565 286 565 q 269 563 276 564 q 265 560 268 563 q 271 549 268 554 q 275 538 274 544 q 307 513 281 513 q 313 513 310 513 q 342 514 328 514 q 355 513 349 514 q 365 513 361 513 q 399 515 382 513 q 415 517 407 517 q 444 511 431 517 q 469 492 463 504 q 476 467 476 481 q 475 457 476 463 q 450 413 468 431 q 342 342 404 360 q 328 335 329 336 q 328 332 328 333 q 331 317 328 328 q 351 263 339 289 q 379 211 364 236 q 392 191 386 200 q 401 171 397 182 q 410 139 410 154 q 409 126 410 136 q 399 97 408 117 q 368 61 389 79 q 321 30 347 43 q 273 12 294 17 q 238 7 251 7 q 214 10 225 7 q 149 65 167 19 q 139 129 139 93 q 139 163 139 146 q 140 205 139 179 q 143 265 140 231 q 141 281 143 279 q 124 285 139 283 q 60 305 82 288 q 29 363 39 322 q 22 413 22 389 q 29 457 22 436 q 103 513 43 513 q 126 512 114 513 q 151 510 139 511 q 169 513 163 510 q 176 528 175 517 q 179 541 176 535 q 182 551 182 547 q 181 558 182 554 q 165 561 174 560 l 138 565 q 122 568 131 567 q 10 685 29 592 q 6 726 6 707 q 25 813 6 772 q 126 878 57 876 q 146 879 136 879 q 169 878 156 879 q 201 869 183 876 q 308 847 254 854 q 417 838 361 840 q 485 834 458 835 q 526 833 513 833 q 582 835 554 833 m 925 788 q 928 753 928 769 q 926 726 928 743 q 922 682 925 708 q 913 619 918 651 l 894 497 q 885 435 890 467 q 869 318 876 376 l 858 242 q 843 125 851 183 q 837 90 840 107 q 828 56 833 72 q 821 40 825 47 q 810 26 817 33 q 781 15 796 15 q 750 26 765 15 q 723 58 735 42 q 701 94 711 75 q 674 178 683 138 q 643 356 654 267 q 631 536 632 444 q 632 627 631 582 q 640 718 633 672 q 649 757 643 738 q 663 796 656 776 q 722 856 682 839 q 803 872 763 872 q 858 864 831 872 q 925 788 919 849 z "},"":{"ha":1099,"x_min":6,"x_max":1110,"o":"m 582 835 q 588 835 585 835 q 626 792 626 835 q 597 717 626 753 q 511 644 560 671 q 405 596 460 614 q 292 567 350 578 q 281 565 286 565 q 269 563 276 564 q 265 560 268 563 q 271 549 268 554 q 275 538 274 544 q 307 513 281 513 q 313 513 310 513 q 342 514 328 514 q 355 513 349 514 q 365 513 361 513 q 399 515 382 513 q 415 517 407 517 q 444 511 431 517 q 469 492 463 504 q 476 467 476 481 q 475 457 476 463 q 450 413 468 431 q 342 342 404 360 q 328 335 329 336 q 328 332 328 333 q 331 317 328 328 q 351 263 339 289 q 379 211 364 236 q 392 191 386 200 q 401 171 397 182 q 410 139 410 154 q 409 126 410 136 q 399 97 408 117 q 368 61 389 79 q 321 30 347 43 q 273 12 294 17 q 238 7 251 7 q 214 10 225 7 q 149 65 167 19 q 139 129 139 93 q 139 163 139 146 q 140 205 139 179 q 143 265 140 231 q 141 281 143 279 q 124 285 139 283 q 60 305 82 288 q 29 363 39 322 q 22 413 22 389 q 29 457 22 436 q 103 513 43 513 q 126 512 114 513 q 151 510 139 511 q 169 513 163 510 q 176 528 175 517 q 179 541 176 535 q 182 551 182 547 q 181 558 182 554 q 165 561 174 560 l 138 565 q 122 568 131 567 q 10 685 29 592 q 6 726 6 707 q 25 813 6 772 q 126 878 57 876 q 146 879 136 879 q 169 878 156 879 q 201 869 183 876 q 308 847 254 854 q 417 838 361 840 q 485 834 458 835 q 526 833 513 833 q 582 835 554 833 m 1044 304 q 1095 283 1081 301 q 1110 243 1110 264 q 1106 219 1110 232 q 1088 185 1099 200 q 1063 154 1078 169 q 938 68 1004 103 q 858 35 899 49 q 776 11 818 21 q 740 7 757 7 q 665 32 701 7 q 618 119 629 57 q 614 169 614 144 q 619 225 614 197 q 631 250 622 243 q 657 260 639 257 q 674 265 672 263 q 675 268 675 267 q 672 283 675 274 q 643 431 647 368 q 639 531 639 493 q 643 628 639 579 q 678 781 647 710 q 717 839 693 815 q 779 872 742 863 q 824 878 801 878 q 843 877 828 878 q 885 871 858 876 q 933 817 933 861 q 929 790 933 806 q 897 654 911 722 q 869 517 883 586 q 849 403 858 460 q 829 289 839 347 q 828 282 828 286 q 831 272 828 278 q 897 282 864 275 q 961 294 929 289 q 1003 301 982 299 q 1044 304 1024 304 z "},"":{"ha":854,"x_min":29,"x_max":831,"o":"m 244 153 q 261 110 261 133 q 258 88 261 106 q 232 51 256 71 q 184 25 210 32 q 131 18 158 18 q 122 18 126 18 q 64 36 89 18 q 37 66 44 49 q 29 100 29 83 q 30 114 29 103 q 42 142 31 125 q 74 169 53 160 q 117 188 92 178 q 150 194 132 194 q 186 190 168 194 q 219 175 204 185 q 244 153 235 165 m 529 153 q 546 110 546 133 q 543 88 546 106 q 517 51 540 71 q 469 25 494 32 q 415 18 443 18 q 407 18 411 18 q 349 36 374 18 q 322 66 329 49 q 314 100 314 83 q 315 114 314 103 q 326 142 315 125 q 358 169 338 160 q 401 188 376 178 q 435 194 417 194 q 471 190 453 194 q 504 175 489 185 q 529 153 519 165 m 814 153 q 831 110 831 133 q 828 88 831 106 q 801 51 825 71 q 753 25 779 32 q 700 18 728 18 q 692 18 696 18 q 633 36 658 18 q 606 66 614 49 q 599 100 599 83 q 599 114 599 103 q 611 142 600 125 q 643 169 622 160 q 686 188 661 178 q 719 194 701 194 q 756 190 738 194 q 789 175 774 185 q 814 153 804 165 z "},"":{"ha":304,"x_min":43,"x_max":278,"o":"m 136 269 q 106 276 124 269 q 71 300 88 283 q 43 361 43 328 q 46 390 43 367 q 86 436 49 413 q 168 461 129 461 q 239 436 206 461 q 270 399 263 418 q 278 367 278 379 q 272 340 278 354 q 257 315 267 325 q 235 294 247 304 q 192 276 217 283 q 136 269 168 269 z "},"":{"ha":304,"x_min":43,"x_max":278,"o":"m 136 269 q 106 276 124 269 q 71 300 88 283 q 43 361 43 328 q 46 390 43 367 q 86 436 49 413 q 168 461 129 461 q 239 436 206 461 q 270 399 263 418 q 278 367 278 379 q 272 340 278 354 q 257 315 267 325 q 235 294 247 304 q 192 276 217 283 q 136 269 168 269 z "},"":{"ha":614,"x_min":6,"x_max":626,"o":"m 582 835 q 588 835 585 835 q 626 792 626 835 q 597 717 626 753 q 511 644 560 671 q 405 596 460 614 q 292 567 350 578 q 281 565 286 565 q 269 563 276 564 q 265 560 268 563 q 271 549 268 554 q 275 538 274 544 q 307 513 281 513 q 313 513 310 513 q 342 514 328 514 q 355 513 349 514 q 365 513 361 513 q 399 515 382 513 q 415 517 407 517 q 444 511 431 517 q 469 492 463 504 q 476 467 476 481 q 475 457 476 463 q 450 413 468 431 q 342 342 404 360 q 328 335 329 336 q 328 332 328 333 q 331 317 328 328 q 351 263 339 289 q 379 211 364 236 q 392 191 386 200 q 401 171 397 182 q 410 139 410 154 q 409 126 410 136 q 399 97 408 117 q 368 61 389 79 q 321 30 347 43 q 273 12 294 17 q 238 7 251 7 q 214 10 225 7 q 149 65 167 19 q 139 129 139 93 q 139 163 139 146 q 140 205 139 179 q 143 265 140 231 q 141 281 143 279 q 124 285 139 283 q 60 305 82 288 q 29 363 39 322 q 22 413 22 389 q 29 457 22 436 q 103 513 43 513 q 126 512 114 513 q 151 510 139 511 q 169 513 163 510 q 176 528 175 517 q 179 541 176 535 q 182 551 182 547 q 181 558 182 554 q 165 561 174 560 l 138 565 q 122 568 131 567 q 10 685 29 592 q 6 726 6 707 q 25 813 6 772 q 126 878 57 876 q 146 879 136 879 q 169 878 156 879 q 201 869 183 876 q 308 847 254 854 q 417 838 361 840 q 485 834 458 835 q 526 833 513 833 q 582 835 554 833 z "},"":{"ha":608,"x_min":14,"x_max":590,"o":"m 540 806 q 580 744 569 774 q 590 693 590 715 q 585 654 590 675 q 571 624 581 638 q 549 597 561 610 q 450 499 499 549 q 353 396 401 449 q 231 257 292 329 q 169 178 197 219 q 117 92 140 136 q 88 25 99 61 q 74 3 82 6 q 63 0 65 0 q 40 11 51 0 q 14 74 14 36 q 14 78 14 76 q 17 101 14 89 q 24 125 19 113 q 110 318 53 225 q 230 508 168 414 q 364 690 292 603 q 406 740 385 715 q 450 789 426 765 q 493 817 471 810 q 511 821 503 821 q 540 806 528 821 z "},"\\":{"ha":428,"x_min":28,"x_max":399,"o":"m 119 961 q 140 968 131 968 q 151 967 143 968 q 169 957 158 965 q 200 915 189 942 q 227 856 215 886 q 250 794 239 826 q 281 701 264 756 q 316 585 299 647 q 349 455 333 522 q 377 324 365 388 q 394 208 389 260 q 399 119 399 156 q 399 103 399 111 q 392 56 399 75 q 374 22 386 36 q 347 1 363 8 q 331 -1 338 -1 q 314 3 322 -1 q 306 25 306 8 q 306 29 306 28 q 306 44 306 38 q 304 70 306 56 q 300 103 303 85 q 245 312 283 211 q 164 513 207 413 q 106 642 136 579 q 44 767 75 704 q 32 797 36 783 q 28 819 28 810 q 29 832 28 826 q 58 910 33 879 q 119 961 82 940 z "},"/":{"ha":428,"x_min":29,"x_max":400,"o":"m 307 961 q 370 910 346 939 q 399 832 394 881 q 400 819 400 826 q 396 797 400 810 q 383 768 392 783 q 322 643 353 706 q 264 514 292 581 q 183 313 221 414 q 128 103 144 211 q 123 73 125 86 q 121 50 121 60 q 122 31 121 40 q 114 5 122 11 q 96 -1 106 -1 q 81 1 89 -1 q 36 57 44 15 q 31 79 31 68 q 29 104 31 90 q 29 121 29 113 q 34 208 29 157 q 51 324 39 260 q 78 455 63 388 q 112 585 94 522 q 147 702 129 647 q 178 796 164 757 q 201 856 189 826 q 226 917 213 886 q 258 957 239 942 q 285 968 272 968 q 307 961 296 968 z "},"|":{"ha":217,"x_min":43,"x_max":175,"o":"m 140 24 q 103 -15 132 -6 q 82 -18 92 -18 q 56 -9 68 -18 q 43 22 43 0 q 43 31 43 26 q 46 51 44 42 q 47 72 47 61 q 54 258 53 171 q 56 411 56 346 q 55 533 56 456 q 51 719 54 610 q 46 926 49 828 q 46 928 46 928 q 64 954 46 943 q 97 965 81 965 q 121 960 108 965 q 148 943 136 954 q 163 917 160 932 q 172 796 169 865 q 175 648 175 726 q 173 486 175 569 q 167 324 171 403 q 158 176 163 246 q 147 57 153 107 q 140 24 146 40 z "},"":{"ha":576,"x_min":22,"x_max":556,"o":"m 321 24 q 283 -15 313 -6 q 263 -18 272 -18 q 236 -9 249 -18 q 224 22 224 0 q 224 31 224 26 q 226 51 225 42 q 228 72 228 61 q 236 265 235 178 q 238 411 238 351 q 236 529 238 469 q 174 520 204 525 q 114 508 144 515 q 86 504 99 504 q 58 512 72 504 q 32 551 44 519 q 22 605 22 576 q 33 660 22 633 q 65 708 43 686 q 118 740 86 729 q 231 763 172 758 q 228 846 229 806 q 226 926 228 886 q 226 928 226 928 q 244 954 226 943 q 278 965 261 965 q 301 960 289 965 q 328 943 317 954 q 343 917 340 932 q 349 845 347 885 q 353 761 351 806 q 453 753 403 760 q 531 717 507 746 q 556 631 556 688 q 551 599 556 614 q 531 560 544 571 q 489 546 517 549 q 439 543 464 544 l 404 543 q 354 540 379 543 q 351 404 353 472 q 345 273 349 336 q 337 154 342 210 q 328 57 332 99 q 321 24 326 40 z "},"":{"ha":590,"x_min":28,"x_max":563,"o":"m 326 24 q 289 -15 318 -6 q 268 -18 278 -18 q 242 -9 254 -18 q 229 22 229 0 q 229 31 229 26 q 232 51 231 42 q 233 72 233 61 q 238 149 236 110 q 240 228 239 188 q 219 225 229 226 q 200 222 210 224 l 121 211 q 102 208 111 210 q 82 206 93 207 q 75 204 78 204 q 64 208 69 204 q 53 219 58 213 q 38 260 38 238 q 40 278 38 268 q 56 304 46 293 q 81 321 65 315 q 159 341 119 336 q 239 350 199 346 l 242 350 q 242 457 242 403 q 240 565 242 511 q 188 556 214 561 q 136 546 163 551 q 117 543 126 543 q 99 543 108 543 q 59 556 74 543 q 36 590 44 568 q 28 636 28 614 q 43 697 28 661 q 106 753 58 732 q 182 774 143 769 l 236 778 q 234 853 235 817 q 232 926 233 890 q 232 928 232 928 q 250 954 232 943 q 283 965 267 965 q 307 960 294 965 q 334 943 322 954 q 349 917 346 932 q 354 853 351 888 q 358 778 357 818 q 517 728 443 771 q 556 671 551 708 q 560 650 557 660 q 563 629 563 640 q 551 594 563 606 q 522 582 540 582 q 514 582 518 582 q 478 585 496 585 q 443 586 461 585 q 360 582 401 586 q 358 468 358 525 q 354 356 357 411 q 413 355 383 356 q 472 353 443 354 q 507 349 490 353 q 549 317 536 344 q 554 292 554 303 q 545 267 554 281 q 507 253 536 253 q 493 251 500 251 q 483 252 489 251 q 465 253 476 253 q 407 249 436 251 q 349 243 378 247 q 342 141 346 189 q 333 57 338 93 q 326 24 332 40 z "},"":{"ha":374,"x_min":18,"x_max":353,"o":"m 79 679 q 59 683 71 679 q 36 699 47 688 q 18 739 18 717 q 20 757 18 742 q 47 788 22 772 q 100 806 75 806 q 147 788 125 806 q 167 764 163 776 q 172 743 172 751 q 168 725 172 735 q 158 708 165 715 q 144 696 151 701 q 79 679 122 679 m 260 679 q 240 683 251 679 q 217 699 228 688 q 199 739 199 717 q 201 757 199 742 q 228 788 203 772 q 281 806 256 806 q 328 788 306 806 q 348 764 343 776 q 353 743 353 751 q 349 725 353 735 q 339 708 346 715 q 325 696 332 701 q 260 679 303 679 z "},"":{"ha":306,"x_min":36,"x_max":271,"o":"m 129 667 q 99 674 117 667 q 64 697 81 681 q 36 758 36 725 q 39 787 36 764 q 79 833 42 810 q 161 858 122 858 q 232 833 199 858 q 263 796 256 815 q 271 764 271 776 q 265 738 271 751 q 250 712 260 722 q 228 692 240 701 q 185 674 210 681 q 129 667 161 667 z "},"":{"ha":492,"x_min":21,"x_max":469,"o":"m 260 796 q 261 783 261 789 q 246 758 261 767 q 163 702 201 733 q 81 644 124 671 q 53 633 63 633 q 44 635 50 633 q 26 661 38 638 q 22 676 24 672 l 21 690 q 30 733 24 714 q 51 771 36 753 q 144 853 90 818 q 185 865 164 865 q 204 863 189 865 q 238 839 219 861 q 260 796 253 822 m 468 754 q 469 742 469 747 q 454 717 469 725 q 371 660 410 692 q 289 603 332 629 q 261 592 271 592 q 252 594 258 592 q 235 619 246 596 q 231 635 232 631 l 229 649 q 238 692 232 672 q 260 729 244 711 q 353 811 299 776 q 393 824 372 824 q 413 822 397 824 q 446 797 428 819 q 468 754 461 781 z "},"":{"ha":579,"x_min":22,"x_max":556,"o":"m 453 381 q 531 344 507 374 q 556 258 556 315 q 551 226 556 242 q 531 188 544 199 q 489 174 517 176 q 399 170 444 171 q 310 165 354 169 q 212 154 261 161 q 114 136 163 147 q 86 132 99 132 q 58 140 72 132 q 32 179 44 147 q 22 233 22 204 q 33 288 22 261 q 65 335 43 314 q 118 368 86 357 q 199 388 163 383 q 267 393 236 393 q 297 392 282 393 q 375 388 336 389 q 453 381 414 386 z "},"":{"ha":715,"x_min":22,"x_max":694,"o":"m 592 506 q 670 469 646 499 q 694 383 694 440 q 690 351 694 367 q 669 313 683 324 q 628 299 656 301 q 581 297 606 297 q 522 295 557 296 q 435 294 486 294 q 310 290 385 293 q 212 281 261 289 q 114 261 163 272 q 86 257 99 257 q 58 265 72 257 q 32 304 44 272 q 22 358 22 329 q 33 413 22 386 q 65 460 43 439 q 118 493 86 482 q 202 513 163 508 q 276 517 242 517 q 297 517 288 517 q 416 515 368 515 q 497 513 464 514 q 551 510 529 511 q 592 506 572 508 z "},"":{"ha":579,"x_min":22,"x_max":556,"o":"m 453 700 q 531 664 507 693 q 556 578 556 635 q 551 546 556 561 q 531 507 544 518 q 489 493 517 496 q 399 490 444 490 q 310 485 354 489 q 212 474 261 481 q 114 456 163 467 q 86 451 99 451 q 58 459 72 451 q 32 499 44 467 q 22 552 22 524 q 33 607 22 581 q 65 655 43 633 q 118 688 86 676 q 199 708 163 703 q 267 713 236 713 q 297 711 282 713 q 375 707 336 708 q 453 700 414 706 z "},"":{"ha":597,"x_min":8,"x_max":589,"o":"m 572 719 q 589 556 589 636 q 578 425 589 510 q 504 224 568 340 q 357 50 447 118 q 300 15 329 29 q 238 -7 271 0 q 211 -10 225 -10 q 149 3 183 -10 q 85 50 114 17 q 49 118 57 83 q 42 175 42 153 q 51 244 42 208 q 92 322 63 285 q 107 333 97 333 q 118 329 111 333 q 134 318 126 324 q 156 310 142 313 q 140 349 147 331 q 126 388 133 368 q 125 392 125 390 q 124 397 125 394 l 69 386 q 51 383 58 383 q 33 388 42 383 q 15 414 24 393 q 8 450 8 431 q 15 487 8 469 q 37 519 22 504 q 72 540 51 533 l 90 546 q 89 567 89 557 q 92 593 89 581 q 169 699 101 671 q 203 709 190 707 q 224 711 217 711 q 256 706 239 711 q 293 679 278 700 q 306 657 304 665 q 307 644 307 649 q 300 619 307 633 q 271 551 282 585 q 281 550 276 550 l 285 550 q 294 549 289 550 q 364 467 364 539 q 361 446 364 460 q 348 419 357 426 q 319 411 339 413 q 278 409 299 410 q 238 407 257 408 q 233 333 233 369 q 219 288 233 311 q 235 283 228 283 q 246 285 239 283 q 264 290 253 288 q 351 340 314 306 q 411 425 388 375 q 427 478 424 451 q 431 524 431 504 q 427 570 431 542 q 409 635 424 599 q 367 700 394 672 q 297 748 328 739 q 246 757 265 757 q 189 746 218 757 q 147 730 167 739 q 113 699 126 721 q 104 693 108 693 q 99 694 103 693 q 90 700 96 696 q 58 769 61 728 q 58 782 58 776 q 71 843 58 814 q 107 899 83 872 q 279 981 183 981 q 365 965 321 981 q 572 719 535 906 z "},"":{"ha":597,"x_min":8,"x_max":589,"o":"m 572 656 q 589 506 589 579 q 578 387 589 464 q 504 204 568 310 q 357 44 449 108 q 300 13 329 25 q 238 -6 271 0 q 210 -8 224 -8 q 148 3 182 -8 q 85 46 114 15 q 49 108 57 76 q 42 160 42 140 q 51 222 42 189 q 92 294 63 260 q 107 304 99 304 q 118 300 113 304 q 134 290 126 294 q 156 282 142 285 q 140 319 147 301 q 126 353 133 336 l 115 382 q 104 379 110 381 l 81 375 q 69 372 75 374 q 51 369 58 369 q 33 374 42 369 q 15 400 24 379 q 8 436 8 417 q 15 473 8 456 q 37 505 22 490 q 72 526 51 519 l 90 532 q 90 535 90 533 l 92 538 q 92 540 92 539 q 169 636 101 611 q 204 645 190 643 q 225 647 218 647 q 256 643 240 647 q 293 618 279 636 q 306 597 304 606 q 307 586 307 589 q 300 564 307 576 q 292 550 296 557 q 285 536 288 543 q 288 536 286 536 l 292 535 q 294 535 293 535 q 364 453 364 525 q 361 432 364 446 q 348 406 357 413 q 319 397 339 399 q 290 396 306 396 l 271 396 q 242 394 257 396 q 236 349 239 372 q 233 303 233 326 q 219 261 233 282 q 235 258 228 258 q 246 260 239 258 q 264 264 253 261 q 411 388 364 293 q 427 435 424 411 q 431 476 431 460 q 427 519 431 493 q 409 578 424 544 q 367 638 394 613 q 297 681 328 674 q 247 689 265 689 q 189 679 219 689 q 147 664 167 672 q 113 636 126 656 q 104 631 108 631 q 99 632 103 631 q 90 638 96 633 q 58 701 61 663 q 58 713 58 707 q 71 768 58 742 q 107 818 83 794 q 279 893 183 893 q 365 879 321 893 q 572 656 535 826 z "},"":{"ha":322,"x_min":17,"x_max":314,"o":"m 311 788 q 314 753 314 769 q 313 726 314 743 q 308 682 311 708 q 299 619 304 651 l 281 497 q 271 435 276 467 q 256 318 263 376 l 244 242 q 229 125 238 183 q 223 90 226 107 q 214 56 219 72 q 207 40 211 47 q 196 26 203 33 q 167 15 182 15 q 136 26 151 15 q 109 58 121 42 q 88 94 97 75 q 60 178 69 138 q 29 356 40 267 q 17 536 18 444 q 18 627 17 582 q 26 718 19 672 q 35 757 29 738 q 49 796 42 776 q 108 856 68 839 q 189 872 149 872 q 244 864 217 872 q 311 788 306 849 z "},"":{"ha":663,"x_min":-11,"x_max":669,"o":"m 642 411 q 669 382 669 407 q 668 367 669 375 q 646 313 660 338 q 608 269 632 288 q 594 238 594 260 q 594 178 594 208 q 583 119 594 149 q 564 81 578 103 q 532 38 550 58 q 493 5 514 18 q 451 -8 472 -8 q 414 29 415 -8 q 410 98 413 64 q 403 165 407 132 q 400 186 403 172 q 389 203 400 203 q 383 201 386 203 q 322 193 351 197 q 261 186 292 189 q 250 171 250 185 q 250 132 250 151 q 253 93 250 113 q 253 90 253 92 q 236 60 253 69 q 210 53 222 53 q 167 65 188 53 q 129 94 146 76 q 101 134 113 113 q 82 174 89 156 q 66 203 75 192 q 39 221 57 215 q 19 238 28 225 q 3 267 10 250 q -8 299 -4 283 q -11 325 -11 315 q -3 356 -11 346 q 24 374 4 367 q 39 375 31 375 q 44 375 42 375 q 49 375 47 375 q 64 385 58 375 q 69 404 69 393 l 69 413 q 72 431 71 422 q 100 541 83 488 q 135 647 117 594 l 224 892 q 232 913 228 903 q 243 935 236 924 q 279 965 257 965 q 306 957 292 965 q 329 942 319 949 q 364 969 346 957 q 406 981 382 981 q 441 970 426 981 q 466 944 456 960 q 483 910 476 929 q 493 875 489 892 q 540 656 521 765 q 576 433 558 546 q 594 414 578 414 q 619 414 607 414 q 642 411 631 414 m 339 406 q 356 409 354 407 q 358 415 358 411 q 357 428 358 421 q 348 548 353 489 q 336 668 343 607 q 333 689 335 678 q 324 711 331 700 q 294 556 308 632 q 269 400 281 479 q 306 403 289 403 q 339 406 324 404 m 381 1106 q 392 1068 392 1090 q 386 1041 392 1053 q 372 1018 381 1029 q 358 1008 365 1008 q 344 1014 351 1008 q 313 1036 329 1025 q 281 1058 297 1047 q 223 1094 253 1078 q 161 1122 193 1110 q 136 1139 140 1131 q 132 1156 132 1147 q 135 1174 132 1164 q 147 1203 140 1192 q 178 1232 164 1226 q 204 1238 192 1238 q 229 1233 215 1238 q 273 1213 253 1226 q 313 1185 293 1200 q 349 1147 332 1167 q 381 1106 365 1126 z "},"":{"ha":663,"x_min":-11,"x_max":669,"o":"m 642 411 q 669 382 669 407 q 668 367 669 375 q 646 313 660 338 q 608 269 632 288 q 594 238 594 260 q 594 178 594 208 q 583 119 594 149 q 564 81 578 103 q 532 38 550 58 q 493 5 514 18 q 451 -8 472 -8 q 414 29 415 -8 q 410 98 413 64 q 403 165 407 132 q 400 186 403 172 q 389 203 400 203 q 383 201 386 203 q 322 193 351 197 q 261 186 292 189 q 250 171 250 185 q 250 132 250 151 q 253 93 250 113 q 253 90 253 92 q 236 60 253 69 q 210 53 222 53 q 167 65 188 53 q 129 94 146 76 q 101 134 113 113 q 82 174 89 156 q 66 203 75 192 q 39 221 57 215 q 19 238 28 225 q 3 267 10 250 q -8 299 -4 283 q -11 325 -11 315 q -3 356 -11 346 q 24 374 4 367 q 39 375 31 375 q 44 375 42 375 q 49 375 47 375 q 64 385 58 375 q 69 404 69 393 l 69 413 q 72 431 71 422 q 100 541 83 488 q 135 647 117 594 l 224 892 q 232 913 228 903 q 243 935 236 924 q 279 965 257 965 q 306 957 292 965 q 329 942 319 949 q 364 969 346 957 q 406 981 382 981 q 441 970 426 981 q 466 944 456 960 q 483 910 476 929 q 493 875 489 892 q 540 656 521 765 q 576 433 558 546 q 594 414 578 414 q 619 414 607 414 q 642 411 631 414 m 339 406 q 356 409 354 407 q 358 415 358 411 q 357 428 358 421 q 348 548 353 489 q 336 668 343 607 q 333 689 335 678 q 324 711 331 700 q 294 556 308 632 q 269 400 281 479 q 306 403 289 403 q 339 406 324 404 m 558 1169 q 560 1157 560 1163 q 544 1132 560 1140 q 461 1076 500 1107 q 379 1018 422 1044 q 351 1007 361 1007 q 342 1009 349 1007 q 325 1035 336 1011 q 321 1050 322 1046 l 319 1064 q 328 1107 322 1088 q 350 1144 335 1126 q 443 1226 389 1192 q 483 1239 463 1239 q 503 1237 488 1239 q 536 1213 518 1235 q 558 1169 551 1196 z "},"":{"ha":663,"x_min":-11,"x_max":669,"o":"m 642 411 q 669 382 669 407 q 668 367 669 375 q 646 313 660 338 q 608 269 632 288 q 594 238 594 260 q 594 178 594 208 q 583 119 594 149 q 564 81 578 103 q 532 38 550 58 q 493 5 514 18 q 451 -8 472 -8 q 414 29 415 -8 q 410 98 413 64 q 403 165 407 132 q 400 186 403 172 q 389 203 400 203 q 383 201 386 203 q 322 193 351 197 q 261 186 292 189 q 250 171 250 185 q 250 132 250 151 q 253 93 250 113 q 253 90 253 92 q 236 60 253 69 q 210 53 222 53 q 167 65 188 53 q 129 94 146 76 q 101 134 113 113 q 82 174 89 156 q 66 203 75 192 q 39 221 57 215 q 19 238 28 225 q 3 267 10 250 q -8 299 -4 283 q -11 325 -11 315 q -3 356 -11 346 q 24 374 4 367 q 39 375 31 375 q 44 375 42 375 q 49 375 47 375 q 64 385 58 375 q 69 404 69 393 l 69 413 q 72 431 71 422 q 100 541 83 488 q 135 647 117 594 l 224 892 q 232 913 228 903 q 243 935 236 924 q 279 965 257 965 q 306 957 292 965 q 329 942 319 949 q 364 969 346 957 q 406 981 382 981 q 441 970 426 981 q 466 944 456 960 q 483 910 476 929 q 493 875 489 892 q 540 656 521 765 q 576 433 558 546 q 594 414 578 414 q 619 414 607 414 q 642 411 631 414 m 339 406 q 356 409 354 407 q 358 415 358 411 q 357 428 358 421 q 348 548 353 489 q 336 668 343 607 q 333 689 335 678 q 324 711 331 700 q 294 556 308 632 q 269 400 281 479 q 306 403 289 403 q 339 406 324 404 m 481 1069 q 481 1061 481 1065 q 467 1025 481 1039 q 446 1014 456 1014 q 425 1028 435 1014 q 413 1053 417 1040 l 363 1146 q 338 1099 349 1121 q 315 1058 326 1078 q 306 1042 311 1050 q 294 1026 301 1033 q 253 1007 275 1007 q 229 1013 242 1007 q 194 1067 197 1026 q 196 1084 194 1075 q 201 1101 197 1093 q 234 1167 215 1135 q 276 1226 253 1199 q 303 1247 289 1242 q 337 1257 321 1257 q 369 1243 353 1257 q 413 1206 392 1225 q 449 1161 433 1186 q 481 1069 475 1118 z "},"":{"ha":663,"x_min":-11,"x_max":669,"o":"m 642 411 q 669 382 669 407 q 668 367 669 375 q 646 313 660 338 q 608 269 632 288 q 594 238 594 260 q 594 178 594 208 q 583 119 594 149 q 564 81 578 103 q 532 38 550 58 q 493 5 514 18 q 451 -8 472 -8 q 414 29 415 -8 q 410 98 413 64 q 403 165 407 132 q 400 186 403 172 q 389 203 400 203 q 383 201 386 203 q 322 193 351 197 q 261 186 292 189 q 250 171 250 185 q 250 132 250 151 q 253 93 250 113 q 253 90 253 92 q 236 60 253 69 q 210 53 222 53 q 167 65 188 53 q 129 94 146 76 q 101 134 113 113 q 82 174 89 156 q 66 203 75 192 q 39 221 57 215 q 19 238 28 225 q 3 267 10 250 q -8 299 -4 283 q -11 325 -11 315 q -3 356 -11 346 q 24 374 4 367 q 39 375 31 375 q 44 375 42 375 q 49 375 47 375 q 64 385 58 375 q 69 404 69 393 l 69 413 q 72 431 71 422 q 100 541 83 488 q 135 647 117 594 l 224 892 q 232 913 228 903 q 243 935 236 924 q 279 965 257 965 q 306 957 292 965 q 329 942 319 949 q 364 969 346 957 q 406 981 382 981 q 441 970 426 981 q 466 944 456 960 q 483 910 476 929 q 493 875 489 892 q 540 656 521 765 q 576 433 558 546 q 594 414 578 414 q 619 414 607 414 q 642 411 631 414 m 339 406 q 356 409 354 407 q 358 415 358 411 q 357 428 358 421 q 348 548 353 489 q 336 668 343 607 q 333 689 335 678 q 324 711 331 700 q 294 556 308 632 q 269 400 281 479 q 306 403 289 403 q 339 406 324 404 m 532 1240 q 550 1197 550 1232 q 524 1110 540 1154 q 471 1032 508 1067 q 434 1008 449 1010 q 417 1007 419 1007 q 368 1022 393 1007 q 343 1040 356 1031 q 318 1060 331 1050 q 274 1075 297 1075 q 260 1074 267 1075 q 222 1050 233 1069 q 219 1047 222 1050 l 213 1038 q 189 1025 201 1025 q 178 1028 183 1025 q 166 1039 169 1032 q 163 1051 163 1046 q 164 1060 163 1056 q 201 1154 175 1111 q 274 1225 226 1197 q 322 1240 297 1240 q 342 1239 326 1240 q 385 1218 358 1238 q 388 1215 386 1217 l 426 1185 q 429 1182 428 1183 q 449 1172 443 1172 q 453 1173 450 1172 q 465 1189 456 1174 q 490 1226 476 1208 q 519 1243 504 1243 q 532 1240 525 1243 z "},"":{"ha":663,"x_min":-11,"x_max":669,"o":"m 642 411 q 669 382 669 407 q 668 367 669 375 q 646 313 660 338 q 608 269 632 288 q 594 238 594 260 q 594 178 594 208 q 583 119 594 149 q 564 81 578 103 q 532 38 550 58 q 493 5 514 18 q 451 -8 472 -8 q 414 29 415 -8 q 410 98 413 64 q 403 165 407 132 q 400 186 403 172 q 389 203 400 203 q 383 201 386 203 q 322 193 351 197 q 261 186 292 189 q 250 171 250 185 q 250 132 250 151 q 253 93 250 113 q 253 90 253 92 q 236 60 253 69 q 210 53 222 53 q 167 65 188 53 q 129 94 146 76 q 101 134 113 113 q 82 174 89 156 q 66 203 75 192 q 39 221 57 215 q 19 238 28 225 q 3 267 10 250 q -8 299 -4 283 q -11 325 -11 315 q -3 356 -11 346 q 24 374 4 367 q 39 375 31 375 q 44 375 42 375 q 49 375 47 375 q 64 385 58 375 q 69 404 69 393 l 69 413 q 72 431 71 422 q 100 541 83 488 q 135 647 117 594 l 224 892 q 232 913 228 903 q 243 935 236 924 q 279 965 257 965 q 306 957 292 965 q 329 942 319 949 q 364 969 346 957 q 406 981 382 981 q 441 970 426 981 q 466 944 456 960 q 483 910 476 929 q 493 875 489 892 q 540 656 521 765 q 576 433 558 546 q 594 414 578 414 q 619 414 607 414 q 642 411 631 414 m 339 406 q 356 409 354 407 q 358 415 358 411 q 357 428 358 421 q 348 548 353 489 q 336 668 343 607 q 333 689 335 678 q 324 711 331 700 q 294 556 308 632 q 269 400 281 479 q 306 403 289 403 q 339 406 324 404 m 251 1001 q 231 1006 243 1001 q 208 1021 219 1010 q 190 1061 190 1039 q 192 1079 190 1064 q 219 1110 194 1094 q 272 1128 247 1128 q 319 1110 297 1128 q 340 1086 335 1099 q 344 1065 344 1074 q 340 1047 344 1057 q 331 1031 338 1038 q 317 1018 324 1024 q 251 1001 294 1001 m 432 1001 q 412 1006 424 1001 q 389 1021 400 1010 q 371 1061 371 1039 q 373 1079 371 1064 q 400 1110 375 1094 q 453 1128 428 1128 q 500 1110 478 1128 q 520 1086 515 1099 q 525 1065 525 1074 q 521 1047 525 1057 q 511 1031 518 1038 q 497 1018 504 1024 q 432 1001 475 1001 z "},"":{"ha":663,"x_min":-11,"x_max":669,"o":"m 642 411 q 669 382 669 407 q 668 367 669 375 q 646 313 660 338 q 608 269 632 288 q 594 238 594 260 q 594 178 594 208 q 583 119 594 149 q 564 81 578 103 q 532 38 550 58 q 493 5 514 18 q 451 -8 472 -8 q 414 29 415 -8 q 410 98 413 64 q 403 165 407 132 q 400 186 403 172 q 389 203 400 203 q 383 201 386 203 q 322 193 351 197 q 261 186 292 189 q 250 171 250 185 q 250 132 250 151 q 253 93 250 113 q 253 90 253 92 q 236 60 253 69 q 210 53 222 53 q 167 65 188 53 q 129 94 146 76 q 101 134 113 113 q 82 174 89 156 q 66 203 75 192 q 39 221 57 215 q 19 238 28 225 q 3 267 10 250 q -8 299 -4 283 q -11 325 -11 315 q -3 356 -11 346 q 24 374 4 367 q 39 375 31 375 q 44 375 42 375 q 49 375 47 375 q 64 385 58 375 q 69 404 69 393 l 69 413 q 72 431 71 422 q 100 541 83 488 q 135 647 117 594 l 224 892 q 232 913 228 903 q 243 935 236 924 q 279 965 257 965 q 306 957 292 965 q 329 942 319 949 q 364 969 346 957 q 406 981 382 981 q 441 970 426 981 q 466 944 456 960 q 483 910 476 929 q 493 875 489 892 q 540 656 521 765 q 576 433 558 546 q 594 414 578 414 q 619 414 607 414 q 642 411 631 414 m 339 406 q 356 409 354 407 q 358 415 358 411 q 357 428 358 421 q 348 548 353 489 q 336 668 343 607 q 333 689 335 678 q 324 711 331 700 q 294 556 308 632 q 269 400 281 479 q 306 403 289 403 q 339 406 324 404 m 475 1174 q 485 1122 485 1147 q 464 1060 485 1094 q 379 1015 443 1025 q 366 1014 372 1014 q 357 1014 360 1014 q 256 1051 288 1014 q 225 1131 225 1088 q 228 1163 225 1146 q 248 1221 235 1194 q 285 1268 261 1247 q 297 1286 293 1276 q 314 1310 301 1300 q 357 1329 336 1329 q 399 1310 378 1329 q 421 1285 411 1299 q 439 1256 431 1271 q 458 1215 450 1236 q 475 1174 467 1194 m 379 1099 q 400 1118 400 1101 q 399 1126 400 1122 q 342 1206 388 1174 q 331 1178 335 1192 q 325 1150 328 1165 q 325 1142 325 1146 q 337 1109 325 1121 q 368 1097 349 1097 q 379 1099 374 1097 z "},"":{"ha":547,"x_min":7,"x_max":533,"o":"m 528 368 q 533 292 533 329 q 526 209 533 258 q 475 99 519 160 q 397 29 446 58 q 297 0 349 0 q 218 24 257 0 q 94 143 139 71 q 28 308 49 215 q 7 486 7 397 q 35 664 7 575 q 102 806 58 743 q 213 913 146 868 q 263 939 240 932 q 304 946 286 946 q 336 942 319 946 q 340 942 339 942 q 361 950 350 942 q 390 967 374 961 q 426 972 407 972 q 465 966 446 972 q 497 947 485 960 q 518 897 518 926 q 517 881 518 889 q 504 796 510 838 q 496 711 499 754 q 492 675 494 693 l 485 603 q 481 567 483 585 q 476 542 479 546 q 460 538 472 538 q 451 538 456 538 q 431 538 440 538 q 411 543 421 539 q 364 589 378 556 q 324 719 336 653 l 324 722 l 322 726 q 317 736 322 732 q 297 724 306 732 q 281 708 289 717 q 242 647 257 683 q 223 583 226 611 q 219 538 219 554 q 224 485 219 515 q 246 422 229 454 q 307 363 268 382 q 390 344 346 344 q 449 356 421 344 q 500 394 476 367 q 510 400 506 400 q 519 393 515 400 q 528 368 526 381 m 319 -46 q 353 -62 339 -50 q 378 -93 368 -75 q 386 -131 386 -112 q 379 -167 386 -149 q 317 -234 358 -214 q 236 -254 276 -254 q 231 -254 233 -254 q 217 -253 224 -254 q 204 -249 211 -251 q 177 -225 185 -239 q 169 -199 169 -211 q 171 -186 169 -192 q 190 -156 175 -167 q 228 -144 206 -144 q 231 -145 231 -144 q 235 -146 232 -146 l 247 -146 q 251 -147 250 -146 q 254 -147 253 -147 q 265 -149 260 -149 q 299 -139 283 -149 q 276 -119 289 -124 q 249 -112 264 -114 q 201 -94 208 -110 q 194 -71 194 -79 q 210 -33 194 -54 q 240 10 225 -11 q 272 53 256 32 q 294 67 282 67 q 310 63 301 67 q 328 36 328 56 q 328 28 328 32 q 316 -6 325 10 q 300 -37 307 -22 q 307 -44 303 -44 q 309 -44 308 -44 q 311 -43 310 -43 q 319 -46 315 -43 z "},"":{"ha":508,"x_min":19,"x_max":499,"o":"m 499 254 q 499 240 499 247 q 488 181 499 210 q 453 125 476 153 q 401 80 432 100 q 335 45 371 60 q 265 22 300 31 q 197 10 229 13 q 174 8 185 8 q 107 22 140 8 q 47 83 74 36 q 25 161 25 122 q 26 183 25 163 q 44 246 26 204 q 69 274 53 265 q 107 285 86 282 q 89 374 92 326 q 76 390 89 386 q 34 425 46 401 q 19 482 22 449 q 19 496 19 489 q 24 556 19 525 q 35 590 26 575 q 60 611 43 604 q 75 633 75 619 q 75 636 75 635 q 75 643 75 640 q 75 649 75 646 q 78 666 76 658 q 81 679 81 674 q 79 689 81 685 q 68 700 76 696 q 53 711 60 704 q 22 783 26 742 q 19 838 19 811 q 26 893 19 865 q 51 944 33 928 q 100 964 68 961 q 113 964 106 964 q 151 961 131 964 q 322 944 238 944 q 379 946 350 944 q 436 951 408 947 q 446 951 442 951 q 483 935 471 951 q 496 900 496 918 q 492 874 496 888 q 456 805 482 836 q 395 750 429 774 q 322 712 361 726 q 246 693 282 697 l 239 693 q 236 692 236 692 l 231 686 q 251 664 242 675 q 263 636 260 653 q 269 626 264 626 q 273 627 269 626 q 282 628 276 628 l 393 639 q 408 642 400 642 q 424 642 415 642 q 463 601 458 642 q 464 588 464 594 q 460 561 464 575 q 447 531 456 547 q 415 485 435 504 q 372 451 396 465 q 322 426 349 436 q 268 407 296 415 q 244 396 247 401 q 242 378 242 390 q 242 365 242 372 q 244 335 243 346 q 244 321 244 324 q 239 283 244 303 q 254 282 247 282 q 280 285 265 282 q 311 292 294 289 q 363 299 338 294 q 414 308 388 304 q 435 311 424 311 q 451 310 443 311 q 499 254 494 301 m 279 1092 q 290 1054 290 1076 q 285 1027 290 1039 q 271 1004 279 1015 q 257 994 264 994 q 243 1000 250 994 q 212 1022 228 1011 q 179 1044 196 1033 q 122 1080 151 1064 q 60 1108 92 1096 q 35 1125 39 1117 q 31 1142 31 1133 q 33 1160 31 1150 q 46 1189 39 1178 q 76 1218 63 1213 q 103 1224 90 1224 q 128 1219 114 1224 q 172 1199 151 1213 q 211 1171 192 1186 q 247 1133 231 1153 q 279 1092 264 1113 z "},"":{"ha":508,"x_min":19,"x_max":499,"o":"m 499 254 q 499 240 499 247 q 488 181 499 210 q 453 125 476 153 q 401 80 432 100 q 335 45 371 60 q 265 22 300 31 q 197 10 229 13 q 174 8 185 8 q 107 22 140 8 q 47 83 74 36 q 25 161 25 122 q 26 183 25 163 q 44 246 26 204 q 69 274 53 265 q 107 285 86 282 q 89 374 92 326 q 76 390 89 386 q 34 425 46 401 q 19 482 22 449 q 19 496 19 489 q 24 556 19 525 q 35 590 26 575 q 60 611 43 604 q 75 633 75 619 q 75 636 75 635 q 75 643 75 640 q 75 649 75 646 q 78 666 76 658 q 81 679 81 674 q 79 689 81 685 q 68 700 76 696 q 53 711 60 704 q 22 783 26 742 q 19 838 19 811 q 26 893 19 865 q 51 944 33 928 q 100 964 68 961 q 113 964 106 964 q 151 961 131 964 q 322 944 238 944 q 379 946 350 944 q 436 951 408 947 q 446 951 442 951 q 483 935 471 951 q 496 900 496 918 q 492 874 496 888 q 456 805 482 836 q 395 750 429 774 q 322 712 361 726 q 246 693 282 697 l 239 693 q 236 692 236 692 l 231 686 q 251 664 242 675 q 263 636 260 653 q 269 626 264 626 q 273 627 269 626 q 282 628 276 628 l 393 639 q 408 642 400 642 q 424 642 415 642 q 463 601 458 642 q 464 588 464 594 q 460 561 464 575 q 447 531 456 547 q 415 485 435 504 q 372 451 396 465 q 322 426 349 436 q 268 407 296 415 q 244 396 247 401 q 242 378 242 390 q 242 365 242 372 q 244 335 243 346 q 244 321 244 324 q 239 283 244 303 q 254 282 247 282 q 280 285 265 282 q 311 292 294 289 q 363 299 338 294 q 414 308 388 304 q 435 311 424 311 q 451 310 443 311 q 499 254 494 301 m 457 1156 q 458 1143 458 1149 q 443 1118 458 1126 q 360 1062 399 1093 q 278 1004 321 1031 q 250 993 260 993 q 241 995 247 993 q 224 1021 235 997 q 219 1036 221 1032 l 218 1050 q 227 1093 221 1074 q 249 1131 233 1113 q 342 1213 288 1178 q 382 1225 361 1225 q 401 1223 386 1225 q 435 1199 417 1221 q 457 1156 450 1182 z "},"":{"ha":508,"x_min":19,"x_max":499,"o":"m 499 254 q 499 240 499 247 q 488 181 499 210 q 453 125 476 153 q 401 80 432 100 q 335 45 371 60 q 265 22 300 31 q 197 10 229 13 q 174 8 185 8 q 107 22 140 8 q 47 83 74 36 q 25 161 25 122 q 26 183 25 163 q 44 246 26 204 q 69 274 53 265 q 107 285 86 282 q 89 374 92 326 q 76 390 89 386 q 34 425 46 401 q 19 482 22 449 q 19 496 19 489 q 24 556 19 525 q 35 590 26 575 q 60 611 43 604 q 75 633 75 619 q 75 636 75 635 q 75 643 75 640 q 75 649 75 646 q 78 666 76 658 q 81 679 81 674 q 79 689 81 685 q 68 700 76 696 q 53 711 60 704 q 22 783 26 742 q 19 838 19 811 q 26 893 19 865 q 51 944 33 928 q 100 964 68 961 q 113 964 106 964 q 151 961 131 964 q 322 944 238 944 q 379 946 350 944 q 436 951 408 947 q 446 951 442 951 q 483 935 471 951 q 496 900 496 918 q 492 874 496 888 q 456 805 482 836 q 395 750 429 774 q 322 712 361 726 q 246 693 282 697 l 239 693 q 236 692 236 692 l 231 686 q 251 664 242 675 q 263 636 260 653 q 269 626 264 626 q 273 627 269 626 q 282 628 276 628 l 393 639 q 408 642 400 642 q 424 642 415 642 q 463 601 458 642 q 464 588 464 594 q 460 561 464 575 q 447 531 456 547 q 415 485 435 504 q 372 451 396 465 q 322 426 349 436 q 268 407 296 415 q 244 396 247 401 q 242 378 242 390 q 242 365 242 372 q 244 335 243 346 q 244 321 244 324 q 239 283 244 303 q 254 282 247 282 q 280 285 265 282 q 311 292 294 289 q 363 299 338 294 q 414 308 388 304 q 435 311 424 311 q 451 310 443 311 q 499 254 494 301 m 379 1056 q 379 1047 379 1051 q 365 1011 379 1025 q 344 1000 354 1000 q 324 1014 333 1000 q 311 1039 315 1026 l 261 1132 q 236 1085 247 1107 q 214 1044 225 1064 q 205 1028 210 1036 q 193 1013 200 1019 q 151 993 174 993 q 128 999 140 993 q 93 1053 96 1013 q 94 1070 93 1061 q 100 1088 96 1079 q 133 1153 114 1121 q 175 1213 151 1185 q 201 1233 188 1228 q 235 1243 219 1243 q 268 1229 251 1243 q 311 1192 290 1211 q 347 1147 332 1172 q 379 1056 374 1104 z "},"":{"ha":508,"x_min":19,"x_max":499,"o":"m 499 254 q 499 240 499 247 q 488 181 499 210 q 453 125 476 153 q 401 80 432 100 q 335 45 371 60 q 265 22 300 31 q 197 10 229 13 q 174 8 185 8 q 107 22 140 8 q 47 83 74 36 q 25 161 25 122 q 26 183 25 163 q 44 246 26 204 q 69 274 53 265 q 107 285 86 282 q 89 374 92 326 q 76 390 89 386 q 34 425 46 401 q 19 482 22 449 q 19 496 19 489 q 24 556 19 525 q 35 590 26 575 q 60 611 43 604 q 75 633 75 619 q 75 636 75 635 q 75 643 75 640 q 75 649 75 646 q 78 666 76 658 q 81 679 81 674 q 79 689 81 685 q 68 700 76 696 q 53 711 60 704 q 22 783 26 742 q 19 838 19 811 q 26 893 19 865 q 51 944 33 928 q 100 964 68 961 q 113 964 106 964 q 151 961 131 964 q 322 944 238 944 q 379 946 350 944 q 436 951 408 947 q 446 951 442 951 q 483 935 471 951 q 496 900 496 918 q 492 874 496 888 q 456 805 482 836 q 395 750 429 774 q 322 712 361 726 q 246 693 282 697 l 239 693 q 236 692 236 692 l 231 686 q 251 664 242 675 q 263 636 260 653 q 269 626 264 626 q 273 627 269 626 q 282 628 276 628 l 393 639 q 408 642 400 642 q 424 642 415 642 q 463 601 458 642 q 464 588 464 594 q 460 561 464 575 q 447 531 456 547 q 415 485 435 504 q 372 451 396 465 q 322 426 349 436 q 268 407 296 415 q 244 396 247 401 q 242 378 242 390 q 242 365 242 372 q 244 335 243 346 q 244 321 244 324 q 239 283 244 303 q 254 282 247 282 q 280 285 265 282 q 311 292 294 289 q 363 299 338 294 q 414 308 388 304 q 435 311 424 311 q 451 310 443 311 q 499 254 494 301 m 150 988 q 130 992 142 988 q 107 1007 118 996 q 89 1047 89 1025 q 91 1065 89 1050 q 118 1096 93 1081 q 171 1114 146 1114 q 218 1096 196 1114 q 238 1072 233 1085 q 243 1051 243 1060 q 239 1033 243 1043 q 229 1017 236 1024 q 215 1004 222 1010 q 150 988 193 988 m 331 988 q 310 992 322 988 q 288 1007 299 996 q 269 1047 269 1025 q 272 1065 269 1050 q 299 1096 274 1081 q 351 1114 326 1114 q 399 1096 376 1114 q 419 1072 414 1085 q 424 1051 424 1060 q 419 1033 424 1043 q 410 1017 417 1024 q 396 1004 403 1010 q 331 988 374 988 z "},"":{"ha":322,"x_min":-44,"x_max":314,"o":"m 311 865 q 314 826 314 846 q 313 797 314 817 q 308 749 311 778 q 268 443 288 594 q 229 138 249 292 q 223 99 226 118 q 214 61 219 81 q 197 31 208 46 q 165 15 185 15 q 141 26 153 15 q 119 51 129 36 q 100 80 108 65 q 88 104 92 94 q 55 217 68 156 q 33 344 42 279 q 21 472 25 408 q 17 589 17 535 q 18 689 17 639 q 26 788 19 739 q 72 911 38 865 q 189 957 106 957 q 271 938 236 957 q 311 865 306 919 m 204 1088 q 215 1050 215 1072 q 210 1023 215 1035 q 196 1000 204 1011 q 182 990 189 990 q 168 996 175 990 q 137 1018 153 1007 q 104 1040 121 1029 q 47 1076 76 1060 q -15 1104 17 1092 q -40 1121 -36 1113 q -44 1138 -44 1129 q -42 1156 -44 1146 q -29 1185 -36 1174 q 1 1214 -12 1208 q 28 1219 15 1219 q 53 1215 39 1219 q 97 1195 76 1208 q 136 1167 117 1182 q 172 1128 156 1149 q 204 1088 189 1108 z "},"":{"ha":322,"x_min":17,"x_max":383,"o":"m 311 865 q 314 826 314 846 q 313 797 314 817 q 308 749 311 778 q 268 443 288 594 q 229 138 249 292 q 223 99 226 118 q 214 61 219 81 q 197 31 208 46 q 165 15 185 15 q 141 26 153 15 q 119 51 129 36 q 100 80 108 65 q 88 104 92 94 q 55 217 68 156 q 33 344 42 279 q 21 472 25 408 q 17 589 17 535 q 18 689 17 639 q 26 788 19 739 q 72 911 38 865 q 189 957 106 957 q 271 938 236 957 q 311 865 306 919 m 382 1151 q 383 1139 383 1144 q 368 1114 383 1122 q 285 1058 324 1089 q 203 1000 246 1026 q 175 989 185 989 q 166 991 172 989 q 149 1017 160 993 q 144 1032 146 1028 l 143 1046 q 152 1089 146 1069 q 174 1126 158 1108 q 267 1208 213 1174 q 307 1221 286 1221 q 326 1219 311 1221 q 360 1194 342 1217 q 382 1151 375 1178 z "},"":{"ha":322,"x_min":17,"x_max":314,"o":"m 311 865 q 314 826 314 846 q 313 797 314 817 q 308 749 311 778 q 268 443 288 594 q 229 138 249 292 q 223 99 226 118 q 214 61 219 81 q 197 31 208 46 q 165 15 185 15 q 141 26 153 15 q 119 51 129 36 q 100 80 108 65 q 88 104 92 94 q 55 217 68 156 q 33 344 42 279 q 21 472 25 408 q 17 589 17 535 q 18 689 17 639 q 26 788 19 739 q 72 911 38 865 q 189 957 106 957 q 271 938 236 957 q 311 865 306 919 m 304 1051 q 304 1043 304 1047 q 290 1007 304 1021 q 269 996 279 996 q 249 1010 258 996 q 236 1035 240 1022 l 186 1128 q 161 1081 172 1103 q 139 1040 150 1060 q 130 1024 135 1032 q 118 1008 125 1015 q 76 989 99 989 q 53 994 65 989 q 18 1049 21 1008 q 19 1066 18 1057 q 25 1083 21 1075 q 58 1149 39 1117 q 100 1208 76 1181 q 126 1229 113 1224 q 160 1239 144 1239 q 193 1225 176 1239 q 236 1188 215 1207 q 272 1143 257 1168 q 304 1051 299 1100 z "},"":{"ha":322,"x_min":14,"x_max":349,"o":"m 311 865 q 314 826 314 846 q 313 797 314 817 q 308 749 311 778 q 268 443 288 594 q 229 138 249 292 q 223 99 226 118 q 214 61 219 81 q 197 31 208 46 q 165 15 185 15 q 141 26 153 15 q 119 51 129 36 q 100 80 108 65 q 88 104 92 94 q 55 217 68 156 q 33 344 42 279 q 21 472 25 408 q 17 589 17 535 q 18 689 17 639 q 26 788 19 739 q 72 911 38 865 q 189 957 106 957 q 271 938 236 957 q 311 865 306 919 m 75 983 q 55 988 67 983 q 32 1003 43 992 q 14 1043 14 1021 q 16 1061 14 1046 q 43 1092 18 1076 q 96 1110 71 1110 q 143 1092 121 1110 q 163 1068 158 1081 q 168 1047 168 1056 q 164 1029 168 1039 q 154 1013 161 1019 q 140 1000 147 1006 q 75 983 118 983 m 256 983 q 235 988 247 983 q 213 1003 224 992 q 194 1043 194 1021 q 197 1061 194 1046 q 224 1092 199 1076 q 276 1110 251 1110 q 324 1092 301 1110 q 344 1068 339 1081 q 349 1047 349 1056 q 344 1029 349 1039 q 335 1013 342 1019 q 321 1000 328 1006 q 256 983 299 983 z "},"":{"ha":678,"x_min":19,"x_max":665,"o":"m 654 850 q 665 749 665 801 q 664 717 665 733 q 648 513 657 614 q 621 310 639 411 q 594 199 610 253 q 557 92 578 144 q 526 32 544 58 q 467 -4 500 -4 q 419 14 444 -4 q 372 67 390 39 q 342 123 354 94 q 321 182 331 151 q 278 349 297 265 q 254 522 258 432 q 246 510 246 517 q 246 497 246 504 q 231 310 235 403 q 224 122 226 217 l 224 107 l 222 74 l 222 58 q 222 54 222 56 q 213 26 222 35 q 188 17 203 17 q 181 17 185 17 q 125 43 153 21 q 64 132 83 79 q 40 222 49 176 q 28 315 32 268 q 19 519 19 418 q 28 724 19 622 q 49 838 32 781 q 69 885 57 863 q 99 926 81 907 q 169 957 129 957 q 172 957 171 957 q 198 956 185 957 q 224 953 211 956 q 296 913 267 944 q 317 858 317 890 q 328 708 319 782 q 351 558 338 633 q 369 458 360 508 q 393 358 378 407 q 399 339 396 349 q 411 319 401 329 q 419 367 418 344 q 422 414 421 390 q 428 553 428 483 q 427 615 428 567 q 414 747 426 664 q 400 819 408 783 q 379 892 392 856 q 378 904 378 899 q 389 931 378 919 q 453 970 424 965 q 496 975 482 975 q 556 964 524 975 q 617 922 588 953 q 654 850 646 890 m 517 1219 q 535 1176 535 1211 q 509 1090 525 1133 q 456 1011 493 1046 q 419 988 433 989 q 401 986 404 986 q 353 1001 378 986 q 328 1019 340 1010 q 303 1039 315 1029 q 258 1054 282 1054 q 244 1053 251 1054 q 207 1029 218 1049 q 204 1026 207 1029 l 197 1017 q 174 1004 186 1004 q 163 1007 168 1004 q 151 1018 154 1011 q 147 1031 147 1025 q 149 1039 147 1035 q 185 1133 160 1090 q 258 1204 211 1176 q 307 1219 282 1219 q 327 1218 311 1219 q 369 1197 343 1217 q 372 1194 371 1196 l 411 1164 q 414 1161 413 1163 q 433 1151 428 1151 q 438 1152 435 1151 q 450 1168 440 1153 q 475 1206 461 1188 q 504 1222 489 1222 q 517 1219 510 1222 z "},"":{"ha":507,"x_min":8,"x_max":494,"o":"m 493 422 q 494 390 494 406 q 485 294 494 346 q 456 181 475 242 q 437 130 449 154 q 410 82 425 106 q 341 22 378 36 q 269 8 304 8 q 239 10 254 8 q 126 67 168 21 q 57 179 85 114 q 8 429 8 297 q 10 479 8 454 q 90 800 22 644 q 122 861 104 832 q 158 918 139 890 q 201 953 175 942 q 254 964 226 964 q 309 951 285 964 q 352 919 333 939 q 384 874 371 900 q 404 821 397 849 q 409 799 408 807 q 410 789 410 792 q 403 765 410 778 q 400 757 400 761 q 411 750 400 750 q 438 736 429 747 q 454 710 447 725 q 476 639 469 675 q 486 565 482 603 q 492 501 490 529 q 493 451 493 472 q 493 422 493 436 m 335 293 q 343 383 343 338 q 340 442 343 401 q 317 543 338 482 q 313 552 315 547 q 304 560 311 557 q 267 422 282 493 q 259 367 260 388 q 258 342 258 347 q 264 283 258 313 q 274 254 267 269 q 299 239 281 239 q 322 254 314 239 q 330 274 326 264 q 335 293 333 283 m 275 1097 q 286 1060 286 1082 q 281 1033 286 1044 q 267 1010 275 1021 q 253 1000 260 1000 q 239 1006 246 1000 q 208 1028 224 1017 q 175 1050 192 1039 q 117 1085 147 1069 q 56 1114 88 1101 q 31 1131 35 1122 q 26 1147 26 1139 q 29 1165 26 1156 q 42 1194 35 1183 q 72 1224 58 1218 q 99 1229 86 1229 q 124 1225 110 1229 q 167 1205 147 1218 q 207 1176 188 1192 q 243 1138 226 1158 q 275 1097 260 1118 z "},"":{"ha":507,"x_min":8,"x_max":494,"o":"m 493 422 q 494 390 494 406 q 485 294 494 346 q 456 181 475 242 q 437 130 449 154 q 410 82 425 106 q 341 22 378 36 q 269 8 304 8 q 239 10 254 8 q 126 67 168 21 q 57 179 85 114 q 8 429 8 297 q 10 479 8 454 q 90 800 22 644 q 122 861 104 832 q 158 918 139 890 q 201 953 175 942 q 254 964 226 964 q 309 951 285 964 q 352 919 333 939 q 384 874 371 900 q 404 821 397 849 q 409 799 408 807 q 410 789 410 792 q 403 765 410 778 q 400 757 400 761 q 411 750 400 750 q 438 736 429 747 q 454 710 447 725 q 476 639 469 675 q 486 565 482 603 q 492 501 490 529 q 493 451 493 472 q 493 422 493 436 m 335 293 q 343 383 343 338 q 340 442 343 401 q 317 543 338 482 q 313 552 315 547 q 304 560 311 557 q 267 422 282 493 q 259 367 260 388 q 258 342 258 347 q 264 283 258 313 q 274 254 267 269 q 299 239 281 239 q 322 254 314 239 q 330 274 326 264 q 335 293 333 283 m 453 1161 q 454 1149 454 1154 q 439 1124 454 1132 q 356 1067 394 1099 q 274 1010 317 1036 q 246 999 256 999 q 237 1001 243 999 q 219 1026 231 1003 q 215 1042 217 1038 l 214 1056 q 223 1099 217 1079 q 244 1136 229 1118 q 338 1218 283 1183 q 378 1231 357 1231 q 397 1228 382 1231 q 431 1204 413 1226 q 453 1161 446 1188 z "},"":{"ha":507,"x_min":8,"x_max":494,"o":"m 493 422 q 494 390 494 406 q 485 294 494 346 q 456 181 475 242 q 437 130 449 154 q 410 82 425 106 q 341 22 378 36 q 269 8 304 8 q 239 10 254 8 q 126 67 168 21 q 57 179 85 114 q 8 429 8 297 q 10 479 8 454 q 90 800 22 644 q 122 861 104 832 q 158 918 139 890 q 201 953 175 942 q 254 964 226 964 q 309 951 285 964 q 352 919 333 939 q 384 874 371 900 q 404 821 397 849 q 409 799 408 807 q 410 789 410 792 q 403 765 410 778 q 400 757 400 761 q 411 750 400 750 q 438 736 429 747 q 454 710 447 725 q 476 639 469 675 q 486 565 482 603 q 492 501 490 529 q 493 451 493 472 q 493 422 493 436 m 335 293 q 343 383 343 338 q 340 442 343 401 q 317 543 338 482 q 313 552 315 547 q 304 560 311 557 q 267 422 282 493 q 259 367 260 388 q 258 342 258 347 q 264 283 258 313 q 274 254 267 269 q 299 239 281 239 q 322 254 314 239 q 330 274 326 264 q 335 293 333 283 m 375 1061 q 375 1053 375 1057 q 361 1017 375 1031 q 340 1006 350 1006 q 319 1019 329 1006 q 307 1044 311 1032 l 257 1138 q 232 1091 243 1113 q 210 1050 221 1069 q 201 1033 206 1042 q 189 1018 196 1025 q 147 999 169 999 q 124 1004 136 999 q 89 1058 92 1018 q 90 1076 89 1067 q 96 1093 92 1085 q 128 1158 110 1126 q 171 1218 147 1190 q 197 1239 183 1233 q 231 1249 215 1249 q 264 1235 247 1249 q 307 1197 286 1217 q 343 1153 328 1178 q 375 1061 369 1110 z "},"":{"ha":507,"x_min":8,"x_max":494,"o":"m 493 422 q 494 390 494 406 q 485 294 494 346 q 456 181 475 242 q 437 130 449 154 q 410 82 425 106 q 341 22 378 36 q 269 8 304 8 q 239 10 254 8 q 126 67 168 21 q 57 179 85 114 q 8 429 8 297 q 10 479 8 454 q 90 800 22 644 q 122 861 104 832 q 158 918 139 890 q 201 953 175 942 q 254 964 226 964 q 309 951 285 964 q 352 919 333 939 q 384 874 371 900 q 404 821 397 849 q 409 799 408 807 q 410 789 410 792 q 403 765 410 778 q 400 757 400 761 q 411 750 400 750 q 438 736 429 747 q 454 710 447 725 q 476 639 469 675 q 486 565 482 603 q 492 501 490 529 q 493 451 493 472 q 493 422 493 436 m 335 293 q 343 383 343 338 q 340 442 343 401 q 317 543 338 482 q 313 552 315 547 q 304 560 311 557 q 267 422 282 493 q 259 367 260 388 q 258 342 258 347 q 264 283 258 313 q 274 254 267 269 q 299 239 281 239 q 322 254 314 239 q 330 274 326 264 q 335 293 333 283 m 426 1232 q 444 1189 444 1224 q 419 1102 435 1146 q 365 1024 403 1058 q 328 1000 343 1001 q 311 999 314 999 q 263 1014 288 999 q 238 1032 250 1022 q 213 1051 225 1042 q 168 1067 192 1067 q 154 1065 161 1067 q 117 1042 128 1061 q 114 1039 117 1042 l 107 1029 q 83 1017 96 1017 q 72 1019 78 1017 q 60 1031 64 1024 q 57 1043 57 1038 q 58 1051 57 1047 q 95 1146 69 1103 q 168 1217 121 1189 q 217 1232 192 1232 q 237 1231 221 1232 q 279 1210 253 1229 q 282 1207 281 1208 l 321 1176 q 324 1174 322 1175 q 343 1164 338 1164 q 347 1165 344 1164 q 360 1181 350 1165 q 385 1218 371 1200 q 414 1235 399 1235 q 426 1232 419 1235 z "},"":{"ha":507,"x_min":8,"x_max":494,"o":"m 493 422 q 494 390 494 406 q 485 294 494 346 q 456 181 475 242 q 437 130 449 154 q 410 82 425 106 q 341 22 378 36 q 269 8 304 8 q 239 10 254 8 q 126 67 168 21 q 57 179 85 114 q 8 429 8 297 q 10 479 8 454 q 90 800 22 644 q 122 861 104 832 q 158 918 139 890 q 201 953 175 942 q 254 964 226 964 q 309 951 285 964 q 352 919 333 939 q 384 874 371 900 q 404 821 397 849 q 409 799 408 807 q 410 789 410 792 q 403 765 410 778 q 400 757 400 761 q 411 750 400 750 q 438 736 429 747 q 454 710 447 725 q 476 639 469 675 q 486 565 482 603 q 492 501 490 529 q 493 451 493 472 q 493 422 493 436 m 335 293 q 343 383 343 338 q 340 442 343 401 q 317 543 338 482 q 313 552 315 547 q 304 560 311 557 q 267 422 282 493 q 259 367 260 388 q 258 342 258 347 q 264 283 258 313 q 274 254 267 269 q 299 239 281 239 q 322 254 314 239 q 330 274 326 264 q 335 293 333 283 m 146 993 q 126 997 138 993 q 103 1013 114 1001 q 85 1053 85 1031 q 87 1071 85 1056 q 114 1101 89 1086 q 167 1119 142 1119 q 214 1101 192 1119 q 234 1078 229 1090 q 239 1057 239 1065 q 235 1039 239 1049 q 225 1022 232 1029 q 211 1010 218 1015 q 146 993 189 993 m 326 993 q 306 997 318 993 q 283 1013 294 1001 q 265 1053 265 1031 q 267 1071 265 1056 q 294 1101 269 1086 q 347 1119 322 1119 q 394 1101 372 1119 q 415 1078 410 1090 q 419 1057 419 1065 q 415 1039 419 1049 q 406 1022 413 1029 q 392 1010 399 1015 q 326 993 369 993 z "},"":{"ha":599,"x_min":14,"x_max":585,"o":"m 485 540 q 585 350 585 476 q 585 340 585 346 q 565 232 583 282 q 506 140 546 182 q 397 51 456 88 q 268 6 339 15 q 236 3 251 3 q 160 17 201 3 q 81 71 119 31 q 26 161 38 115 q 15 244 15 207 q 18 290 15 267 q 78 379 25 351 q 86 382 82 382 q 96 376 92 382 q 143 333 117 347 q 201 315 169 319 q 290 308 246 308 q 379 324 335 308 q 410 339 397 328 q 422 363 422 351 q 410 385 422 374 q 388 397 399 394 q 364 403 376 400 q 354 404 358 404 l 347 404 q 336 406 342 404 l 278 411 q 268 413 272 413 l 261 413 q 250 414 256 413 q 176 429 213 419 q 107 458 140 439 q 32 547 50 494 q 14 663 14 600 l 17 681 l 17 689 q 49 806 21 756 q 126 893 78 856 q 233 949 176 931 q 354 969 290 967 q 413 962 382 967 q 475 944 444 957 q 520 918 500 935 q 557 878 540 901 q 576 838 571 860 q 581 794 581 817 q 531 639 581 706 q 519 626 528 635 q 497 611 504 611 q 492 612 496 611 q 481 636 489 613 q 358 724 446 724 q 354 724 356 724 q 232 685 290 724 q 199 639 208 671 q 197 631 197 635 q 208 611 197 618 q 247 599 228 600 q 313 592 279 594 q 378 582 346 589 q 433 565 406 575 q 485 540 460 556 m 425 1249 q 447 1235 439 1246 q 454 1214 454 1225 q 454 1210 454 1211 q 447 1185 454 1199 q 410 1104 431 1143 q 361 1032 390 1065 q 319 1013 343 1013 q 304 1014 313 1013 q 275 1028 286 1018 q 217 1090 242 1056 q 182 1168 193 1125 q 178 1196 178 1183 q 194 1232 178 1218 q 247 1249 211 1246 q 250 1249 249 1249 q 266 1242 260 1249 q 279 1226 272 1235 l 335 1150 q 340 1142 338 1146 q 350 1136 343 1139 l 378 1203 q 379 1207 379 1206 q 381 1210 379 1208 l 386 1222 q 389 1228 389 1228 q 417 1250 399 1250 q 425 1249 421 1250 z "},"":{"ha":593,"x_min":15,"x_max":579,"o":"m 565 744 q 578 597 576 651 q 579 529 579 543 q 569 372 579 450 q 528 208 558 285 q 439 68 497 131 q 374 20 410 36 q 303 4 339 4 q 200 35 249 4 q 85 148 126 81 q 31 306 44 215 q 19 406 24 356 q 15 507 15 457 q 26 702 18 604 q 58 896 35 800 q 89 945 68 928 q 139 967 110 963 q 163 968 151 968 q 247 946 206 968 q 318 865 289 924 q 329 824 329 844 q 325 797 329 811 q 294 649 297 708 q 290 558 290 589 q 297 438 290 499 q 304 392 300 414 q 315 350 308 371 q 339 310 322 328 q 361 299 353 299 q 383 312 372 299 q 400 343 393 325 q 412 378 407 361 q 417 404 417 396 q 426 567 426 486 q 422 687 426 607 q 381 885 417 767 q 376 906 378 896 q 371 925 374 915 q 371 933 371 929 q 394 957 371 957 q 432 952 414 957 q 465 932 450 947 q 532 850 506 896 q 565 744 558 804 m 346 1086 q 357 1049 357 1071 q 351 1022 357 1033 q 338 999 346 1010 q 324 989 331 989 q 310 994 317 989 q 278 1017 294 1006 q 246 1039 263 1028 q 188 1074 218 1058 q 126 1103 158 1090 q 101 1119 106 1111 q 97 1136 97 1128 q 100 1154 97 1144 q 113 1183 106 1172 q 143 1213 129 1207 q 169 1218 157 1218 q 194 1214 181 1218 q 238 1194 218 1207 q 278 1165 258 1181 q 314 1127 297 1147 q 346 1086 331 1107 z "},"":{"ha":593,"x_min":15,"x_max":579,"o":"m 565 744 q 578 597 576 651 q 579 529 579 543 q 569 372 579 450 q 528 208 558 285 q 439 68 497 131 q 374 20 410 36 q 303 4 339 4 q 200 35 249 4 q 85 148 126 81 q 31 306 44 215 q 19 406 24 356 q 15 507 15 457 q 26 702 18 604 q 58 896 35 800 q 89 945 68 928 q 139 967 110 963 q 163 968 151 968 q 247 946 206 968 q 318 865 289 924 q 329 824 329 844 q 325 797 329 811 q 294 649 297 708 q 290 558 290 589 q 297 438 290 499 q 304 392 300 414 q 315 350 308 371 q 339 310 322 328 q 361 299 353 299 q 383 312 372 299 q 400 343 393 325 q 412 378 407 361 q 417 404 417 396 q 426 567 426 486 q 422 687 426 607 q 381 885 417 767 q 376 906 378 896 q 371 925 374 915 q 371 933 371 929 q 394 957 371 957 q 432 952 414 957 q 465 932 450 947 q 532 850 506 896 q 565 744 558 804 m 524 1150 q 525 1138 525 1143 q 510 1113 525 1121 q 426 1056 465 1088 q 344 999 388 1025 q 317 988 326 988 q 308 990 314 988 q 290 1015 301 992 q 286 1031 288 1026 l 285 1044 q 294 1088 288 1068 q 315 1125 300 1107 q 408 1207 354 1172 q 449 1219 428 1219 q 468 1217 453 1219 q 501 1193 483 1215 q 524 1150 517 1176 z "},"":{"ha":593,"x_min":15,"x_max":579,"o":"m 565 744 q 578 597 576 651 q 579 529 579 543 q 569 372 579 450 q 528 208 558 285 q 439 68 497 131 q 374 20 410 36 q 303 4 339 4 q 200 35 249 4 q 85 148 126 81 q 31 306 44 215 q 19 406 24 356 q 15 507 15 457 q 26 702 18 604 q 58 896 35 800 q 89 945 68 928 q 139 967 110 963 q 163 968 151 968 q 247 946 206 968 q 318 865 289 924 q 329 824 329 844 q 325 797 329 811 q 294 649 297 708 q 290 558 290 589 q 297 438 290 499 q 304 392 300 414 q 315 350 308 371 q 339 310 322 328 q 361 299 353 299 q 383 312 372 299 q 400 343 393 325 q 412 378 407 361 q 417 404 417 396 q 426 567 426 486 q 422 687 426 607 q 381 885 417 767 q 376 906 378 896 q 371 925 374 915 q 371 933 371 929 q 394 957 371 957 q 432 952 414 957 q 465 932 450 947 q 532 850 506 896 q 565 744 558 804 m 446 1050 q 446 1042 446 1046 q 432 1006 446 1019 q 411 994 421 994 q 390 1008 400 994 q 378 1033 382 1021 l 328 1126 q 303 1080 314 1101 q 281 1039 292 1058 q 272 1022 276 1031 q 260 1007 267 1014 q 218 988 240 988 q 194 993 207 988 q 160 1047 163 1007 q 161 1065 160 1056 q 167 1082 163 1074 q 199 1147 181 1115 q 242 1207 218 1179 q 268 1228 254 1222 q 302 1238 286 1238 q 335 1224 318 1238 q 378 1186 357 1206 q 414 1142 399 1167 q 446 1050 440 1099 z "},"":{"ha":593,"x_min":15,"x_max":579,"o":"m 565 744 q 578 597 576 651 q 579 529 579 543 q 569 372 579 450 q 528 208 558 285 q 439 68 497 131 q 374 20 410 36 q 303 4 339 4 q 200 35 249 4 q 85 148 126 81 q 31 306 44 215 q 19 406 24 356 q 15 507 15 457 q 26 702 18 604 q 58 896 35 800 q 89 945 68 928 q 139 967 110 963 q 163 968 151 968 q 247 946 206 968 q 318 865 289 924 q 329 824 329 844 q 325 797 329 811 q 294 649 297 708 q 290 558 290 589 q 297 438 290 499 q 304 392 300 414 q 315 350 308 371 q 339 310 322 328 q 361 299 353 299 q 383 312 372 299 q 400 343 393 325 q 412 378 407 361 q 417 404 417 396 q 426 567 426 486 q 422 687 426 607 q 381 885 417 767 q 376 906 378 896 q 371 925 374 915 q 371 933 371 929 q 394 957 371 957 q 432 952 414 957 q 465 932 450 947 q 532 850 506 896 q 565 744 558 804 m 217 982 q 197 986 208 982 q 174 1001 185 990 q 156 1042 156 1019 q 158 1060 156 1044 q 185 1090 160 1075 q 238 1108 213 1108 q 285 1090 263 1108 q 305 1067 300 1079 q 310 1046 310 1054 q 306 1028 310 1038 q 296 1011 303 1018 q 282 999 289 1004 q 217 982 260 982 m 397 982 q 377 986 389 982 q 354 1001 365 990 q 336 1042 336 1019 q 338 1060 336 1044 q 365 1090 340 1075 q 418 1108 393 1108 q 465 1090 443 1108 q 485 1067 481 1079 q 490 1046 490 1054 q 486 1028 490 1038 q 476 1011 483 1018 q 463 999 469 1004 q 397 982 440 982 z "},"":{"ha":585,"x_min":-7,"x_max":593,"o":"m 551 918 q 586 845 579 881 q 593 779 593 810 q 592 749 593 764 q 587 738 592 740 q 576 731 582 735 q 480 649 526 692 q 394 553 433 606 q 392 550 393 551 l 388 542 q 385 539 386 540 q 377 527 378 531 q 376 522 376 524 q 385 508 376 517 q 399 488 396 500 q 403 460 401 475 q 406 418 406 439 l 408 389 q 411 347 410 368 q 423 258 417 303 q 436 167 429 213 q 438 140 438 153 q 412 56 438 94 q 328 10 386 18 q 313 8 321 8 q 299 6 306 8 q 275 3 286 3 q 253 6 267 3 q 225 17 240 8 q 197 40 210 26 q 178 67 185 53 q 151 160 153 113 q 150 203 150 181 q 156 318 150 256 q 183 453 163 381 q 185 465 185 460 q 174 490 185 479 q 133 533 153 511 q 92 578 113 556 q 17 681 49 622 q -7 774 -7 724 q -3 822 -7 785 q 40 903 0 858 q 88 944 63 928 q 146 968 114 961 q 158 969 153 969 q 213 921 200 969 q 245 836 225 876 q 289 757 265 796 q 318 724 300 738 q 327 744 325 735 q 332 765 329 754 q 399 924 351 851 q 465 967 425 967 q 497 961 481 967 q 527 943 514 954 q 551 918 540 932 m 200 988 q 180 992 192 988 q 157 1007 168 996 q 139 1047 139 1025 q 141 1065 139 1050 q 168 1096 143 1081 q 221 1114 196 1114 q 268 1096 246 1114 q 288 1072 283 1085 q 293 1051 293 1060 q 289 1033 293 1043 q 279 1017 286 1024 q 265 1004 272 1010 q 200 988 243 988 m 381 988 q 360 992 372 988 q 338 1007 349 996 q 319 1047 319 1025 q 322 1065 319 1050 q 349 1096 324 1081 q 401 1114 376 1114 q 449 1096 426 1114 q 469 1072 464 1085 q 474 1051 474 1060 q 469 1033 474 1043 q 460 1017 467 1024 q 446 1004 453 1010 q 381 988 424 988 z "}}}
